  0
SECTION
  2
HEADER
  9
$ACADVER
  1
AC1015
  9
$ACADMAINTVER
 70
     6
  9
$DWGCODEPAGE
  3
ANSI_1252
  9
$INSBASE
 10
0.0
 20
0.0
 30
0.0
  9
$EXTMIN
 10
0.0
 20
0.0
 30
0.0
  9
$EXTMAX
 10
1189.0
 20
841.0
 30
0.0
  9
$LIMMIN
 10
0.0
 20
0.0
  9
$LIMMAX
 10
1189.0
 20
841.0
  9
$ORTHOMODE
 70
     0
  9
$REGENMODE
 70
     1
  9
$FILLMODE
 70
     1
  9
$QTEXTMODE
 70
     0
  9
$MIRRTEXT
 70
     1
  9
$LTSCALE
 40
1.0
  9
$ATTMODE
 70
     1
  9
$TEXTSIZE
 40
3.5
  9
$TRACEWID
 40
1.0
  9
$TEXTSTYLE
  7
Standard
  9
$CLAYER
  8
0
  9
$CELTYPE
  6
ByLayer
  9
$CECOLOR
 62
   256
  9
$CELTSCALE
 40
1.0
  9
$DISPSILH
 70
     0
  9
$DIMSCALE
 40
1.0
  9
$DIMASZ
 40
3.556
  9
$DIMEXO
 40
1.0
  9
$DIMDLI
 40
3.75
  9
$DIMRND
 40
0.0
  9
$DIMDLE
 40
0.0
  9
$DIMEXE
 40
1.0
  9
$DIMTP
 40
0.0
  9
$DIMTM
 40
0.0
  9
$DIMTXT
 40
3.5
  9
$DIMCEN
 40
2.5
  9
$DIMTSZ
 40
0.0
  9
$DIMTOL
 70
     0
  9
$DIMLIM
 70
     0
  9
$DIMTIH
 70
     1
  9
$DIMTOH
 70
     1
  9
$DIMSE1
 70
     0
  9
$DIMSE2
 70
     0
  9
$DIMTAD
 70
     1
  9
$DIMZIN
 70
     1
  9
$DIMBLK
  1

  9
$DIMASO
 70
     1
  9
$DIMSHO
 70
     1
  9
$DIMPOST
  1

  9
$DIMAPOST
  1

  9
$DIMALT
 70
     0
  9
$DIMALTD
 70
     3
  9
$DIMALTF
 40
0.0393700787
  9
$DIMLFAC
 40
1.0
  9
$DIMTOFL
 70
     1
  9
$DIMTVP
 40
0.0
  9
$DIMTIX
 70
     0
  9
$DIMSOXD
 70
     0
  9
$DIMSAH
 70
     0
  9
$DIMBLK1
  1

  9
$DIMBLK2
  1

  9
$DIMSTYLE
  2
ISO-25
  9
$DIMCLRD
 70
     0
  9
$DIMCLRE
 70
     0
  9
$DIMCLRT
 70
     0
  9
$DIMTFAC
 40
1.0
  9
$DIMGAP
 40
1.524
  9
$DIMJUST
 70
     0
  9
$DIMSD1
 70
     0
  9
$DIMSD2
 70
     0
  9
$DIMTOLJ
 70
     0
  9
$DIMTZIN
 70
     1
  9
$DIMALTZ
 70
     0
  9
$DIMALTTZ
 70
     0
  9
$DIMUPT
 70
     0
  9
$DIMDEC
 70
     2
  9
$DIMTDEC
 70
     2
  9
$DIMALTU
 70
     2
  9
$DIMALTTD
 70
     3
  9
$DIMTXSTY
  7
Standard
  9
$DIMAUNIT
 70
     0
  9
$DIMADEC
 70
     2
  9
$DIMALTRND
 40
0.0
  9
$DIMAZIN
 70
     0
  9
$DIMDSEP
 70
    44
  9
$DIMATFIT
 70
     3
  9
$DIMFRAC
 70
     0
  9
$DIMLDRBLK
  1

  9
$DIMLUNIT
 70
     2
  9
$DIMLWD
 70
    -2
  9
$DIMLWE
 70
    -2
  9
$DIMTMOVE
 70
     0
  9
$LUNITS
 70
     2
  9
$LUPREC
 70
     2
  9
$SKETCHINC
 40
1.0
  9
$FILLETRAD
 40
10.0
  9
$AUNITS
 70
     0
  9
$AUPREC
 70
     2
  9
$MENU
  1
.
  9
$ELEVATION
 40
0.0
  9
$PELEVATION
 40
0.0
  9
$THICKNESS
 40
0.0
  9
$LIMCHECK
 70
     0
  9
$CHAMFERA
 40
0.0
  9
$CHAMFERB
 40
0.0
  9
$CHAMFERC
 40
0.0
  9
$CHAMFERD
 40
0.0
  9
$SKPOLY
 70
     0
  9
$TDCREATE
 40
2459976.458527778
  9
$TDUCREATE
 40
2459976.416861111
  9
$TDUPDATE
 40
2459976.458528889
  9
$TDUUPDATE
 40
2459976.416862222
  9
$TDINDWG
 40
0.0000000116
  9
$TDUSRTIMER
 40
0.0000000116
  9
$USRTIMER
 70
     1
  9
$ANGBASE
 50
0.0
  9
$ANGDIR
 70
     0
  9
$PDMODE
 70
     0
  9
$PDSIZE
 40
-1.0
  9
$PLINEWID
 40
0.0
  9
$SPLFRAME
 70
     0
  9
$SPLINETYPE
 70
     6
  9
$SPLINESEGS
 70
     8
  9
$HANDSEED
  5
238
  9
$SURFTAB1
 70
     6
  9
$SURFTAB2
 70
     6
  9
$SURFTYPE
 70
     6
  9
$SURFU
 70
     6
  9
$SURFV
 70
     6
  9
$UCSBASE
  2

  9
$UCSNAME
  2

  9
$UCSORG
 10
0.0
 20
0.0
 30
0.0
  9
$UCSXDIR
 10
1.0
 20
0.0
 30
0.0
  9
$UCSYDIR
 10
0.0
 20
1.0
 30
0.0
  9
$UCSORTHOREF
  2

  9
$UCSORTHOVIEW
 70
     0
  9
$UCSORGTOP
 10
0.0
 20
0.0
 30
0.0
  9
$UCSORGBOTTOM
 10
0.0
 20
0.0
 30
0.0
  9
$UCSORGLEFT
 10
0.0
 20
0.0
 30
0.0
  9
$UCSORGRIGHT
 10
0.0
 20
0.0
 30
0.0
  9
$UCSORGFRONT
 10
0.0
 20
0.0
 30
0.0
  9
$UCSORGBACK
 10
0.0
 20
0.0
 30
0.0
  9
$PUCSBASE
  2

  9
$PUCSNAME
  2

  9
$PUCSORG
 10
0.0
 20
0.0
 30
0.0
  9
$PUCSXDIR
 10
1.0
 20
0.0
 30
0.0
  9
$PUCSYDIR
 10
0.0
 20
1.0
 30
0.0
  9
$PUCSORTHOREF
  2

  9
$PUCSORTHOVIEW
 70
     0
  9
$PUCSORGTOP
 10
0.0
 20
0.0
 30
0.0
  9
$PUCSORGBOTTOM
 10
0.0
 20
0.0
 30
0.0
  9
$PUCSORGLEFT
 10
0.0
 20
0.0
 30
0.0
  9
$PUCSORGRIGHT
 10
0.0
 20
0.0
 30
0.0
  9
$PUCSORGFRONT
 10
0.0
 20
0.0
 30
0.0
  9
$PUCSORGBACK
 10
0.0
 20
0.0
 30
0.0
  9
$USERI1
 70
     0
  9
$USERI2
 70
     0
  9
$USERI3
 70
     0
  9
$USERI4
 70
     0
  9
$USERI5
 70
     0
  9
$USERR1
 40
0.0
  9
$USERR2
 40
0.0
  9
$USERR3
 40
0.0
  9
$USERR4
 40
0.0
  9
$USERR5
 40
0.0
  9
$WORLDVIEW
 70
     1
  9
$SHADEDGE
 70
     3
  9
$SHADEDIF
 70
    70
  9
$TILEMODE
 70
     1
  9
$MAXACTVP
 70
    64
  9
$PINSBASE
 10
0.0
 20
0.0
 30
0.0
  9
$PLIMCHECK
 70
     0
  9
$PEXTMIN
 10
1.0000000000E+20
 20
1.0000000000E+20
 30
1.0000000000E+20
  9
$PEXTMAX
 10
-1.0000000000E+20
 20
-1.0000000000E+20
 30
-1.0000000000E+20
  9
$PLIMMIN
 10
0.0
 20
0.0
  9
$PLIMMAX
 10
420.0
 20
297.0
  9
$UNITMODE
 70
     0
  9
$VISRETAIN
 70
     1
  9
$PLINEGEN
 70
     0
  9
$PSLTSCALE
 70
     1
  9
$TREEDEPTH
 70
  3020
  9
$CMLSTYLE
  2
Standard
  9
$CMLJUST
 70
     0
  9
$CMLSCALE
 40
20.0
  9
$PROXYGRAPHICS
 70
     1
  9
$MEASUREMENT
 70
     1
  9
$CELWEIGHT
370
    -1
  9
$ENDCAPS
280
     0
  9
$JOINSTYLE
280
     0
  9
$LWDISPLAY
290
     1
  9
$INSUNITS
 70
     4
  9
$HYPERLINKBASE
  1

  9
$STYLESHEET
  1

  9
$XEDIT
290
     1
  9
$CEPSNTYPE
380
     0
  9
$PSTYLEMODE
290
     1
  9
$FINGERPRINTGUID
  2
{c3df2e7e-751f-4f5b-b7ef-14453cb4ce1e}
  9
$VERSIONGUID
  2
{FAEB1C32-E019-11D5-929B-00C0DF256EC4}
  9
$EXTNAMES
290
     1
  9
$PSVPSCALE
 40
0.0
  9
$OLESTARTUP
290
     0
  0
ENDSEC
  0
SECTION
  2
CLASSES
  0
CLASS
  1
ACDBDICTIONARYWDFLT
  2
AcDbDictionaryWithDefault
  3
ObjectDBX Classes
 90
        0
280
     0
281
     0
  0
CLASS
  1
VISUALSTYLE
  2
AcDbVisualStyle
  3
ObjectDBX Classes
 90
     4095
280
     0
281
     0
  0
CLASS
  1
MATERIAL
  2
AcDbMaterial
  3
ObjectDBX Classes
 90
     1153
280
     0
281
     0
  0
CLASS
  1
SCALE
  2
AcDbScale
  3
ObjectDBX Classes
 90
     1153
280
     0
281
     0
  0
CLASS
  1
TABLESTYLE
  2
AcDbTableStyle
  3
ObjectDBX Classes
 90
     4095
280
     0
281
     0
  0
CLASS
  1
MLEADERSTYLE
  2
AcDbMLeaderStyle
  3
ACDB_MLEADERSTYLE_CLASS
 90
     4095
280
     0
281
     0
  0
CLASS
  1
SUN
  2
AcDbSun
  3
SCENEOE
 90
     1153
280
     0
281
     0
  0
CLASS
  1
ACDBPLACEHOLDER
  2
AcDbPlaceHolder
  3
ObjectDBX Classes
 90
        0
280
     0
281
     0
  0
CLASS
  1
LAYOUT
  2
AcDbLayout
  3
ObjectDBX Classes
 90
        0
280
     0
281
     0
  0
ENDSEC
  0
SECTION
  2
TABLES
  0
TABLE
  2
VPORT
  5
8
330
0
100
AcDbSymbolTable
 70
     1
  0
VPORT
  5
29
330
8
100
AcDbSymbolTableRecord
100
AcDbViewportTableRecord
  2
*Active
 70
     0
 10
0.0
 20
0.0
 11
1.0
 21
1.0
 12
594.5
 22
420.5
 13
0.0
 23
0.0
 14
10.0
 24
10.0
 15
10.0
 25
10.0
 16
0.0
 26
0.0
 36
1.0
 17
0.0
 27
0.0
 37
0.0
 40
841.0
 41
1.4137931034
 42
50.0
 43
0.0
 44
0.0
 50
0.0
 51
0.0
 71
     0
 72
  2000
 73
     1
 74
     3
 75
     0
 76
     0
 77
     0
 78
     0
281
     0
 65
     1
110
0.0
120
0.0
130
0.0
111
1.0
121
0.0
131
0.0
112
0.0
122
1.0
132
0.0
 79
     0
146
0.0
  0
ENDTAB
  0
TABLE
  2
LTYPE
  5
5
330
0
100
AcDbSymbolTable
 70
     6
  0
LTYPE
  5
14
330
5
100
AcDbSymbolTableRecord
100
AcDbLinetypeTableRecord
  2
ByBlock
 70
     0
  3

 72
    65
 73
     0
 40
0.0
  0
LTYPE
  5
15
330
5
100
AcDbSymbolTableRecord
100
AcDbLinetypeTableRecord
  2
ByLayer
 70
     0
  3

 72
    65
 73
     0
 40
0.0
  0
LTYPE
  5
16
330
5
100
AcDbSymbolTableRecord
100
AcDbLinetypeTableRecord
  2
Continuous
 70
     0
  3
Solid line
 72
    65
 73
     0
 40
0.0
  0
LTYPE
  5
6E
330
5
100
AcDbSymbolTableRecord
100
AcDbLinetypeTableRecord
  2
HIDDEN
 70
     0
  3
Hidden __ __ __ __ __ __ __ __ __ __ __ __ __ __
 72
    65
 73
     2
 40
1.905
 49
1.27
 74
     0
 49
-0.635
 74
     0
  0
LTYPE
  5
6F
330
5
100
AcDbSymbolTableRecord
100
AcDbLinetypeTableRecord
  2
PHANTOM
 70
     0
  3
Phantom ______  __  __  ______  __  __  ______
 72
    65
 73
     6
 40
12.7
 49
6.35
 74
     0
 49
-1.27
 74
     0
 49
1.27
 74
     0
 49
-1.27
 74
     0
 49
1.27
 74
     0
 49
-1.27
 74
     0
  0
LTYPE
  5
70
330
5
100
AcDbSymbolTableRecord
100
AcDbLinetypeTableRecord
  2
CENTER
 70
     0
  3
Center ____ _ ____ _ ____ _ ____ _ ____ _ ____
 72
    65
 73
     4
 40
10.16
 49
6.35
 74
     0
 49
-1.27
 74
     0
 49
1.27
 74
     0
 49
-1.27
 74
     0
  0
LTYPE
  5
71
330
5
100
AcDbSymbolTableRecord
100
AcDbLinetypeTableRecord
  2
CENTERX2
 70
     0
  3
Center (2x) ________  __  ________  __  _____
 72
    65
 73
     4
 40
20.32
 49
12.7
 74
     0
 49
-2.54
 74
     0
 49
2.54
 74
     0
 49
-2.54
 74
     0
  0
LTYPE
  5
72
330
5
100
AcDbSymbolTableRecord
100
AcDbLinetypeTableRecord
  2
DOT2
 70
     0
  3
Dot (.5x) ........................................
 72
    65
 73
     2
 40
0.635
 49
0.0
 74
     0
 49
-0.635
 74
     0
  0
ENDTAB
  0
TABLE
  2
LAYER
  5
2
330
0
100
AcDbSymbolTable
 70
     1
  0
LAYER
  5
10
330
2
100
AcDbSymbolTableRecord
100
AcDbLayerTableRecord
  2
0
 70
     0
 62
     7
  6
Continuous
370
    -3
390
F
  0
ENDTAB
  0
TABLE
  2
STYLE
  5
3
330
0
100
AcDbSymbolTable
 70
     1
  0
STYLE
  5
11
330
3
100
AcDbSymbolTableRecord
100
AcDbTextStyleTableRecord
  2
Standard
 70
     0
 40
0.0
 41
1.0
 50
0.0
 71
     0
 42
3.5
  3
txt
  4

  0
ENDTAB
  0
TABLE
  2
VIEW
  5
6
330
0
100
AcDbSymbolTable
 70
     0
  0
ENDTAB
  0
TABLE
  2
UCS
  5
7
330
0
100
AcDbSymbolTable
 70
     0
  0
ENDTAB
  0
TABLE
  2
APPID
  5
9
330
0
100
AcDbSymbolTable
 70
     1
  0
APPID
  5
12
330
9
100
AcDbSymbolTableRecord
100
AcDbRegAppTableRecord
  2
ACAD
 70
     0
  0
ENDTAB
  0
TABLE
  2
DIMSTYLE
  5
A
330
0
100
AcDbSymbolTable
 70
     1
100
AcDbDimStyleTable
  0
DIMSTYLE
105
27
330
A
100
AcDbSymbolTableRecord
100
AcDbDimStyleTableRecord
  2
ISO-25
 70
     0
 41
2.5
 42
0.625
 43
3.75
 44
1.25
 73
     0
 74
     0
 77
     1
 78
     8
140
2.5
141
2.5
143
0.0393700787
147
0.625
171
     3
172
     1
178
     0
271
     2
272
     2
274
     3
278
    44
283
     0
284
     8
340
11
  0
ENDTAB
  0
TABLE
  2
BLOCK_RECORD
  5
1
330
0
100
AcDbSymbolTable
 70
     1
  0
BLOCK_RECORD
  5
1F
330
1
100
AcDbSymbolTableRecord
100
AcDbBlockTableRecord
  2
*Model_Space
340
22
  0
BLOCK_RECORD
  5
1B
330
1
100
AcDbSymbolTableRecord
100
AcDbBlockTableRecord
  2
*Paper_Space
340
1E
  0
BLOCK_RECORD
  5
23
330
1
100
AcDbSymbolTableRecord
100
AcDbBlockTableRecord
  2
*Paper_Space0
340
26
  0
ENDTAB
  0
ENDSEC
  0
SECTION
  2
BLOCKS
  0
BLOCK
  5
20
330
1F
100
AcDbEntity
  8
0
100
AcDbBlockBegin
  2
*Model_Space
 70
     0
 10
0.0
 20
0.0
 30
0.0
  3
*Model_Space
  1

  0
ENDBLK
  5
21
330
1F
100
AcDbEntity
  8
0
100
AcDbBlockEnd
  0
BLOCK
  5
1C
330
1B
100
AcDbEntity
 67
     1
  8
0
100
AcDbBlockBegin
  2
*Paper_Space
 70
     0
 10
0.0
 20
0.0
 30
0.0
  3
*Paper_Space
  1

  0
ENDBLK
  5
1D
330
1B
100
AcDbEntity
 67
     1
  8
0
100
AcDbBlockEnd
  0
BLOCK
  5
24
330
23
100
AcDbEntity
  8
0
100
AcDbBlockBegin
  2
*Paper_Space0
 70
     0
 10
0.0
 20
0.0
 30
0.0
  3
*Paper_Space0
  1

  0
ENDBLK
  5
25
330
23
100
AcDbEntity
  8
0
100
AcDbBlockEnd
  0
ENDSEC
  0
SECTION
  2
ENTITIES
  0
LINE
  5
73
330
1F
100
AcDbEntity
  8
0
  6
Continuous
 62
     7
370
    25
100
AcDbLine
 10
485.3151336837
 20
449.1808637012
 30
0.0
 11
495.3051336837
 21
449.1808637012
 31
0.0
  0
LINE
  5
74
330
1F
100
AcDbEntity
  8
0
  6
Continuous
 62
     7
370
    25
100
AcDbLine
 10
495.3051336837
 20
439.1808637012
 30
0.0
 11
495.3051336837
 21
449.1808637012
 31
0.0
  0
LINE
  5
75
330
1F
100
AcDbEntity
  8
0
  6
Continuous
 62
     7
370
    25
100
AcDbLine
 10
505.3051336837
 20
439.1808637012
 30
0.0
 11
495.3051336837
 21
439.1808637012
 31
0.0
  0
LINE
  5
76
330
1F
100
AcDbEntity
  8
0
  6
Continuous
 62
     7
370
    25
100
AcDbLine
 10
505.3051336837
 20
449.1808637012
 30
0.0
 11
505.3051336837
 21
439.1808637012
 31
0.0
  0
LINE
  5
77
330
1F
100
AcDbEntity
  8
0
  6
Continuous
 62
     7
370
    25
100
AcDbLine
 10
505.3051336837
 20
449.1808637012
 30
0.0
 11
532.5251336837
 21
449.1808637012
 31
0.0
  0
LINE
  5
78
330
1F
100
AcDbEntity
  8
0
  6
Continuous
 62
     7
370
    25
100
AcDbLine
 10
532.5251336837
 20
439.1808637012
 30
0.0
 11
532.5251336837
 21
449.1808637012
 31
0.0
  0
LINE
  5
79
330
1F
100
AcDbEntity
  8
0
  6
Continuous
 62
     7
370
    25
100
AcDbLine
 10
542.5251336837
 20
439.1808637012
 30
0.0
 11
532.5251336837
 21
439.1808637012
 31
0.0
  0
LINE
  5
7A
330
1F
100
AcDbEntity
  8
0
  6
Continuous
 62
     7
370
    25
100
AcDbLine
 10
542.5251336837
 20
449.1808637012
 30
0.0
 11
542.5251336837
 21
439.1808637012
 31
0.0
  0
LINE
  5
7B
330
1F
100
AcDbEntity
  8
0
  6
Continuous
 62
     7
370
    25
100
AcDbLine
 10
542.5251336837
 20
449.1808637012
 30
0.0
 11
569.7451336837
 21
449.1808637012
 31
0.0
  0
LINE
  5
7C
330
1F
100
AcDbEntity
  8
0
  6
Continuous
 62
     7
370
    25
100
AcDbLine
 10
569.7451336837
 20
439.1808637012
 30
0.0
 11
569.7451336837
 21
449.1808637012
 31
0.0
  0
LINE
  5
7D
330
1F
100
AcDbEntity
  8
0
  6
Continuous
 62
     7
370
    25
100
AcDbLine
 10
579.7451336837
 20
439.1808637012
 30
0.0
 11
569.7451336837
 21
439.1808637012
 31
0.0
  0
LINE
  5
7E
330
1F
100
AcDbEntity
  8
0
  6
Continuous
 62
     7
370
    25
100
AcDbLine
 10
579.7451336837
 20
449.1808637012
 30
0.0
 11
579.7451336837
 21
439.1808637012
 31
0.0
  0
LINE
  5
7F
330
1F
100
AcDbEntity
  8
0
  6
Continuous
 62
     7
370
    25
100
AcDbLine
 10
579.7451336837
 20
449.1808637012
 30
0.0
 11
606.9651336837
 21
449.1808637012
 31
0.0
  0
LINE
  5
80
330
1F
100
AcDbEntity
  8
0
  6
Continuous
 62
     7
370
    25
100
AcDbLine
 10
606.9651336837
 20
439.1808637012
 30
0.0
 11
606.9651336837
 21
449.1808637012
 31
0.0
  0
LINE
  5
81
330
1F
100
AcDbEntity
  8
0
  6
Continuous
 62
     7
370
    25
100
AcDbLine
 10
616.9651336837
 20
439.1808637012
 30
0.0
 11
606.9651336837
 21
439.1808637012
 31
0.0
  0
LINE
  5
82
330
1F
100
AcDbEntity
  8
0
  6
Continuous
 62
     7
370
    25
100
AcDbLine
 10
616.9651336837
 20
449.1808637012
 30
0.0
 11
616.9651336837
 21
439.1808637012
 31
0.0
  0
LINE
  5
83
330
1F
100
AcDbEntity
  8
0
  6
Continuous
 62
     7
370
    25
100
AcDbLine
 10
616.9651336837
 20
449.1808637012
 30
0.0
 11
644.1851336837
 21
449.1808637012
 31
0.0
  0
LINE
  5
84
330
1F
100
AcDbEntity
  8
0
  6
Continuous
 62
     7
370
    25
100
AcDbLine
 10
644.1851336837
 20
439.1808637012
 30
0.0
 11
644.1851336837
 21
449.1808637012
 31
0.0
  0
LINE
  5
85
330
1F
100
AcDbEntity
  8
0
  6
Continuous
 62
     7
370
    25
100
AcDbLine
 10
654.1851336837
 20
439.1808637012
 30
0.0
 11
644.1851336837
 21
439.1808637012
 31
0.0
  0
LINE
  5
86
330
1F
100
AcDbEntity
  8
0
  6
Continuous
 62
     7
370
    25
100
AcDbLine
 10
654.1851336837
 20
449.1808637012
 30
0.0
 11
654.1851336837
 21
439.1808637012
 31
0.0
  0
LINE
  5
87
330
1F
100
AcDbEntity
  8
0
  6
Continuous
 62
     7
370
    25
100
AcDbLine
 10
654.1851336837
 20
449.1808637012
 30
0.0
 11
681.4051336837
 21
449.1808637012
 31
0.0
  0
LINE
  5
88
330
1F
100
AcDbEntity
  8
0
  6
Continuous
 62
     7
370
    25
100
AcDbLine
 10
681.4051336837
 20
439.1808637012
 30
0.0
 11
681.4051336837
 21
449.1808637012
 31
0.0
  0
LINE
  5
89
330
1F
100
AcDbEntity
  8
0
  6
Continuous
 62
     7
370
    25
100
AcDbLine
 10
691.4051336837
 20
439.1808637012
 30
0.0
 11
681.4051336837
 21
439.1808637012
 31
0.0
  0
LINE
  5
8A
330
1F
100
AcDbEntity
  8
0
  6
Continuous
 62
     7
370
    25
100
AcDbLine
 10
691.4051336837
 20
449.1808637012
 30
0.0
 11
691.4051336837
 21
439.1808637012
 31
0.0
  0
LINE
  5
8B
330
1F
100
AcDbEntity
  8
0
  6
Continuous
 62
     7
370
    25
100
AcDbLine
 10
691.4051336837
 20
449.1808637012
 30
0.0
 11
701.3951336837
 21
449.1808637012
 31
0.0
  0
LINE
  5
8C
330
1F
100
AcDbEntity
  8
0
  6
Continuous
 62
     7
370
    25
100
AcDbLine
 10
701.3951336837
 20
449.1808637012
 30
0.0
 11
701.3951336837
 21
429.1808637012
 31
0.0
  0
LINE
  5
8D
330
1F
100
AcDbEntity
  8
0
  6
Continuous
 62
     7
370
    25
100
AcDbLine
 10
711.4051336837
 20
429.1808637012
 30
0.0
 11
701.3951336837
 21
429.1808637012
 31
0.0
  0
LINE
  5
8E
330
1F
100
AcDbEntity
  8
0
  6
Continuous
 62
     7
370
    25
100
AcDbLine
 10
711.4051336837
 20
419.1808637012
 30
0.0
 11
711.4051336837
 21
429.1808637012
 31
0.0
  0
LINE
  5
8F
330
1F
100
AcDbEntity
  8
0
  6
Continuous
 62
     7
370
    25
100
AcDbLine
 10
711.4051336837
 20
419.1808637012
 30
0.0
 11
701.3951336837
 21
419.1808637012
 31
0.0
  0
LINE
  5
90
330
1F
100
AcDbEntity
  8
0
  6
Continuous
 62
     7
370
    25
100
AcDbLine
 10
492.3151336837
 20
411.1808637012
 30
0.0
 11
701.3951336837
 21
411.1808637012
 31
0.0
  0
LINE
  5
91
330
1F
100
AcDbEntity
  8
0
  6
Continuous
 62
     7
370
    25
100
AcDbLine
 10
485.3151336837
 20
449.1808637012
 30
0.0
 11
485.3151336837
 21
418.1808637012
 31
0.0
  0
ARC
  5
92
330
1F
100
AcDbEntity
  8
0
  6
Continuous
 62
     7
370
    25
100
AcDbCircle
 10
492.3151336837
 20
418.1808637012
 30
0.0
 40
7.0
100
AcDbArc
 50
180.0
 51
270.0
  0
LINE
  5
93
330
1F
100
AcDbEntity
  8
0
  6
Continuous
 62
     7
370
    25
100
AcDbLine
 10
701.3951336837
 20
419.1808637012
 30
0.0
 11
701.3951336837
 21
411.1808637012
 31
0.0
  0
SPLINE
  5
94
330
1F
100
AcDbEntity
  8
0
  6
Continuous
 62
     7
370
    25
100
AcDbSpline
210
0.0
220
0.0
230
1.0
 70
     8
 71
     3
 72
     8
 73
     4
 74
     0
 42
0.00000001
 43
0.00000001
 40
0.0
 40
0.0
 40
0.0
 40
0.0
 40
1.0
 40
1.0
 40
1.0
 40
1.0
 10
527.9038980581772
 20
687.8357436864624
 30
0.0
 10
527.9128218137432
 20
679.4430923762679
 30
0.0
 10
527.9074450506437
 20
671.0504321985925
 30
0.0
 10
527.9089201220299
 20
662.6577771367715
 30
0.0
  0
SPLINE
  5
95
330
1F
100
AcDbEntity
  8
0
  6
Continuous
 62
     7
370
    25
100
AcDbSpline
210
0.0
220
0.0
230
1.0
 70
     8
 71
     3
 72
     8
 73
     4
 74
     0
 42
0.00000001
 43
0.00000001
 40
0.0
 40
0.0
 40
0.0
 40
0.0
 40
1.0
 40
1.0
 40
1.0
 40
1.0
 10
527.7693031089794
 20
691.4803724638697
 30
0.0
 10
528.0522672751389
 20
690.3361130352209
 30
0.0
 10
527.8251111701281
 20
689.0380398698596
 30
0.0
 10
527.9038980581772
 20
687.8357436864624
 30
0.0
  0
SPLINE
  5
96
330
1F
100
AcDbEntity
  8
0
  6
Continuous
 62
     7
370
    25
100
AcDbSpline
210
0.0
220
0.0
230
1.0
 70
     8
 71
     3
 72
     8
 73
     4
 74
     0
 42
0.00000001
 43
0.00000001
 40
0.0
 40
0.0
 40
0.0
 40
0.0
 40
1.0
 40
1.0
 40
1.0
 40
1.0
 10
507.8221259123036
 20
691.5209823444133
 30
0.0
 10
514.4707384206055
 20
691.503402221944
 30
0.0
 10
521.1231060798101
 20
691.5738650462624
 30
0.0
 10
527.7693031089794
 20
691.4803724638697
 30
0.0
  0
SPLINE
  5
97
330
1F
100
AcDbEntity
  8
0
  6
Continuous
 62
     7
370
    25
100
AcDbSpline
210
0.0
220
0.0
230
1.0
 70
     8
 71
     3
 72
     8
 73
     4
 74
     0
 42
0.00000001
 43
0.00000001
 40
0.0
 40
0.0
 40
0.0
 40
0.0
 40
1.0
 40
1.0
 40
1.0
 40
1.0
 10
504.3382296669456
 20
691.3697725776512
 30
0.0
 10
505.3921977875886
 20
691.69225751577
 30
0.0
 10
506.6796688560445
 20
691.4332391867006
 30
0.0
 10
507.8221259123036
 20
691.5209823444133
 30
0.0
  0
SPLINE
  5
98
330
1F
100
AcDbEntity
  8
0
  6
Continuous
 62
     7
370
    25
100
AcDbSpline
210
0.0
220
0.0
230
1.0
 70
     8
 71
     3
 72
     8
 73
     4
 74
     0
 42
0.00000001
 43
0.00000001
 40
0.0
 40
0.0
 40
0.0
 40
0.0
 40
1.0
 40
1.0
 40
1.0
 40
1.0
 10
504.3123380998534
 20
666.4638954790117
 30
0.0
 10
504.3159822935558
 20
674.7657909616098
 30
0.0
 10
504.2810951215629
 20
683.0682226994472
 30
0.0
 10
504.3382296669456
 20
691.3697725776512
 30
0.0
  0
SPLINE
  5
99
330
1F
100
AcDbEntity
  8
0
  6
Continuous
 62
     7
370
    25
100
AcDbSpline
210
0.0
220
0.0
230
1.0
 70
     8
 71
     3
 72
     8
 73
     4
 74
     0
 42
0.00000001
 43
0.00000001
 40
0.0
 40
0.0
 40
0.0
 40
0.0
 40
1.0
 40
1.0
 40
1.0
 40
1.0
 10
504.4486682332183
 20
662.6905432754809
 30
0.0
 10
504.1563063559929
 20
663.8617878135468
 30
0.0
 10
504.3938393466246
 20
665.2217135926994
 30
0.0
 10
504.3123380998534
 20
666.4638954790117
 30
0.0
  0
SPLINE
  5
9A
330
1F
100
AcDbEntity
  8
0
  6
Continuous
 62
     7
370
    25
100
AcDbSpline
210
0.0
220
0.0
230
1.0
 70
     8
 71
     3
 72
     8
 73
     4
 74
     0
 42
0.00000001
 43
0.00000001
 40
0.0
 40
0.0
 40
0.0
 40
0.0
 40
1.0
 40
1.0
 40
1.0
 40
1.0
 10
509.1098431102047
 20
662.6483554380322
 30
0.0
 10
507.5562759847949
 20
662.6624316548986
 30
0.0
 10
506.0011335172504
 20
662.6309145804917
 30
0.0
 10
504.4486682332183
 20
662.6905432754809
 30
0.0
  0
SPLINE
  5
9B
330
1F
100
AcDbEntity
  8
0
  6
Continuous
 62
     7
370
    25
100
AcDbSpline
210
0.0
220
0.0
230
1.0
 70
     8
 71
     3
 72
     8
 73
     4
 74
     0
 42
0.00000001
 43
0.00000001
 40
0.0
 40
0.0
 40
0.0
 40
0.0
 40
1.0
 40
1.0
 40
1.0
 40
1.0
 10
527.9089201220299
 20
662.6577771367715
 30
0.0
 10
521.642550848484
 20
662.6641207963752
 30
0.0
 10
515.3761355322473
 20
662.6440606213207
 30
0.0
 10
509.1098431102047
 20
662.6483554380322
 30
0.0
  0
LINE
  5
9C
330
1F
100
AcDbEntity
  8
0
  6
Continuous
 62
     7
370
    25
100
AcDbLine
 10
698.54
 20
687.94889521
 30
0.0
 11
698.54
 21
695.94889521
 31
0.0
  0
LINE
  5
9D
330
1F
100
AcDbEntity
  8
0
  6
Continuous
 62
     7
370
    25
100
AcDbLine
 10
708.55
 20
687.94889521
 30
0.0
 11
698.54
 21
687.94889521
 31
0.0
  0
LINE
  5
9E
330
1F
100
AcDbEntity
  8
0
  6
Continuous
 62
     7
370
    25
100
AcDbLine
 10
708.55
 20
687.94889521
 30
0.0
 11
708.55
 21
677.94889521
 31
0.0
  0
LINE
  5
9F
330
1F
100
AcDbEntity
  8
0
  6
Continuous
 62
     7
370
    25
100
AcDbLine
 10
708.55
 20
677.94889521
 30
0.0
 11
698.54
 21
677.94889521
 31
0.0
  0
LINE
  5
A0
330
1F
100
AcDbEntity
  8
0
  6
Continuous
 62
     7
370
    25
100
AcDbLine
 10
698.54
 20
657.94889521
 30
0.0
 11
698.54
 21
677.94889521
 31
0.0
  0
LINE
  5
A1
330
1F
100
AcDbEntity
  8
0
  6
Continuous
 62
     7
370
    25
100
AcDbLine
 10
698.54
 20
657.94889521
 30
0.0
 11
688.55
 21
657.94889521
 31
0.0
  0
LINE
  5
A2
330
1F
100
AcDbEntity
  8
0
  6
Continuous
 62
     7
370
    25
100
AcDbLine
 10
688.55
 20
657.94889521
 30
0.0
 11
688.55
 21
667.94889521
 31
0.0
  0
LINE
  5
A3
330
1F
100
AcDbEntity
  8
0
  6
Continuous
 62
     7
370
    25
100
AcDbLine
 10
688.55
 20
667.94889521
 30
0.0
 11
678.55
 21
667.94889521
 31
0.0
  0
LINE
  5
A4
330
1F
100
AcDbEntity
  8
0
  6
Continuous
 62
     7
370
    25
100
AcDbLine
 10
678.55
 20
667.94889521
 30
0.0
 11
678.55
 21
657.94889521
 31
0.0
  0
LINE
  5
A5
330
1F
100
AcDbEntity
  8
0
  6
Continuous
 62
     7
370
    25
100
AcDbLine
 10
678.55
 20
657.94889521
 30
0.0
 11
651.33
 21
657.94889521
 31
0.0
  0
LINE
  5
A6
330
1F
100
AcDbEntity
  8
0
  6
Continuous
 62
     7
370
    25
100
AcDbLine
 10
651.33
 20
657.94889521
 30
0.0
 11
651.33
 21
667.94889521
 31
0.0
  0
LINE
  5
A7
330
1F
100
AcDbEntity
  8
0
  6
Continuous
 62
     7
370
    25
100
AcDbLine
 10
651.33
 20
667.94889521
 30
0.0
 11
641.33
 21
667.94889521
 31
0.0
  0
LINE
  5
A8
330
1F
100
AcDbEntity
  8
0
  6
Continuous
 62
     7
370
    25
100
AcDbLine
 10
641.33
 20
667.94889521
 30
0.0
 11
641.33
 21
657.94889521
 31
0.0
  0
LINE
  5
A9
330
1F
100
AcDbEntity
  8
0
  6
Continuous
 62
     7
370
    25
100
AcDbLine
 10
641.33
 20
657.94889521
 30
0.0
 11
614.11
 21
657.94889521
 31
0.0
  0
LINE
  5
AA
330
1F
100
AcDbEntity
  8
0
  6
Continuous
 62
     7
370
    25
100
AcDbLine
 10
614.11
 20
657.94889521
 30
0.0
 11
614.11
 21
667.94889521
 31
0.0
  0
LINE
  5
AB
330
1F
100
AcDbEntity
  8
0
  6
Continuous
 62
     7
370
    25
100
AcDbLine
 10
614.11
 20
667.94889521
 30
0.0
 11
604.11
 21
667.94889521
 31
0.0
  0
LINE
  5
AC
330
1F
100
AcDbEntity
  8
0
  6
Continuous
 62
     7
370
    25
100
AcDbLine
 10
604.11
 20
667.94889521
 30
0.0
 11
604.11
 21
657.94889521
 31
0.0
  0
LINE
  5
AD
330
1F
100
AcDbEntity
  8
0
  6
Continuous
 62
     7
370
    25
100
AcDbLine
 10
604.11
 20
657.94889521
 30
0.0
 11
576.89
 21
657.94889521
 31
0.0
  0
LINE
  5
AE
330
1F
100
AcDbEntity
  8
0
  6
Continuous
 62
     7
370
    25
100
AcDbLine
 10
576.89
 20
657.94889521
 30
0.0
 11
576.89
 21
667.94889521
 31
0.0
  0
LINE
  5
AF
330
1F
100
AcDbEntity
  8
0
  6
Continuous
 62
     7
370
    25
100
AcDbLine
 10
576.89
 20
667.94889521
 30
0.0
 11
566.89
 21
667.94889521
 31
0.0
  0
LINE
  5
B0
330
1F
100
AcDbEntity
  8
0
  6
Continuous
 62
     7
370
    25
100
AcDbLine
 10
566.89
 20
667.94889521
 30
0.0
 11
566.89
 21
657.94889521
 31
0.0
  0
LINE
  5
B1
330
1F
100
AcDbEntity
  8
0
  6
Continuous
 62
     7
370
    25
100
AcDbLine
 10
566.89
 20
657.94889521
 30
0.0
 11
539.67
 21
657.94889521
 31
0.0
  0
LINE
  5
B2
330
1F
100
AcDbEntity
  8
0
  6
Continuous
 62
     7
370
    25
100
AcDbLine
 10
539.67
 20
657.94889521
 30
0.0
 11
539.67
 21
667.94889521
 31
0.0
  0
LINE
  5
B3
330
1F
100
AcDbEntity
  8
0
  6
Continuous
 62
     7
370
    25
100
AcDbLine
 10
539.67
 20
667.94889521
 30
0.0
 11
529.67
 21
667.94889521
 31
0.0
  0
LINE
  5
B4
330
1F
100
AcDbEntity
  8
0
  6
Continuous
 62
     7
370
    25
100
AcDbLine
 10
529.67
 20
667.94889521
 30
0.0
 11
529.67
 21
657.94889521
 31
0.0
  0
LINE
  5
B5
330
1F
100
AcDbEntity
  8
0
  6
Continuous
 62
     7
370
    25
100
AcDbLine
 10
529.67
 20
657.94889521
 30
0.0
 11
502.45
 21
657.94889521
 31
0.0
  0
LINE
  5
B6
330
1F
100
AcDbEntity
  8
0
  6
Continuous
 62
     7
370
    25
100
AcDbLine
 10
502.45
 20
657.94889521
 30
0.0
 11
502.45
 21
667.94889521
 31
0.0
  0
LINE
  5
B7
330
1F
100
AcDbEntity
  8
0
  6
Continuous
 62
     7
370
    25
100
AcDbLine
 10
502.45
 20
667.94889521
 30
0.0
 11
492.45
 21
667.94889521
 31
0.0
  0
LINE
  5
B8
330
1F
100
AcDbEntity
  8
0
  6
Continuous
 62
     7
370
    25
100
AcDbLine
 10
492.45
 20
667.94889521
 30
0.0
 11
492.45
 21
657.94889521
 31
0.0
  0
LINE
  5
B9
330
1F
100
AcDbEntity
  8
0
  6
Continuous
 62
     7
370
    25
100
AcDbLine
 10
492.45
 20
657.94889521
 30
0.0
 11
482.46
 21
657.94889521
 31
0.0
  0
LINE
  5
BA
330
1F
100
AcDbEntity
  8
0
  6
Continuous
 62
     7
370
    25
100
AcDbLine
 10
482.46
 20
657.94889521
 30
0.0
 11
482.46
 21
688.94889521
 31
0.0
  0
ARC
  5
BB
330
1F
100
AcDbEntity
  8
0
  6
Continuous
 62
     7
370
    25
100
AcDbCircle
 10
489.46
 20
688.94889521
 30
0.0
 40
7.000000000000114
100
AcDbArc
 50
90.0
 51
180.0
  0
LINE
  5
BC
330
1F
100
AcDbEntity
  8
0
  6
Continuous
 62
     7
370
    25
100
AcDbLine
 10
698.54
 20
695.94889521
 30
0.0
 11
489.46
 21
695.94889521
 31
0.0
  0
LINE
  5
BD
330
1F
100
AcDbEntity
  8
0
  6
Continuous
 62
     7
370
    25
100
AcDbLine
 10
523.816231732
 20
668.2238345841
 30
0.0
 11
523.816231732
 21
664.322139233
 31
0.0
  0
LINE
  5
BE
330
1F
100
AcDbEntity
  8
0
  6
Continuous
 62
     7
370
    25
100
AcDbLine
 10
525.793128543
 20
668.2238345841
 30
0.0
 11
523.816231732
 21
668.2238345841
 31
0.0
  0
SPLINE
  5
BF
330
1F
100
AcDbEntity
  8
0
  6
Continuous
 62
     7
370
    25
100
AcDbSpline
210
0.0
220
0.0
230
1.0
 70
     8
 71
     3
 72
     8
 73
     4
 74
     0
 42
0.00000001
 43
0.00000001
 40
0.0
 40
0.0
 40
0.0
 40
0.0
 40
1.0
 40
1.0
 40
1.0
 40
1.0
 10
526.4491872044091
 20
667.5280778011017
 30
0.0
 10
526.5805292659323
 20
668.1024225099045
 30
0.0
 10
526.3945643162239
 20
668.3663522866837
 30
0.0
 10
525.7931285429729
 20
668.2238345841206
 30
0.0
  0
LINE
  5
C0
330
1F
100
AcDbEntity
  8
0
  6
Continuous
 62
     7
370
    25
100
AcDbLine
 10
525.0736980863
 20
667.517670334
 30
0.0
 11
526.4491872044
 21
667.5280778011
 31
0.0
  0
SPLINE
  5
C1
330
1F
100
AcDbEntity
  8
0
  6
Continuous
 62
     7
370
    25
100
AcDbSpline
210
0.0
220
0.0
230
1.0
 70
     8
 71
     3
 72
     8
 73
     4
 74
     0
 42
0.00000001
 43
0.00000001
 40
0.0
 40
0.0
 40
0.0
 40
0.0
 40
1.0
 40
1.0
 40
1.0
 40
1.0
 10
524.5665501266292
 20
666.6276796751247
 30
0.0
 10
524.5646572604572
 20
667.0911483552504
 30
0.0
 10
524.3867242023438
 20
667.7264034511278
 30
0.0
 10
525.0736980863243
 20
667.5176703340395
 30
0.0
  0
LINE
  5
C2
330
1F
100
AcDbEntity
  8
0
  6
Continuous
 62
     7
370
    25
100
AcDbLine
 10
526.0896864441
 20
666.6138856261
 30
0.0
 11
524.5665501266
 21
666.6276796751
 31
0.0
  0
SPLINE
  5
C3
330
1F
100
AcDbEntity
  8
0
  6
Continuous
 62
     7
370
    25
100
AcDbSpline
210
0.0
220
0.0
230
1.0
 70
     8
 71
     3
 72
     8
 73
     4
 74
     0
 42
0.00000001
 43
0.00000001
 40
0.0
 40
0.0
 40
0.0
 40
0.0
 40
1.0
 40
1.0
 40
1.0
 40
1.0
 10
525.5747529496015
 20
665.885793118222
 30
0.0
 10
526.173716059835
 20
665.6454875618122
 30
0.0
 10
526.2991654527519
 20
666.2866607918829
 30
0.0
 10
526.0896864440748
 20
666.6138856260565
 30
0.0
  0
SPLINE
  5
C4
330
1F
100
AcDbEntity
  8
0
  6
Continuous
 62
     7
370
    25
100
AcDbSpline
210
0.0
220
0.0
230
1.0
 70
     8
 71
     3
 72
     8
 73
     4
 74
     0
 42
0.00000001
 43
0.00000001
 40
0.0
 40
0.0
 40
0.0
 40
0.0
 40
1.0
 40
1.0
 40
1.0
 40
1.0
 10
524.5529086437114
 20
665.5289840931644
 30
0.0
 10
524.3961399894288
 20
666.1408178975681
 30
0.0
 10
525.2132604165744
 20
665.787545633268
 30
0.0
 10
525.5747529496015
 20
665.885793118222
 30
0.0
  0
SPLINE
  5
C5
330
1F
100
AcDbEntity
  8
0
  6
Continuous
 62
     7
370
    25
100
AcDbSpline
210
0.0
220
0.0
230
1.0
 70
     8
 71
     3
 72
     8
 73
     4
 74
     0
 42
0.00000001
 43
0.00000001
 40
0.0
 40
0.0
 40
0.0
 40
0.0
 40
1.0
 40
1.0
 40
1.0
 40
1.0
 10
525.4264570598876
 20
665.025637213377
 30
0.0
 10
524.9822145568442
 20
665.0415126194348
 30
0.0
 10
524.3432206807985
 20
664.8641039932523
 30
0.0
 10
524.5529086437114
 20
665.5289840931644
 30
0.0
  0
SPLINE
  5
C6
330
1F
100
AcDbEntity
  8
0
  6
Continuous
 62
     7
370
    25
100
AcDbSpline
210
0.0
220
0.0
230
1.0
 70
     8
 71
     3
 72
     8
 73
     4
 74
     0
 42
0.00000001
 43
0.00000001
 40
0.0
 40
0.0
 40
0.0
 40
0.0
 40
1.0
 40
1.0
 40
1.0
 40
1.0
 10
526.4568268804909
 20
664.6700150665677
 30
0.0
 10
526.6007317754281
 20
665.2829794748203
 30
0.0
 10
525.7895269813914
 20
664.9269948981398
 30
0.0
 10
525.4264570598876
 20
665.025637213377
 30
0.0
  0
LINE
  5
C7
330
1F
100
AcDbEntity
  8
0
  6
Continuous
 62
     7
370
    25
100
AcDbLine
 10
523.816231732
 20
664.322139233
 30
0.0
 11
526.4644665566
 21
664.322139233
 31
0.0
  0
LINE
  5
C8
330
1F
100
AcDbEntity
  8
0
  6
Continuous
 62
     7
370
    25
100
AcDbLine
 10
526.4644665566
 20
664.322139233
 30
0.0
 11
526.4568268805
 21
664.6700150666
 31
0.0
  0
SPLINE
  5
C9
330
1F
100
AcDbEntity
  8
0
  6
Continuous
 62
     7
370
    25
100
AcDbSpline
210
0.0
220
0.0
230
1.0
 70
     8
 71
     3
 72
     8
 73
     4
 74
     0
 42
0.00000001
 43
0.00000001
 40
0.5
 40
0.5
 40
0.5
 40
0.5
 40
1.0
 40
1.0
 40
1.0
 40
1.0
 10
516.5688498053947
 20
679.2180146155769
 30
0.0
 10
516.6036451193776
 20
679.1271399012059
 30
0.0
 10
516.5113166496808
 20
678.9325356090213
 30
0.0
 10
516.187478454356
 20
678.9068258821358
 30
0.0
  0
SPLINE
  5
CA
330
1F
100
AcDbEntity
  8
0
  6
Continuous
 62
     7
370
    25
100
AcDbSpline
210
0.0
220
0.0
230
1.0
 70
     8
 71
     3
 72
     8
 73
     4
 74
     0
 42
0.00000001
 43
0.00000001
 40
0.0
 40
0.0
 40
0.0
 40
0.0
 40
0.5
 40
0.5
 40
0.5
 40
0.5
 10
516.187478454356
 20
678.9068258821358
 30
0.0
 10
516.3721353937494
 20
679.296034466505
 30
0.0
 10
516.5340544914119
 20
679.3088893299479
 30
0.0
 10
516.5688498053947
 20
679.2180146155769
 30
0.0
  0
SPLINE
  5
CB
330
1F
100
AcDbEntity
  8
0
  6
Continuous
 62
     7
370
    25
100
AcDbSpline
210
0.0
220
0.0
230
1.0
 70
     8
 71
     3
 72
     8
 73
     4
 74
     0
 42
0.00000001
 43
0.00000001
 40
0.5
 40
0.5
 40
0.5
 40
0.5
 40
1.0
 40
1.0
 40
1.0
 40
1.0
 10
515.5529354001634
 20
682.5908122073218
 30
0.0
 10
515.5878611684365
 20
682.5016001456697
 30
0.0
 10
515.4814212393201
 20
682.2912954949161
 30
0.0
 10
515.1288383079948
 20
682.2275344400176
 30
0.0
  0
SPLINE
  5
CC
330
1F
100
AcDbEntity
  8
0
  6
Continuous
 62
     7
370
    25
100
AcDbSpline
210
0.0
220
0.0
230
1.0
 70
     8
 71
     3
 72
     8
 73
     4
 74
     0
 42
0.00000001
 43
0.00000001
 40
0.0
 40
0.0
 40
0.0
 40
0.0
 40
0.5
 40
0.5
 40
0.5
 40
0.5
 10
515.1288383079948
 20
682.2275344400176
 30
0.0
 10
515.3417181662278
 20
682.6481437415249
 30
0.0
 10
515.5180096318903
 20
682.6800242689742
 30
0.0
 10
515.5529354001634
 20
682.5908122073218
 30
0.0
  0
SPLINE
  5
CD
330
1F
100
AcDbEntity
  8
0
  6
Continuous
 62
     7
370
    25
100
AcDbSpline
210
0.0
220
0.0
230
1.0
 70
     8
 71
     3
 72
     8
 73
     4
 74
     0
 42
0.00000001
 43
0.00000001
 40
0.5
 40
0.5
 40
0.5
 40
0.5
 40
1.0
 40
1.0
 40
1.0
 40
1.0
 10
515.8009144115055
 20
681.5338946544416
 30
0.0
 10
515.8240825392336
 20
681.4344342572242
 30
0.0
 10
515.7134028456845
 20
681.2160702029468
 30
0.0
 10
515.3993709476732
 20
681.1771836832623
 30
0.0
  0
SPLINE
  5
CE
330
1F
100
AcDbEntity
  8
0
  6
Continuous
 62
     7
370
    25
100
AcDbSpline
210
0.0
220
0.0
230
1.0
 70
     8
 71
     3
 72
     8
 73
     4
 74
     0
 42
0.00000001
 43
0.00000001
 40
0.0
 40
0.0
 40
0.0
 40
0.0
 40
0.5
 40
0.5
 40
0.5
 40
0.5
 10
515.3993709476732
 20
681.1771836832623
 30
0.0
 10
515.6207303347715
 20
681.6139117918169
 30
0.0
 10
515.7777462837771
 20
681.6333550516591
 30
0.0
 10
515.8009144115055
 20
681.5338946544416
 30
0.0
  0
SPLINE
  5
CF
330
1F
100
AcDbEntity
  8
0
  6
Continuous
 62
     7
370
    25
100
AcDbSpline
210
0.0
220
0.0
230
1.0
 70
     8
 71
     3
 72
     8
 73
     4
 74
     0
 42
0.00000001
 43
0.00000001
 40
0.0
 40
0.0
 40
0.0
 40
0.0
 40
1.0
 40
1.0
 40
1.0
 40
1.0
 10
510.5040179437631
 20
669.5286294138916
 30
0.0
 10
510.0721882090676
 20
669.536166772883
 30
0.0
 10
509.574605305724
 20
669.6353590993238
 30
0.0
 10
509.566964720157
 20
669.0516539683504
 30
0.0
  0
SPLINE
  5
D0
330
1F
100
AcDbEntity
  8
0
  6
Continuous
 62
     7
370
    25
100
AcDbSpline
210
0.0
220
0.0
230
1.0
 70
     8
 71
     3
 72
     8
 73
     4
 74
     0
 42
0.00000001
 43
0.00000001
 40
0.0
 40
0.0
 40
0.0
 40
0.0
 40
1.0
 40
1.0
 40
1.0
 40
1.0
 10
511.3655244342012
 20
668.8513740618981
 30
0.0
 10
510.93258887913
 20
668.8722041162147
 30
0.0
 10
511.1556616227495
 20
669.8241427711864
 30
0.0
 10
510.5040179437631
 20
669.5286294138916
 30
0.0
  0
SPLINE
  5
D1
330
1F
100
AcDbEntity
  8
0
  6
Continuous
 62
     7
370
    25
100
AcDbSpline
210
0.0
220
0.0
230
1.0
 70
     8
 71
     3
 72
     8
 73
     4
 74
     0
 42
0.00000001
 43
0.00000001
 40
0.0
 40
0.0
 40
0.0
 40
0.0
 40
1.0
 40
1.0
 40
1.0
 40
1.0
 10
510.2914770393135
 20
671.5178358803287
 30
0.0
 10
510.8918214302673
 20
671.1057082108713
 30
0.0
 10
511.4481216106961
 20
669.3994770517882
 30
0.0
 10
511.3655244342012
 20
668.8513740618981
 30
0.0
  0
SPLINE
  5
D2
330
1F
100
AcDbEntity
  8
0
  6
Continuous
 62
     7
370
    25
100
AcDbSpline
210
0.0
220
0.0
230
1.0
 70
     8
 71
     3
 72
     8
 73
     4
 74
     0
 42
0.00000001
 43
0.00000001
 40
0.0
 40
0.0
 40
0.0
 40
0.0
 40
1.0
 40
1.0
 40
1.0
 40
1.0
 10
509.1371234612703
 20
668.8779552461795
 30
0.0
 10
509.5712390734506
 20
669.6808978214822
 30
0.0
 10
509.6758174852146
 20
670.957207573291
 30
0.0
 10
510.2914770393135
 20
671.5178358803287
 30
0.0
  0
SPLINE
  5
D3
330
1F
100
AcDbEntity
  8
0
  6
Continuous
 62
     7
370
    25
100
AcDbSpline
210
0.0
220
0.0
230
1.0
 70
     8
 71
     3
 72
     8
 73
     4
 74
     0
 42
0.00000001
 43
0.00000001
 40
0.0
 40
0.0
 40
0.0
 40
0.0
 40
1.0
 40
1.0
 40
1.0
 40
1.0
 10
509.566964720157
 20
669.0516539683504
 30
0.0
 10
509.5498538920756
 20
668.7725344237045
 30
0.0
 10
509.3365191206905
 20
668.8693026309029
 30
0.0
 10
509.1371234612703
 20
668.8779552461795
 30
0.0
  0
SPLINE
  5
D4
330
1F
100
AcDbEntity
  8
0
  6
Continuous
 62
     7
370
    25
100
AcDbSpline
210
0.0
220
0.0
230
1.0
 70
     8
 71
     3
 72
     8
 73
     4
 74
     0
 42
0.00000001
 43
0.00000001
 40
0.5
 40
0.5
 40
0.5
 40
0.5
 40
1.0
 40
1.0
 40
1.0
 40
1.0
 10
515.4786210479275
 20
682.9388754659187
 30
0.0
 10
515.488033907607
 20
682.8309325413767
 30
0.0
 10
515.3547832628698
 20
682.6074100004594
 30
0.0
 10
515.0506305346772
 20
682.5921366167927
 30
0.0
  0
SPLINE
  5
D5
330
1F
100
AcDbEntity
  8
0
  6
Continuous
 62
     7
370
    25
100
AcDbSpline
210
0.0
220
0.0
230
1.0
 70
     8
 71
     3
 72
     8
 73
     4
 74
     0
 42
0.00000001
 43
0.00000001
 40
0.0
 40
0.0
 40
0.0
 40
0.0
 40
0.5
 40
0.5
 40
0.5
 40
0.5
 10
515.0506305346772
 20
682.5921366167927
 30
0.0
 10
515.3171318241517
 20
683.0391816986274
 30
0.0
 10
515.469208188248
 20
683.0468183904608
 30
0.0
 10
515.4786210479275
 20
682.9388754659187
 30
0.0
  0
SPLINE
  5
D6
330
1F
100
AcDbEntity
  8
0
  6
Continuous
 62
     7
370
    25
100
AcDbSpline
210
0.0
220
0.0
230
1.0
 70
     8
 71
     3
 72
     8
 73
     4
 74
     0
 42
0.00000001
 43
0.00000001
 40
0.5
 40
0.5
 40
0.5
 40
0.5
 40
1.0
 40
1.0
 40
1.0
 40
1.0
 10
514.4326678512953
 20
686.7628639995793
 30
0.0
 10
514.5057810577329
 20
686.7037073700659
 30
0.0
 10
514.4525814571178
 20
686.5171978944867
 30
0.0
 10
514.0537294301373
 20
686.3808054613822
 30
0.0
  0
SPLINE
  5
D7
330
1F
100
AcDbEntity
  8
0
  6
Continuous
 62
     7
370
    25
100
AcDbSpline
210
0.0
220
0.0
230
1.0
 70
     8
 71
     3
 72
     8
 73
     4
 74
     0
 42
0.00000001
 43
0.00000001
 40
0.0
 40
0.0
 40
0.0
 40
0.0
 40
0.5
 40
0.5
 40
0.5
 40
0.5
 10
514.0537294301373
 20
686.3808054613822
 30
0.0
 10
514.1601286313673
 20
686.7538244125406
 30
0.0
 10
514.3595546448577
 20
686.8220206290928
 30
0.0
 10
514.4326678512953
 20
686.7628639995793
 30
0.0
  0
SPLINE
  5
D8
330
1F
100
AcDbEntity
  8
0
  6
Continuous
 62
     7
370
    25
100
AcDbSpline
210
0.0
220
0.0
230
1.0
 70
     8
 71
     3
 72
     8
 73
     4
 74
     0
 42
0.00000001
 43
0.00000001
 40
0.5
 40
0.5
 40
0.5
 40
0.5
 40
1.0
 40
1.0
 40
1.0
 40
1.0
 10
514.6746995680733
 20
686.1038360393375
 30
0.0
 10
514.7295080054596
 20
686.042874081607
 30
0.0
 10
514.6518999808202
 20
685.8567674511498
 30
0.0
 10
514.2774501819958
 20
685.7284020211571
 30
0.0
  0
SPLINE
  5
D9
330
1F
100
AcDbEntity
  8
0
  6
Continuous
 62
     7
370
    25
100
AcDbSpline
210
0.0
220
0.0
230
1.0
 70
     8
 71
     3
 72
     8
 73
     4
 74
     0
 42
0.00000001
 43
0.00000001
 40
0.0
 40
0.0
 40
0.0
 40
0.0
 40
0.5
 40
0.5
 40
0.5
 40
0.5
 10
514.2774501819958
 20
685.7284020211571
 30
0.0
 10
514.4326662312747
 20
686.1006152820713
 30
0.0
 10
514.6198911306869
 20
686.1647979970678
 30
0.0
 10
514.6746995680733
 20
686.1038360393375
 30
0.0
  0
SPLINE
  5
DA
330
1F
100
AcDbEntity
  8
0
  6
Continuous
 62
     7
370
    25
100
AcDbSpline
210
0.0
220
0.0
230
1.0
 70
     8
 71
     3
 72
     8
 73
     4
 74
     0
 42
0.00000001
 43
0.00000001
 40
0.5
 40
0.5
 40
0.5
 40
0.5
 40
1.0
 40
1.0
 40
1.0
 40
1.0
 10
516.4285930831579
 20
679.5439076507121
 30
0.0
 10
516.4859935677113
 20
679.4770310119902
 30
0.0
 10
516.4195718137205
 20
679.2887418158882
 30
0.0
 10
516.057126367525
 20
679.1796699785715
 30
0.0
  0
SPLINE
  5
DB
330
1F
100
AcDbEntity
  8
0
  6
Continuous
 62
     7
370
    25
100
AcDbSpline
210
0.0
220
0.0
230
1.0
 70
     8
 71
     3
 72
     8
 73
     4
 74
     0
 42
0.00000001
 43
0.00000001
 40
0.0
 40
0.0
 40
0.0
 40
0.0
 40
0.5
 40
0.5
 40
0.5
 40
0.5
 10
516.057126367525
 20
679.1796699785715
 30
0.0
 10
516.1899698755066
 20
679.5562483707756
 30
0.0
 10
516.3711925986045
 20
679.6107842894339
 30
0.0
 10
516.4285930831579
 20
679.5439076507121
 30
0.0
  0
SPLINE
  5
DC
330
1F
100
AcDbEntity
  8
0
  6
Continuous
 62
     7
370
    25
100
AcDbSpline
210
0.0
220
0.0
230
1.0
 70
     8
 71
     3
 72
     8
 73
     4
 74
     0
 42
0.00000001
 43
0.00000001
 40
0.5
 40
0.5
 40
0.5
 40
0.5
 40
1.0
 40
1.0
 40
1.0
 40
1.0
 10
514.1281430157401
 20
687.2988347831096
 30
0.0
 10
514.1646551110244
 20
687.2067279151778
 30
0.0
 10
514.0909136208091
 20
687.0184200462068
 30
0.0
 10
513.7973822592406
 20
687.010231779992
 30
0.0
  0
SPLINE
  5
DD
330
1F
100
AcDbEntity
  8
0
  6
Continuous
 62
     7
370
    25
100
AcDbSpline
210
0.0
220
0.0
230
1.0
 70
     8
 71
     3
 72
     8
 73
     4
 74
     0
 42
0.00000001
 43
0.00000001
 40
0.0
 40
0.0
 40
0.0
 40
0.0
 40
0.5
 40
0.5
 40
0.5
 40
0.5
 10
513.7973822592406
 20
687.010231779992
 30
0.0
 10
513.9448652396713
 20
687.3868475179341
 30
0.0
 10
514.0916309204556
 20
687.3909416510415
 30
0.0
 10
514.1281430157401
 20
687.2988347831096
 30
0.0
  0
SPLINE
  5
DE
330
1F
100
AcDbEntity
  8
0
  6
Continuous
 62
     7
370
    25
100
AcDbSpline
210
0.0
220
0.0
230
1.0
 70
     8
 71
     3
 72
     8
 73
     4
 74
     0
 42
0.00000001
 43
0.00000001
 40
0.0
 40
0.0
 40
0.0
 40
0.0
 40
1.0
 40
1.0
 40
1.0
 40
1.0
 10
508.8642775458642
 20
683.9192458944905
 30
0.0
 10
509.0639342275502
 20
684.4458733229092
 30
0.0
 10
509.8436193324098
 20
684.703001286891
 30
0.0
 10
509.1467864009716
 20
684.052762989984
 30
0.0
  0
SPLINE
  5
DF
330
1F
100
AcDbEntity
  8
0
  6
Continuous
 62
     7
370
    25
100
AcDbSpline
210
0.0
220
0.0
230
1.0
 70
     8
 71
     3
 72
     8
 73
     4
 74
     0
 42
0.00000001
 43
0.00000001
 40
0.0
 40
0.0
 40
0.0
 40
0.0
 40
1.0
 40
1.0
 40
1.0
 40
1.0
 10
509.1467864009716
 20
684.052762989984
 30
0.0
 10
509.1290957760447
 20
684.1726804388809
 30
0.0
 10
508.8313221205377
 20
683.6230299598417
 30
0.0
 10
508.8642775458642
 20
683.9192458944905
 30
0.0
  0
SPLINE
  5
E0
330
1F
100
AcDbEntity
  8
0
  6
Continuous
 62
     7
370
    25
100
AcDbSpline
210
0.0
220
0.0
230
1.0
 70
     8
 71
     3
 72
     8
 73
     4
 74
     0
 42
0.00000001
 43
0.00000001
 40
0.0
 40
0.0
 40
0.0
 40
0.0
 40
1.0
 40
1.0
 40
1.0
 40
1.0
 10
509.2567697698778
 20
685.9247044075636
 30
0.0
 10
509.4370287228269
 20
686.5115563574946
 30
0.0
 10
510.4530350429112
 20
686.9361837648266
 30
0.0
 10
509.5973546012851
 20
686.1613538332771
 30
0.0
  0
SPLINE
  5
E1
330
1F
100
AcDbEntity
  8
0
  6
Continuous
 62
     7
370
    25
100
AcDbSpline
210
0.0
220
0.0
230
1.0
 70
     8
 71
     3
 72
     8
 73
     4
 74
     0
 42
0.00000001
 43
0.00000001
 40
0.0
 40
0.0
 40
0.0
 40
0.0
 40
1.0
 40
1.0
 40
1.0
 40
1.0
 10
509.5973546012851
 20
686.1613538332771
 30
0.0
 10
509.5484709060707
 20
686.1790828839556
 30
0.0
 10
509.2463453636528
 20
685.7589188891627
 30
0.0
 10
509.2567697698778
 20
685.9247044075636
 30
0.0
  0
SPLINE
  5
E2
330
1F
100
AcDbEntity
  8
0
  6
Continuous
 62
     7
370
    25
100
AcDbSpline
210
0.0
220
0.0
230
1.0
 70
     8
 71
     3
 72
     8
 73
     4
 74
     0
 42
0.00000001
 43
0.00000001
 40
0.0
 40
0.0
 40
0.0
 40
0.0
 40
1.0
 40
1.0
 40
1.0
 40
1.0
 10
513.4535964945036
 20
670.309804937701
 30
0.0
 10
514.6821223461342
 20
669.8673180822427
 30
0.0
 10
513.7425299534018
 20
668.4140644512131
 30
0.0
 10
512.6841192246944
 20
668.8140845983087
 30
0.0
  0
SPLINE
  5
E3
330
1F
100
AcDbEntity
  8
0
  6
Continuous
 62
     7
370
    25
100
AcDbSpline
210
0.0
220
0.0
230
1.0
 70
     8
 71
     3
 72
     8
 73
     4
 74
     0
 42
0.00000001
 43
0.00000001
 40
0.0
 40
0.0
 40
0.0
 40
0.0
 40
1.0
 40
1.0
 40
1.0
 40
1.0
 10
513.8437140525352
 20
671.1092995407436
 30
0.0
 10
512.7123596511249
 20
671.8763015327652
 30
0.0
 10
511.9790984249413
 20
670.2516973567888
 30
0.0
 10
513.4535964945036
 20
670.309804937701
 30
0.0
  0
SPLINE
  5
E4
330
1F
100
AcDbEntity
  8
0
  6
Continuous
 62
     7
370
    25
100
AcDbSpline
210
0.0
220
0.0
230
1.0
 70
     8
 71
     3
 72
     8
 73
     4
 74
     0
 42
0.00000001
 43
0.00000001
 40
0.0
 40
0.0
 40
0.0
 40
0.0
 40
1.0
 40
1.0
 40
1.0
 40
1.0
 10
512.5725201552455
 20
670.1941686632368
 30
0.0
 10
511.0649173910903
 20
671.0207772952305
 30
0.0
 10
513.772920744015
 20
672.3318432531564
 30
0.0
 10
513.8437140525352
 20
671.1092995407436
 30
0.0
  0
SPLINE
  5
E5
330
1F
100
AcDbEntity
  8
0
  6
Continuous
 62
     7
370
    25
100
AcDbSpline
210
0.0
220
0.0
230
1.0
 70
     8
 71
     3
 72
     8
 73
     4
 74
     0
 42
0.00000001
 43
0.00000001
 40
0.0
 40
0.0
 40
0.0
 40
0.0
 40
1.0
 40
1.0
 40
1.0
 40
1.0
 10
512.7609782313895
 20
669.1107763074277
 30
0.0
 10
514.0481010806811
 20
668.8264299510628
 30
0.0
 10
513.6615058453286
 20
670.3379532787501
 30
0.0
 10
512.5725201552455
 20
670.1941686632368
 30
0.0
  0
SPLINE
  5
E6
330
1F
100
AcDbEntity
  8
0
  6
Continuous
 62
     7
370
    25
100
AcDbSpline
210
0.0
220
0.0
230
1.0
 70
     8
 71
     3
 72
     8
 73
     4
 74
     0
 42
0.00000001
 43
0.00000001
 40
0.0
 40
0.0
 40
0.0
 40
0.0
 40
1.0
 40
1.0
 40
1.0
 40
1.0
 10
512.6841192246944
 20
668.8140845983087
 30
0.0
 10
511.9081959781911
 20
668.8336143160924
 30
0.0
 10
512.0886690012306
 20
669.635905586272
 30
0.0
 10
512.7609782313895
 20
669.1107763074277
 30
0.0
  0
SPLINE
  5
E7
330
1F
100
AcDbEntity
  8
0
  6
Continuous
 62
     7
370
    25
100
AcDbSpline
210
0.0
220
0.0
230
1.0
 70
     8
 71
     3
 72
     8
 73
     4
 74
     0
 42
0.00000001
 43
0.00000001
 40
0.0
 40
0.0
 40
0.0
 40
0.0
 40
1.0
 40
1.0
 40
1.0
 40
1.0
 10
519.3244697416337
 20
669.8217596924658
 30
0.0
 10
519.230535717839
 20
669.4796066811199
 30
0.0
 10
519.5637324595211
 20
668.7053623443843
 30
0.0
 10
518.9872330664807
 20
668.8513791777526
 30
0.0
  0
SPLINE
  5
E8
330
1F
100
AcDbEntity
  8
0
  6
Continuous
 62
     7
370
    25
100
AcDbSpline
210
0.0
220
0.0
230
1.0
 70
     8
 71
     3
 72
     8
 73
     4
 74
     0
 42
0.00000001
 43
0.00000001
 40
0.0
 40
0.0
 40
0.0
 40
0.0
 40
1.0
 40
1.0
 40
1.0
 40
1.0
 10
520.3037850394217
 20
670.1338791135295
 30
0.0
 10
519.9842194352626
 20
670.0229843267192
 30
0.0
 10
519.1922903852543
 20
670.3832439388073
 30
0.0
 10
519.3244697416337
 20
669.8217596924658
 30
0.0
  0
SPLINE
  5
E9
330
1F
100
AcDbEntity
  8
0
  6
Continuous
 62
     7
370
    25
100
AcDbSpline
210
0.0
220
0.0
230
1.0
 70
     8
 71
     3
 72
     8
 73
     4
 74
     0
 42
0.00000001
 43
0.00000001
 40
0.0
 40
0.0
 40
0.0
 40
0.0
 40
1.0
 40
1.0
 40
1.0
 40
1.0
 10
519.6126443487782
 20
670.4338832816068
 30
0.0
 10
519.9073408746349
 20
670.4507553698107
 30
0.0
 10
520.6523029695887
 20
670.5083310155385
 30
0.0
 10
520.3037850394217
 20
670.1338791135295
 30
0.0
  0
SPLINE
  5
EA
330
1F
100
AcDbEntity
  8
0
  6
Continuous
 62
     7
370
    25
100
AcDbSpline
210
0.0
220
0.0
230
1.0
 70
     8
 71
     3
 72
     8
 73
     4
 74
     0
 42
0.00000001
 43
0.00000001
 40
0.0
 40
0.0
 40
0.0
 40
0.0
 40
1.0
 40
1.0
 40
1.0
 40
1.0
 10
519.5279248884575
 20
671.2251362430193
 30
0.0
 10
519.1981387164547
 20
671.3344758100557
 30
0.0
 10
519.149925993982
 20
670.2079593017354
 30
0.0
 10
519.6126443487782
 20
670.4338832816068
 30
0.0
  0
SPLINE
  5
EB
330
1F
100
AcDbEntity
  8
0
  6
Continuous
 62
     7
370
    25
100
AcDbSpline
210
0.0
220
0.0
230
1.0
 70
     8
 71
     3
 72
     8
 73
     4
 74
     0
 42
0.00000001
 43
0.00000001
 40
0.0
 40
0.0
 40
0.0
 40
0.0
 40
1.0
 40
1.0
 40
1.0
 40
1.0
 10
520.4875091311651
 20
671.5252666021747
 30
0.0
 10
520.625651868629
 20
670.9672193005849
 30
0.0
 10
519.8479039673474
 20
671.3250617282554
 30
0.0
 10
519.5279248884575
 20
671.2251362430193
 30
0.0
  0
LINE
  5
EC
330
1F
100
AcDbEntity
  8
0
  6
Continuous
 62
     7
370
    25
100
AcDbLine
 10
519.0341660295
 20
671.5252666022
 30
0.0
 11
520.4875091312
 21
671.5252666022
 31
0.0
  0
SPLINE
  5
ED
330
1F
100
AcDbEntity
  8
0
  6
Continuous
 62
     7
370
    25
100
AcDbSpline
210
0.0
220
0.0
230
1.0
 70
     8
 71
     3
 72
     8
 73
     4
 74
     0
 42
0.00000001
 43
0.00000001
 40
0.0
 40
0.0
 40
0.0
 40
0.0
 40
1.0
 40
1.0
 40
1.0
 40
1.0
 10
518.9595725505815
 20
670.1883220373213
 30
0.0
 10
519.0088586930179
 20
670.6095483108836
 30
0.0
 10
518.8606667119939
 20
671.228252594221
 30
0.0
 10
519.0341660295242
 20
671.5252666021747
 30
0.0
  0
SPLINE
  5
EE
330
1F
100
AcDbEntity
  8
0
  6
Continuous
 62
     7
370
    25
100
AcDbSpline
210
0.0
220
0.0
230
1.0
 70
     8
 71
     3
 72
     8
 73
     4
 74
     0
 42
0.00000001
 43
0.00000001
 40
0.0
 40
0.0
 40
0.0
 40
0.0
 40
1.0
 40
1.0
 40
1.0
 40
1.0
 10
518.9872330664807
 20
668.8513791777526
 30
0.0
 10
518.9238995833346
 20
669.2379778236747
 30
0.0
 10
518.9771676795573
 20
669.7558546397814
 30
0.0
 10
518.9595725505815
 20
670.1883220373213
 30
0.0
  0
SPLINE
  5
EF
330
1F
100
AcDbEntity
  8
0
  6
Continuous
 62
     7
370
    25
100
AcDbSpline
210
0.0
220
0.0
230
1.0
 70
     8
 71
     3
 72
     8
 73
     4
 74
     0
 42
0.00000001
 43
0.00000001
 40
0.0
 40
0.0
 40
0.0
 40
0.0
 40
1.0
 40
1.0
 40
1.0
 40
1.0
 10
517.4139392060455
 20
667.031667110557
 30
0.0
 10
517.5159588947504
 20
666.4069005396146
 30
0.0
 10
517.107257142536
 20
665.550100635334
 30
0.0
 10
517.7028190053142
 20
665.0870812409207
 30
0.0
  0
SPLINE
  5
F0
330
1F
100
AcDbEntity
  8
0
  6
Continuous
 62
     7
370
    25
100
AcDbSpline
210
0.0
220
0.0
230
1.0
 70
     8
 71
     3
 72
     8
 73
     4
 74
     0
 42
0.00000001
 43
0.00000001
 40
0.0
 40
0.0
 40
0.0
 40
0.0
 40
1.0
 40
1.0
 40
1.0
 40
1.0
 10
518.7231823281636
 20
665.9107533724203
 30
0.0
 10
519.0147598880486
 20
666.8290962107654
 30
0.0
 10
518.1628704083066
 20
668.3062110967572
 30
0.0
 10
517.4139392060455
 20
667.031667110557
 30
0.0
  0
SPLINE
  5
F1
330
1F
100
AcDbEntity
  8
0
  6
Continuous
 62
     7
370
    25
100
AcDbSpline
210
0.0
220
0.0
230
1.0
 70
     8
 71
     3
 72
     8
 73
     4
 74
     0
 42
0.00000001
 43
0.00000001
 40
0.0
 40
0.0
 40
0.0
 40
0.0
 40
1.0
 40
1.0
 40
1.0
 40
1.0
 10
519.477507232687
 20
666.3913568683008
 30
0.0
 10
519.5895360339157
 20
666.0770043198968
 30
0.0
 10
518.6258275029804
 20
665.5054673057398
 30
0.0
 10
518.7231823281636
 20
665.9107533724203
 30
0.0
  0
SPLINE
  5
F2
330
1F
100
AcDbEntity
  8
0
  6
Continuous
 62
     7
370
    25
100
AcDbSpline
210
0.0
220
0.0
230
1.0
 70
     8
 71
     3
 72
     8
 73
     4
 74
     0
 42
0.00000001
 43
0.00000001
 40
0.0
 40
0.0
 40
0.0
 40
0.0
 40
1.0
 40
1.0
 40
1.0
 40
1.0
 10
517.1522885992975
 20
667.9749318910344
 30
0.0
 10
518.2519093551264
 20
668.8266644845711
 30
0.0
 10
519.8185116778506
 20
667.7146966707033
 30
0.0
 10
519.477507232687
 20
666.3913568683008
 30
0.0
  0
SPLINE
  5
F3
330
1F
100
AcDbEntity
  8
0
  6
Continuous
 62
     7
370
    25
100
AcDbSpline
210
0.0
220
0.0
230
1.0
 70
     8
 71
     3
 72
     8
 73
     4
 74
     0
 42
0.00000001
 43
0.00000001
 40
0.0
 40
0.0
 40
0.0
 40
0.0
 40
1.0
 40
1.0
 40
1.0
 40
1.0
 10
516.9463710211653
 20
664.7518688525581
 30
0.0
 10
516.4990735571743
 20
665.6913180013639
 30
0.0
 10
516.3734263512158
 20
667.1751644424176
 30
0.0
 10
517.1522885992975
 20
667.9749318910344
 30
0.0
  0
SPLINE
  5
F4
330
1F
100
AcDbEntity
  8
0
  6
Continuous
 62
     7
370
    25
100
AcDbSpline
210
0.0
220
0.0
230
1.0
 70
     8
 71
     3
 72
     8
 73
     4
 74
     0
 42
0.00000001
 43
0.00000001
 40
0.0
 40
0.0
 40
0.0
 40
0.0
 40
1.0
 40
1.0
 40
1.0
 40
1.0
 10
517.7028190053142
 20
665.0870812409207
 30
0.0
 10
517.6232452988398
 20
665.0112377881906
 30
0.0
 10
517.105148500989
 20
664.4903418221181
 30
0.0
 10
516.9463710211653
 20
664.7518688525581
 30
0.0
  0
SPLINE
  5
F5
330
1F
100
AcDbEntity
  8
0
  6
Continuous
 62
     7
370
    25
100
AcDbSpline
210
0.0
220
0.0
230
1.0
 70
     8
 71
     3
 72
     8
 73
     4
 74
     0
 42
0.00000001
 43
0.00000001
 40
0.0
 40
0.0
 40
0.0
 40
0.0
 40
1.0
 40
1.0
 40
1.0
 40
1.0
 10
509.6590936431062
 20
667.8859056770084
 30
0.0
 10
510.7624038395284
 20
668.9124796472441
 30
0.0
 10
512.5484662030965
 20
667.7136146106297
 30
0.0
 10
512.0702161139805
 20
666.2729844074686
 30
0.0
  0
SPLINE
  5
F6
330
1F
100
AcDbEntity
  8
0
  6
Continuous
 62
     7
370
    25
100
AcDbSpline
210
0.0
220
0.0
230
1.0
 70
     8
 71
     3
 72
     8
 73
     4
 74
     0
 42
0.00000001
 43
0.00000001
 40
0.0
 40
0.0
 40
0.0
 40
0.0
 40
1.0
 40
1.0
 40
1.0
 40
1.0
 10
510.2285067818382
 20
664.3369846470002
 30
0.0
 10
508.8728526275232
 20
664.8171575016158
 30
0.0
 10
509.0097837032658
 20
666.9005536708879
 30
0.0
 10
509.6590936431062
 20
667.8859056770084
 30
0.0
  0
SPLINE
  5
F7
330
1F
100
AcDbEntity
  8
0
  6
Continuous
 62
     7
370
    25
100
AcDbSpline
210
0.0
220
0.0
230
1.0
 70
     8
 71
     3
 72
     8
 73
     4
 74
     0
 42
0.00000001
 43
0.00000001
 40
0.0
 40
0.0
 40
0.0
 40
0.0
 40
1.0
 40
1.0
 40
1.0
 40
1.0
 10
512.0702161139805
 20
666.2729844074686
 30
0.0
 10
512.3133380051456
 20
665.1014994242403
 30
0.0
 10
511.4981991189837
 20
663.9841421144796
 30
0.0
 10
510.2285067818382
 20
664.3369846470002
 30
0.0
  0
LINE
  5
F8
330
1F
100
AcDbEntity
  8
0
  6
Continuous
 62
     7
370
    25
100
AcDbLine
 10
512.8948116004
 20
688.2482819885
 30
0.0
 11
512.8236150488
 21
688.2756818232
 31
0.0
  0
SPLINE
  5
F9
330
1F
100
AcDbEntity
  8
0
  6
Continuous
 62
     7
370
    25
100
AcDbSpline
210
0.0
220
0.0
230
1.0
 70
     8
 71
     3
 72
     8
 73
     4
 74
     0
 42
0.00000001
 43
0.00000001
 40
0.0
 40
0.0
 40
0.0
 40
0.0
 40
1.0
 40
1.0
 40
1.0
 40
1.0
 10
512.8236150488358
 20
688.2756818231992
 30
0.0
 10
512.7475652566401
 20
688.6320266697235
 30
0.0
 10
513.7332677556378
 20
688.7043691726777
 30
0.0
 10
512.8948116003778
 20
688.2482819885091
 30
0.0
  0
SPLINE
  5
FA
330
1F
100
AcDbEntity
  8
0
  6
Continuous
 62
     7
370
    25
100
AcDbSpline
210
0.0
220
0.0
230
1.0
 70
     8
 71
     3
 72
     8
 73
     4
 74
     0
 42
0.00000001
 43
0.00000001
 40
0.0
 40
0.0
 40
0.0
 40
0.0
 40
1.0
 40
1.0
 40
1.0
 40
1.0
 10
521.3197486136992
 20
678.3023060444093
 30
0.0
 10
520.7579676477958
 20
677.6926831986428
 30
0.0
 10
520.092496609844
 20
676.9663241696906
 30
0.0
 10
519.3415566957274
 20
676.6499645010302
 30
0.0
  0
SPLINE
  5
FB
330
1F
100
AcDbEntity
  8
0
  6
Continuous
 62
     7
370
    25
100
AcDbSpline
210
0.0
220
0.0
230
1.0
 70
     8
 71
     3
 72
     8
 73
     4
 74
     0
 42
0.00000001
 43
0.00000001
 40
0.0
 40
0.0
 40
0.0
 40
0.0
 40
1.0
 40
1.0
 40
1.0
 40
1.0
 10
519.3415566957274
 20
676.6499645010302
 30
0.0
 10
519.9157052967736
 20
677.1324556335426
 30
0.0
 10
521.0969111993876
 20
678.3593828374786
 30
0.0
 10
521.3197486136992
 20
678.3023060444093
 30
0.0
  0
SPLINE
  5
FC
330
1F
100
AcDbEntity
  8
0
  6
Continuous
 62
     7
370
    25
100
AcDbSpline
210
0.0
220
0.0
230
1.0
 70
     8
 71
     3
 72
     8
 73
     4
 74
     0
 42
0.00000001
 43
0.00000001
 40
0.0
 40
0.0
 40
0.0
 40
0.0
 40
1.0
 40
1.0
 40
1.0
 40
1.0
 10
521.2345440566845
 20
678.5561907839974
 30
0.0
 10
521.1589205856986
 20
678.5433952360456
 30
0.0
 10
520.2803074735484
 20
677.5989632449383
 30
0.0
 10
520.6852439568369
 20
678.1849985908023
 30
0.0
  0
SPLINE
  5
FD
330
1F
100
AcDbEntity
  8
0
  6
Continuous
 62
     7
370
    25
100
AcDbSpline
210
0.0
220
0.0
230
1.0
 70
     8
 71
     3
 72
     8
 73
     4
 74
     0
 42
0.00000001
 43
0.00000001
 40
0.0
 40
0.0
 40
0.0
 40
0.0
 40
1.0
 40
1.0
 40
1.0
 40
1.0
 10
520.6852439568369
 20
678.1849985908023
 30
0.0
 10
521.0191339536493
 20
678.7720903037816
 30
0.0
 10
522.2878849735635
 20
679.5563191969393
 30
0.0
 10
521.2345440566845
 20
678.5561907839974
 30
0.0
  0
SPLINE
  5
FE
330
1F
100
AcDbEntity
  8
0
  6
Continuous
 62
     7
370
    25
100
AcDbSpline
210
0.0
220
0.0
230
1.0
 70
     8
 71
     3
 72
     8
 73
     4
 74
     0
 42
0.00000001
 43
0.00000001
 40
0.0
 40
0.0
 40
0.0
 40
0.0
 40
1.0
 40
1.0
 40
1.0
 40
1.0
 10
509.9737983896725
 20
686.9225688843524
 30
0.0
 10
509.7852362911532
 20
686.7713605955038
 30
0.0
 10
509.6248736922283
 20
686.5707658934701
 30
0.0
 10
509.4099692629908
 20
686.4564408693619
 30
0.0
  0
SPLINE
  5
FF
330
1F
100
AcDbEntity
  8
0
  6
Continuous
 62
     7
370
    25
100
AcDbSpline
210
0.0
220
0.0
230
1.0
 70
     8
 71
     3
 72
     8
 73
     4
 74
     0
 42
0.00000001
 43
0.00000001
 40
0.0
 40
0.0
 40
0.0
 40
0.0
 40
1.0
 40
1.0
 40
1.0
 40
1.0
 10
509.4099692629908
 20
686.4564408693619
 30
0.0
 10
509.5136865059108
 20
686.9543362945739
 30
0.0
 10
510.821485138084
 20
687.8334912325604
 30
0.0
 10
509.9737983896725
 20
686.9225688843524
 30
0.0
  0
SPLINE
  5
100
330
1F
100
AcDbEntity
  8
0
  6
Continuous
 62
     7
370
    25
100
AcDbSpline
210
0.0
220
0.0
230
1.0
 70
     8
 71
     3
 72
     8
 73
     4
 74
     0
 42
0.00000001
 43
0.00000001
 40
0.0
 40
0.0
 40
0.0
 40
0.0
 40
0.5
 40
0.5
 40
0.5
 40
0.5
 10
515.9312481523137
 20
679.5053088978442
 30
0.0
 10
516.1140382027075
 20
679.9255285986086
 30
0.0
 10
516.2576719005124
 20
679.9452811402779
 30
0.0
 10
516.2837912368163
 20
679.8501024859215
 30
0.0
  0
SPLINE
  5
101
330
1F
100
AcDbEntity
  8
0
  6
Continuous
 62
     7
370
    25
100
AcDbSpline
210
0.0
220
0.0
230
1.0
 70
     8
 71
     3
 72
     8
 73
     4
 74
     0
 42
0.00000001
 43
0.00000001
 40
0.5
 40
0.5
 40
0.5
 40
0.5
 40
1.0
 40
1.0
 40
1.0
 40
1.0
 10
516.2837912368163
 20
679.8501024859215
 30
0.0
 10
516.3099105731204
 20
679.7549238315651
 30
0.0
 10
516.2185155479234
 20
679.544813981183
 30
0.0
 10
515.9312481523137
 20
679.5053088978442
 30
0.0
  0
SPLINE
  5
102
330
1F
100
AcDbEntity
  8
0
  6
Continuous
 62
     7
370
    25
100
AcDbSpline
210
0.0
220
0.0
230
1.0
 70
     8
 71
     3
 72
     8
 73
     4
 74
     0
 42
0.00000001
 43
0.00000001
 40
0.0
 40
0.0
 40
0.0
 40
0.0
 40
0.5
 40
0.5
 40
0.5
 40
0.5
 10
516.8758224778624
 20
677.7695456159075
 30
0.0
 10
516.8494676985649
 20
678.0237274729575
 30
0.0
 10
517.0881039800664
 20
678.1195229856833
 30
0.0
 10
517.2140108156416
 20
678.1038752777836
 30
0.0
  0
SPLINE
  5
103
330
1F
100
AcDbEntity
  8
0
  6
Continuous
 62
     7
370
    25
100
AcDbSpline
210
0.0
220
0.0
230
1.0
 70
     8
 71
     3
 72
     8
 73
     4
 74
     0
 42
0.00000001
 43
0.00000001
 40
0.5
 40
0.5
 40
0.5
 40
0.5
 40
1.0
 40
1.0
 40
1.0
 40
1.0
 10
517.2140108156416
 20
678.1038752777836
 30
0.0
 10
517.3399176512168
 20
678.088227569884
 30
0.0
 10
517.3530950408655
 20
677.961136641359
 30
0.0
 10
516.8758224778624
 20
677.7695456159075
 30
0.0
  0
SPLINE
  5
104
330
1F
100
AcDbEntity
  8
0
  6
Continuous
 62
     7
370
    25
100
AcDbSpline
210
0.0
220
0.0
230
1.0
 70
     8
 71
     3
 72
     8
 73
     4
 74
     0
 42
0.00000001
 43
0.00000001
 40
0.5
 40
0.5
 40
0.5
 40
0.5
 40
1.0
 40
1.0
 40
1.0
 40
1.0
 10
515.2858232918699
 20
683.6808006759445
 30
0.0
 10
515.3704301323378
 20
683.6515228252711
 30
0.0
 10
515.3283351476488
 20
683.4751817073983
 30
0.0
 10
514.9057178163998
 20
683.239610874346
 30
0.0
  0
SPLINE
  5
105
330
1F
100
AcDbEntity
  8
0
  6
Continuous
 62
     7
370
    25
100
AcDbSpline
210
0.0
220
0.0
230
1.0
 70
     8
 71
     3
 72
     8
 73
     4
 74
     0
 42
0.00000001
 43
0.00000001
 40
0.0
 40
0.0
 40
0.0
 40
0.0
 40
0.5
 40
0.5
 40
0.5
 40
0.5
 10
514.9057178163998
 20
683.239610874346
 30
0.0
 10
514.9899077857777
 20
683.5922931100916
 30
0.0
 10
515.2012164514023
 20
683.7100785266178
 30
0.0
 10
515.2858232918699
 20
683.6808006759445
 30
0.0
  0
SPLINE
  5
106
330
1F
100
AcDbEntity
  8
0
  6
Continuous
 62
     7
370
    25
100
AcDbSpline
210
0.0
220
0.0
230
1.0
 70
     8
 71
     3
 72
     8
 73
     4
 74
     0
 42
0.00000001
 43
0.00000001
 40
0.5
 40
0.5
 40
0.5
 40
0.5
 40
1.0
 40
1.0
 40
1.0
 40
1.0
 10
515.9958213206955
 20
680.8530871799163
 30
0.0
 10
516.0192242519355
 20
680.7556108673991
 30
0.0
 10
515.9074448770361
 20
680.5387951833349
 30
0.0
 10
515.5902744022774
 20
680.4950690652753
 30
0.0
  0
SPLINE
  5
107
330
1F
100
AcDbEntity
  8
0
  6
Continuous
 62
     7
370
    25
100
AcDbSpline
210
0.0
220
0.0
230
1.0
 70
     8
 71
     3
 72
     8
 73
     4
 74
     0
 42
0.00000001
 43
0.00000001
 40
0.0
 40
0.0
 40
0.0
 40
0.0
 40
0.5
 40
0.5
 40
0.5
 40
0.5
 10
515.5902744022774
 20
680.4950690652753
 30
0.0
 10
515.8138331520761
 20
680.9287004334038
 30
0.0
 10
515.9724183894555
 20
680.9505634924335
 30
0.0
 10
515.9958213206955
 20
680.8530871799163
 30
0.0
  0
SPLINE
  5
108
330
1F
100
AcDbEntity
  8
0
  6
Continuous
 62
     7
370
    25
100
AcDbSpline
210
0.0
220
0.0
230
1.0
 70
     8
 71
     3
 72
     8
 73
     4
 74
     0
 42
0.00000001
 43
0.00000001
 40
0.5
 40
0.5
 40
0.5
 40
0.5
 40
1.0
 40
1.0
 40
1.0
 40
1.0
 10
515.1182165292604
 20
684.4067738842017
 30
0.0
 10
515.250418864353
 20
684.4284731648333
 30
0.0
 10
515.2595604984789
 20
684.2913383075526
 30
0.0
 10
514.7490344263593
 20
683.9302714704643
 30
0.0
  0
SPLINE
  5
109
330
1F
100
AcDbEntity
  8
0
  6
Continuous
 62
     7
370
    25
100
AcDbSpline
210
0.0
220
0.0
230
1.0
 70
     8
 71
     3
 72
     8
 73
     4
 74
     0
 42
0.00000001
 43
0.00000001
 40
0.0
 40
0.0
 40
0.0
 40
0.0
 40
0.5
 40
0.5
 40
0.5
 40
0.5
 10
514.7490344263593
 20
683.9302714704643
 30
0.0
 10
514.7307511581079
 20
684.204541185026
 30
0.0
 10
514.9860141941675
 20
684.3850746035702
 30
0.0
 10
515.1182165292604
 20
684.4067738842017
 30
0.0
  0
SPLINE
  5
10A
330
1F
100
AcDbEntity
  8
0
  6
Continuous
 62
     7
370
    25
100
AcDbSpline
210
0.0
220
0.0
230
1.0
 70
     8
 71
     3
 72
     8
 73
     4
 74
     0
 42
0.00000001
 43
0.00000001
 40
0.0
 40
0.0
 40
0.0
 40
0.0
 40
0.5
 40
0.5
 40
0.5
 40
0.5
 10
512.5135906270405
 20
688.4329459195704
 30
0.0
 10
512.6010475242715
 20
688.736951879581
 30
0.0
 10
512.7954710562631
 20
688.7900631464414
 30
0.0
 10
512.8708185979511
 20
688.740617289869
 30
0.0
  0
SPLINE
  5
10B
330
1F
100
AcDbEntity
  8
0
  6
Continuous
 62
     7
370
    25
100
AcDbSpline
210
0.0
220
0.0
230
1.0
 70
     8
 71
     3
 72
     8
 73
     4
 74
     0
 42
0.00000001
 43
0.00000001
 40
0.5
 40
0.5
 40
0.5
 40
0.5
 40
1.0
 40
1.0
 40
1.0
 40
1.0
 10
512.8708185979511
 20
688.740617289869
 30
0.0
 10
512.9461661396392
 20
688.6911714332966
 30
0.0
 10
512.9024376910237
 20
688.5391684532913
 30
0.0
 10
512.5135906270405
 20
688.4329459195704
 30
0.0
  0
SPLINE
  5
10C
330
1F
100
AcDbEntity
  8
0
  6
Continuous
 62
     7
370
    25
100
AcDbSpline
210
0.0
220
0.0
230
1.0
 70
     8
 71
     3
 72
     8
 73
     4
 74
     0
 42
0.00000001
 43
0.00000001
 40
0.5
 40
0.5
 40
0.5
 40
0.5
 40
1.0
 40
1.0
 40
1.0
 40
1.0
 10
513.803328374316
 20
687.8805529446091
 30
0.0
 10
513.8784893009997
 20
687.8272737924564
 30
0.0
 10
513.8499574982332
 20
687.668818526203
 30
0.0
 10
513.4922501859647
 20
687.5650246023082
 30
0.0
  0
SPLINE
  5
10D
330
1F
100
AcDbEntity
  8
0
  6
Continuous
 62
     7
370
    25
100
AcDbSpline
210
0.0
220
0.0
230
1.0
 70
     8
 71
     3
 72
     8
 73
     4
 74
     0
 42
0.00000001
 43
0.00000001
 40
0.0
 40
0.0
 40
0.0
 40
0.0
 40
0.5
 40
0.5
 40
0.5
 40
0.5
 10
513.4922501859647
 20
687.5650246023082
 30
0.0
 10
513.5493137914981
 20
687.8819351348145
 30
0.0
 10
513.7281674476322
 20
687.9338320967621
 30
0.0
 10
513.803328374316
 20
687.8805529446091
 30
0.0
  0
SPLINE
  5
10E
330
1F
100
AcDbEntity
  8
0
  6
Continuous
 62
     7
370
    25
100
AcDbSpline
210
0.0
220
0.0
230
1.0
 70
     8
 71
     3
 72
     8
 73
     4
 74
     0
 42
0.00000001
 43
0.00000001
 40
0.5
 40
0.5
 40
0.5
 40
0.5
 40
1.0
 40
1.0
 40
1.0
 40
1.0
 10
514.8783660991637
 20
685.408667195899
 30
0.0
 10
514.9022467091087
 20
685.3115066879235
 30
0.0
 10
514.7891307887948
 20
685.0949677715886
 30
0.0
 10
514.4673765083868
 20
685.0505319708217
 30
0.0
  0
SPLINE
  5
10F
330
1F
100
AcDbEntity
  8
0
  6
Continuous
 62
     7
370
    25
100
AcDbSpline
210
0.0
220
0.0
230
1.0
 70
     8
 71
     3
 72
     8
 73
     4
 74
     0
 42
0.00000001
 43
0.00000001
 40
0.0
 40
0.0
 40
0.0
 40
0.0
 40
0.5
 40
0.5
 40
0.5
 40
0.5
 10
514.4673765083868
 20
685.0505319708217
 30
0.0
 10
514.6936083490147
 20
685.4836098034913
 30
0.0
 10
514.8544854892186
 20
685.5058277038748
 30
0.0
 10
514.8783660991637
 20
685.408667195899
 30
0.0
  0
SPLINE
  5
110
330
1F
100
AcDbEntity
  8
0
  6
Continuous
 62
     7
370
    25
100
AcDbSpline
210
0.0
220
0.0
230
1.0
 70
     8
 71
     3
 72
     8
 73
     4
 74
     0
 42
0.00000001
 43
0.00000001
 40
0.0
 40
0.0
 40
0.0
 40
0.0
 40
1.0
 40
1.0
 40
1.0
 40
1.0
 10
511.6755198661542
 20
688.8532439497518
 30
0.0
 10
510.9878188487181
 20
688.2512004129837
 30
0.0
 10
510.3078187839322
 20
687.640450146567
 30
0.0
 10
509.6217649579655
 20
687.0365511462077
 30
0.0
  0
SPLINE
  5
111
330
1F
100
AcDbEntity
  8
0
  6
Continuous
 62
     7
370
    25
100
AcDbSpline
210
0.0
220
0.0
230
1.0
 70
     8
 71
     3
 72
     8
 73
     4
 74
     0
 42
0.00000001
 43
0.00000001
 40
0.0
 40
0.0
 40
0.0
 40
0.0
 40
1.0
 40
1.0
 40
1.0
 40
1.0
 10
509.6418967549832
 20
687.1023862822136
 30
0.0
 10
509.9544595501053
 20
687.6817719266883
 30
0.0
 10
511.6988481627611
 20
689.1668899418039
 30
0.0
 10
511.6755198661542
 20
688.8532439497518
 30
0.0
  0
LINE
  5
112
330
1F
100
AcDbEntity
  8
0
  6
Continuous
 62
     7
370
    25
100
AcDbLine
 10
509.621764958
 20
687.0365511462
 30
0.0
 11
509.641896755
 21
687.1023862822
 31
0.0
  0
SPLINE
  5
113
330
1F
100
AcDbEntity
  8
0
  6
Continuous
 62
     7
370
    25
100
AcDbSpline
210
0.0
220
0.0
230
1.0
 70
     8
 71
     3
 72
     8
 73
     4
 74
     0
 42
0.00000001
 43
0.00000001
 40
0.0
 40
0.0
 40
0.0
 40
0.0
 40
1.0
 40
1.0
 40
1.0
 40
1.0
 10
508.7464746501683
 20
681.9950108941309
 30
0.0
 10
508.6843297505553
 20
681.9812032027841
 30
0.0
 10
508.471842619421
 20
681.6588325187495
 30
0.0
 10
508.5368626292737
 20
681.9116317876943
 30
0.0
  0
SPLINE
  5
114
330
1F
100
AcDbEntity
  8
0
  6
Continuous
 62
     7
370
    25
100
AcDbSpline
210
0.0
220
0.0
230
1.0
 70
     8
 71
     3
 72
     8
 73
     4
 74
     0
 42
0.00000001
 43
0.00000001
 40
0.0
 40
0.0
 40
0.0
 40
0.0
 40
1.0
 40
1.0
 40
1.0
 40
1.0
 10
508.5368626292737
 20
681.9116317876943
 30
0.0
 10
508.7966118434255
 20
682.5435384999462
 30
0.0
 10
509.5741644327501
 20
682.7068707955766
 30
0.0
 10
508.7464746501683
 20
681.9950108941309
 30
0.0
  0
SPLINE
  5
115
330
1F
100
AcDbEntity
  8
0
  6
Continuous
 62
     7
370
    25
100
AcDbSpline
210
0.0
220
0.0
230
1.0
 70
     8
 71
     3
 72
     8
 73
     4
 74
     0
 42
0.00000001
 43
0.00000001
 40
0.0
 40
0.0
 40
0.0
 40
0.0
 40
1.0
 40
1.0
 40
1.0
 40
1.0
 10
509.1753976700119
 20
684.5077171829051
 30
0.0
 10
509.1580080847018
 20
684.5830719010002
 30
0.0
 10
508.945508902888
 20
684.2030738442643
 30
0.0
 10
508.9488504653743
 20
684.3808294390687
 30
0.0
  0
SPLINE
  5
116
330
1F
100
AcDbEntity
  8
0
  6
Continuous
 62
     7
370
    25
100
AcDbSpline
210
0.0
220
0.0
230
1.0
 70
     8
 71
     3
 72
     8
 73
     4
 74
     0
 42
0.00000001
 43
0.00000001
 40
0.0
 40
0.0
 40
0.0
 40
0.0
 40
1.0
 40
1.0
 40
1.0
 40
1.0
 10
508.9488504653743
 20
684.3808294390687
 30
0.0
 10
509.1529723785703
 20
685.018400425444
 30
0.0
 10
509.993212148087
 20
685.1858241541476
 30
0.0
 10
509.1753976700119
 20
684.5077171829051
 30
0.0
  0
SPLINE
  5
117
330
1F
100
AcDbEntity
  8
0
  6
Continuous
 62
     7
370
    25
100
AcDbSpline
210
0.0
220
0.0
230
1.0
 70
     8
 71
     3
 72
     8
 73
     4
 74
     0
 42
0.00000001
 43
0.00000001
 40
0.0
 40
0.0
 40
0.0
 40
0.0
 40
0.5
 40
0.5
 40
0.5
 40
0.5
 10
513.9269550309
 20
686.7133200891286
 30
0.0
 10
514.0505008711931
 20
687.0806030305145
 30
0.0
 10
514.2479800746677
 20
687.1247657867572
 30
0.0
 10
514.3158332163315
 20
687.0550264295321
 30
0.0
  0
SPLINE
  5
118
330
1F
100
AcDbEntity
  8
0
  6
Continuous
 62
     7
370
    25
100
AcDbSpline
210
0.0
220
0.0
230
1.0
 70
     8
 71
     3
 72
     8
 73
     4
 74
     0
 42
0.00000001
 43
0.00000001
 40
0.5
 40
0.5
 40
0.5
 40
0.5
 40
1.0
 40
1.0
 40
1.0
 40
1.0
 10
514.3158332163315
 20
687.0550264295321
 30
0.0
 10
514.3836863579953
 20
686.985287072307
 30
0.0
 10
514.3219134378488
 20
686.8016456016142
 30
0.0
 10
513.9269550309
 20
686.7133200891286
 30
0.0
  0
LINE
  5
119
330
1F
100
AcDbEntity
  8
0
  6
Continuous
 62
     7
370
    25
100
AcDbLine
 10
517.9178709985
 20
676.9021754467
 30
0.0
 11
517.8477258119
 21
676.9336295393
 31
0.0
  0
SPLINE
  5
11A
330
1F
100
AcDbEntity
  8
0
  6
Continuous
 62
     7
370
    25
100
AcDbSpline
210
0.0
220
0.0
230
1.0
 70
     8
 71
     3
 72
     8
 73
     4
 74
     0
 42
0.00000001
 43
0.00000001
 40
0.0
 40
0.0
 40
0.0
 40
0.0
 40
1.0
 40
1.0
 40
1.0
 40
1.0
 10
517.8477258119373
 20
676.933629539259
 30
0.0
 10
517.8564678978253
 20
677.3957536591314
 30
0.0
 10
518.6802243840816
 20
677.3319861241507
 30
0.0
 10
517.917870998533
 20
676.9021754467054
 30
0.0
  0
SPLINE
  5
11B
330
1F
100
AcDbEntity
  8
0
  6
Continuous
 62
     7
370
    25
100
AcDbSpline
210
0.0
220
0.0
230
1.0
 70
     8
 71
     3
 72
     8
 73
     4
 74
     0
 42
0.00000001
 43
0.00000001
 40
0.5
 40
0.5
 40
0.5
 40
0.5
 40
1.0
 40
1.0
 40
1.0
 40
1.0
 10
517.0423119520557
 20
678.3526014596781
 30
0.0
 10
517.0949750274281
 20
678.2740539367777
 30
0.0
 10
517.022182528226
 20
678.0944725787597
 30
0.0
 10
516.6659452283324
 20
678.049499954325
 30
0.0
  0
SPLINE
  5
11C
330
1F
100
AcDbEntity
  8
0
  6
Continuous
 62
     7
370
    25
100
AcDbSpline
210
0.0
220
0.0
230
1.0
 70
     8
 71
     3
 72
     8
 73
     4
 74
     0
 42
0.00000001
 43
0.00000001
 40
0.0
 40
0.0
 40
0.0
 40
0.0
 40
0.5
 40
0.5
 40
0.5
 40
0.5
 10
516.6659452283324
 20
678.049499954325
 30
0.0
 10
516.8115302267364
 20
678.4086626703613
 30
0.0
 10
516.9896488766833
 20
678.4311489825786
 30
0.0
 10
517.0423119520557
 20
678.3526014596781
 30
0.0
  0
SPLINE
  5
11D
330
1F
100
AcDbEntity
  8
0
  6
Continuous
 62
     7
370
    25
100
AcDbSpline
210
0.0
220
0.0
230
1.0
 70
     8
 71
     3
 72
     8
 73
     4
 74
     0
 42
0.00000001
 43
0.00000001
 40
0.0
 40
0.0
 40
0.0
 40
0.0
 40
1.0
 40
1.0
 40
1.0
 40
1.0
 10
518.8676882791641
 20
676.648924277278
 30
0.0
 10
519.2240751893811
 20
677.1619358020514
 30
0.0
 10
520.1120213254588
 20
677.4002061578478
 30
0.0
 10
519.2169872297877
 20
676.773555133472
 30
0.0
  0
SPLINE
  5
11E
330
1F
100
AcDbEntity
  8
0
  6
Continuous
 62
     7
370
    25
100
AcDbSpline
210
0.0
220
0.0
230
1.0
 70
     8
 71
     3
 72
     8
 73
     4
 74
     0
 42
0.00000001
 43
0.00000001
 40
0.0
 40
0.0
 40
0.0
 40
0.0
 40
1.0
 40
1.0
 40
1.0
 40
1.0
 10
519.2169872297877
 20
676.773555133472
 30
0.0
 10
519.1253263506843
 20
676.7009098856157
 30
0.0
 10
518.9972167134174
 20
676.5762321909317
 30
0.0
 10
518.8676882791641
 20
676.648924277278
 30
0.0
  0
SPLINE
  5
11F
330
1F
100
AcDbEntity
  8
0
  6
Continuous
 62
     7
370
    25
100
AcDbSpline
210
0.0
220
0.0
230
1.0
 70
     8
 71
     3
 72
     8
 73
     4
 74
     0
 42
0.00000001
 43
0.00000001
 40
0.0
 40
0.0
 40
0.0
 40
0.0
 40
1.0
 40
1.0
 40
1.0
 40
1.0
 10
522.0205923750805
 20
681.4773064254788
 30
0.0
 10
522.2338538192178
 20
682.0377786421107
 30
0.0
 10
523.1961102432691
 20
682.4564460789281
 30
0.0
 10
522.377226665285
 20
681.6994114767946
 30
0.0
  0
SPLINE
  5
120
330
1F
100
AcDbEntity
  8
0
  6
Continuous
 62
     7
370
    25
100
AcDbSpline
210
0.0
220
0.0
230
1.0
 70
     8
 71
     3
 72
     8
 73
     4
 74
     0
 42
0.00000001
 43
0.00000001
 40
0.0
 40
0.0
 40
0.0
 40
0.0
 40
1.0
 40
1.0
 40
1.0
 40
1.0
 10
522.377226665285
 20
681.6994114767946
 30
0.0
 10
522.334819528206
 20
681.7133887871402
 30
0.0
 10
521.9525881167583
 20
681.2297568190701
 30
0.0
 10
522.0205923750805
 20
681.4773064254788
 30
0.0
  0
SPLINE
  5
121
330
1F
100
AcDbEntity
  8
0
  6
Continuous
 62
     7
370
    25
100
AcDbSpline
210
0.0
220
0.0
230
1.0
 70
     8
 71
     3
 72
     8
 73
     4
 74
     0
 42
0.00000001
 43
0.00000001
 40
0.0
 40
0.0
 40
0.0
 40
0.0
 40
1.0
 40
1.0
 40
1.0
 40
1.0
 10
521.6076607206641
 20
680.2034761578268
 30
0.0
 10
521.7704370934367
 20
680.8045299472737
 30
0.0
 10
522.8726285093185
 20
681.3453027134377
 30
0.0
 10
522.0154458254343
 20
680.5273314628429
 30
0.0
  0
SPLINE
  5
122
330
1F
100
AcDbEntity
  8
0
  6
Continuous
 62
     7
370
    25
100
AcDbSpline
210
0.0
220
0.0
230
1.0
 70
     8
 71
     3
 72
     8
 73
     4
 74
     0
 42
0.00000001
 43
0.00000001
 40
0.0
 40
0.0
 40
0.0
 40
0.0
 40
1.0
 40
1.0
 40
1.0
 40
1.0
 10
522.0154458254343
 20
680.5273314628429
 30
0.0
 10
521.8537923258857
 20
680.4607442962225
 30
0.0
 10
521.7853643611238
 20
680.2432545414825
 30
0.0
 10
521.6076607206641
 20
680.2034761578268
 30
0.0
  0
SPLINE
  5
123
330
1F
100
AcDbEntity
  8
0
  6
Continuous
 62
     7
370
    25
100
AcDbSpline
210
0.0
220
0.0
230
1.0
 70
     8
 71
     3
 72
     8
 73
     4
 74
     0
 42
0.00000001
 43
0.00000001
 40
0.0
 40
0.0
 40
0.0
 40
0.0
 40
1.0
 40
1.0
 40
1.0
 40
1.0
 10
523.2940346335887
 20
684.6401264116811
 30
0.0
 10
523.2259178264671
 20
684.626274155557
 30
0.0
 10
522.8494665348264
 20
684.1741359563343
 30
0.0
 10
522.9251760658539
 20
684.3825091446358
 30
0.0
  0
SPLINE
  5
124
330
1F
100
AcDbEntity
  8
0
  6
Continuous
 62
     7
370
    25
100
AcDbSpline
210
0.0
220
0.0
230
1.0
 70
     8
 71
     3
 72
     8
 73
     4
 74
     0
 42
0.00000001
 43
0.00000001
 40
0.0
 40
0.0
 40
0.0
 40
0.0
 40
1.0
 40
1.0
 40
1.0
 40
1.0
 10
508.3905762472149
 20
680.4005732069687
 30
0.0
 10
508.4107268023661
 20
680.423612514638
 30
0.0
 10
508.1581866230312
 20
680.1749416266044
 30
0.0
 10
508.2460481275118
 20
680.3643008889433
 30
0.0
  0
SPLINE
  5
125
330
1F
100
AcDbEntity
  8
0
  6
Continuous
 62
     7
370
    25
100
AcDbSpline
210
0.0
220
0.0
230
1.0
 70
     8
 71
     3
 72
     8
 73
     4
 74
     0
 42
0.00000001
 43
0.00000001
 40
0.0
 40
0.0
 40
0.0
 40
0.0
 40
1.0
 40
1.0
 40
1.0
 40
1.0
 10
508.2460481275118
 20
680.3643008889433
 30
0.0
 10
508.5459961348751
 20
681.0835770741567
 30
0.0
 10
509.2603294951378
 20
681.0278559825348
 30
0.0
 10
508.3905762472149
 20
680.4005732069687
 30
0.0
  0
SPLINE
  5
126
330
1F
100
AcDbEntity
  8
0
  6
Continuous
 62
     7
370
    25
100
AcDbSpline
210
0.0
220
0.0
230
1.0
 70
     8
 71
     3
 72
     8
 73
     4
 74
     0
 42
0.00000001
 43
0.00000001
 40
0.0
 40
0.0
 40
0.0
 40
0.0
 40
1.0
 40
1.0
 40
1.0
 40
1.0
 10
523.1341137034372
 20
684.9726687787274
 30
0.0
 10
523.3151844856557
 20
685.592445004115
 30
0.0
 10
524.5410995461965
 20
686.2136978924881
 30
0.0
 10
523.5734015582218
 20
685.3214666029795
 30
0.0
  0
SPLINE
  5
127
330
1F
100
AcDbEntity
  8
0
  6
Continuous
 62
     7
370
    25
100
AcDbSpline
210
0.0
220
0.0
230
1.0
 70
     8
 71
     3
 72
     8
 73
     4
 74
     0
 42
0.00000001
 43
0.00000001
 40
0.0
 40
0.0
 40
0.0
 40
0.0
 40
1.0
 40
1.0
 40
1.0
 40
1.0
 10
517.5680587571725
 20
670.1883220373213
 30
0.0
 10
517.6173450132945
 20
670.6095483108836
 30
0.0
 10
517.4691530322705
 20
671.228252594221
 30
0.0
 10
517.642652236115
 20
671.5252666021747
 30
0.0
  0
LINE
  5
128
330
1F
100
AcDbEntity
  8
0
  6
Continuous
 62
     7
370
    25
100
AcDbLine
 10
517.5680587572
 20
669.821088606
 30
0.0
 11
517.5680587572
 21
670.1883220373
 31
0.0
  0
SPLINE
  5
129
330
1F
100
AcDbEntity
  8
0
  6
Continuous
 62
     7
370
    25
100
AcDbSpline
210
0.0
220
0.0
230
1.0
 70
     8
 71
     3
 72
     8
 73
     4
 74
     0
 42
0.00000001
 43
0.00000001
 40
0.0
 40
0.0
 40
0.0
 40
0.0
 40
1.0
 40
1.0
 40
1.0
 40
1.0
 10
517.9227583448834
 20
668.8513774724677
 30
0.0
 10
517.3138799127923
 20
668.6839686365852
 30
0.0
 10
517.6547589626773
 20
669.4663183058495
 30
0.0
 10
517.5680587571725
 20
669.8210886060385
 30
0.0
  0
LINE
  5
12A
330
1F
100
AcDbEntity
  8
0
  6
Continuous
 62
     7
370
    25
100
AcDbLine
 10
517.9227583449
 20
670.4809628991
 30
0.0
 11
517.9227583449
 21
668.8513774725
 31
0.0
  0
SPLINE
  5
12B
330
1F
100
AcDbEntity
  8
0
  6
Continuous
 62
     7
370
    25
100
AcDbSpline
210
0.0
220
0.0
230
1.0
 70
     8
 71
     3
 72
     8
 73
     4
 74
     0
 42
0.00000001
 43
0.00000001
 40
0.0
 40
0.0
 40
0.0
 40
0.0
 40
1.0
 40
1.0
 40
1.0
 40
1.0
 10
517.642652236115
 20
671.5252666021747
 30
0.0
 10
518.1864024296091
 20
671.6275462899748
 30
0.0
 10
517.8134767575316
 20
670.8131509080031
 30
0.0
 10
517.9227583448834
 20
670.4809628991464
 30
0.0
  0
SPLINE
  5
12C
330
1F
100
AcDbEntity
  8
0
  6
Continuous
 62
     7
370
    25
100
AcDbSpline
210
0.0
220
0.0
230
1.0
 70
     8
 71
     3
 72
     8
 73
     4
 74
     0
 42
0.00000001
 43
0.00000001
 40
0.5
 40
0.5
 40
0.5
 40
0.5
 40
1.0
 40
1.0
 40
1.0
 40
1.0
 10
519.0312247116005
 20
677.0848989767799
 30
0.0
 10
519.0620664221575
 20
676.999966654279
 30
0.0
 10
518.9068604340592
 20
676.7887006207756
 30
0.0
 10
518.4730816156348
 20
676.7058978437718
 30
0.0
  0
SPLINE
  5
12D
330
1F
100
AcDbEntity
  8
0
  6
Continuous
 62
     7
370
    25
100
AcDbSpline
210
0.0
220
0.0
230
1.0
 70
     8
 71
     3
 72
     8
 73
     4
 74
     0
 42
0.00000001
 43
0.00000001
 40
0.0
 40
0.0
 40
0.0
 40
0.0
 40
0.5
 40
0.5
 40
0.5
 40
0.5
 10
518.4730816156348
 20
676.7058978437718
 30
0.0
 10
518.7834935918313
 20
677.1284299107787
 30
0.0
 10
519.0003830010436
 20
677.1698312992805
 30
0.0
 10
519.0312247116005
 20
677.0848989767799
 30
0.0
  0
SPLINE
  5
12E
330
1F
100
AcDbEntity
  8
0
  6
Continuous
 62
     7
370
    25
100
AcDbSpline
210
0.0
220
0.0
230
1.0
 70
     8
 71
     3
 72
     8
 73
     4
 74
     0
 42
0.00000001
 43
0.00000001
 40
0.0
 40
0.0
 40
0.0
 40
0.0
 40
1.0
 40
1.0
 40
1.0
 40
1.0
 10
508.2866262897572
 20
679.4568242392824
 30
0.0
 10
508.1520075802574
 20
679.3962533175765
 30
0.0
 10
508.0862192827416
 20
679.2186758681949
 30
0.0
 10
507.9366017972771
 20
679.180633464506
 30
0.0
  0
SPLINE
  5
12F
330
1F
100
AcDbEntity
  8
0
  6
Continuous
 62
     7
370
    25
100
AcDbSpline
210
0.0
220
0.0
230
1.0
 70
     8
 71
     3
 72
     8
 73
     4
 74
     0
 42
0.00000001
 43
0.00000001
 40
0.0
 40
0.0
 40
0.0
 40
0.0
 40
1.0
 40
1.0
 40
1.0
 40
1.0
 10
507.9366017972771
 20
679.180633464506
 30
0.0
 10
508.0613954513303
 20
679.7588449635255
 30
0.0
 10
509.1077166200095
 20
680.2076165894175
 30
0.0
 10
508.2866262897572
 20
679.4568242392824
 30
0.0
  0
SPLINE
  5
130
330
1F
100
AcDbEntity
  8
0
  6
Continuous
 62
     7
370
    25
100
AcDbSpline
210
0.0
220
0.0
230
1.0
 70
     8
 71
     3
 72
     8
 73
     4
 74
     0
 42
0.00000001
 43
0.00000001
 40
0.0
 40
0.0
 40
0.0
 40
0.0
 40
1.0
 40
1.0
 40
1.0
 40
1.0
 10
507.9355060949248
 20
678.2909395251531
 30
0.0
 10
507.8855983193214
 20
678.3212278849904
 30
0.0
 10
507.2714257736026
 20
677.5753117400116
 30
0.0
 10
507.4958670651488
 20
678.018987179003
 30
0.0
  0
SPLINE
  5
131
330
1F
100
AcDbEntity
  8
0
  6
Continuous
 62
     7
370
    25
100
AcDbSpline
210
0.0
220
0.0
230
1.0
 70
     8
 71
     3
 72
     8
 73
     4
 74
     0
 42
0.00000001
 43
0.00000001
 40
0.0
 40
0.0
 40
0.0
 40
0.0
 40
1.0
 40
1.0
 40
1.0
 40
1.0
 10
507.4958670651488
 20
678.018987179003
 30
0.0
 10
507.765773865291
 20
678.5713943078284
 30
0.0
 10
508.8054886468156
 20
679.1210140917406
 30
0.0
 10
507.9355060949248
 20
678.2909395251531
 30
0.0
  0
SPLINE
  5
132
330
1F
100
AcDbEntity
  8
0
  6
Continuous
 62
     7
370
    25
100
AcDbSpline
210
0.0
220
0.0
230
1.0
 70
     8
 71
     3
 72
     8
 73
     4
 74
     0
 42
0.00000001
 43
0.00000001
 40
0.5
 40
0.5
 40
0.5
 40
0.5
 40
1.0
 40
1.0
 40
1.0
 40
1.0
 10
509.0068524465228
 20
681.9649948824934
 30
0.0
 10
509.158654586606
 20
682.0013036225607
 30
0.0
 10
509.1215993438894
 20
681.8356471942222
 30
0.0
 10
508.440280298123
 20
681.359099377276
 30
0.0
  0
SPLINE
  5
133
330
1F
100
AcDbEntity
  8
0
  6
Continuous
 62
     7
370
    25
100
AcDbSpline
210
0.0
220
0.0
230
1.0
 70
     8
 71
     3
 72
     8
 73
     4
 74
     0
 42
0.00000001
 43
0.00000001
 40
0.0
 40
0.0
 40
0.0
 40
0.0
 40
0.5
 40
0.5
 40
0.5
 40
0.5
 10
508.440280298123
 20
681.359099377276
 30
0.0
 10
508.5143907835562
 20
681.6904122339529
 30
0.0
 10
508.8550503064394
 20
681.928686142426
 30
0.0
 10
509.0068524465228
 20
681.9649948824934
 30
0.0
  0
LINE
  5
134
330
1F
100
AcDbEntity
  8
0
  6
Continuous
 62
     7
370
    25
100
AcDbLine
 10
504.8807274993
 20
663.2307532976
 30
0.0
 11
514.8805283719
 21
663.2307942245
 31
0.0
  0
LINE
  5
135
330
1F
100
AcDbEntity
  8
0
  6
Continuous
 62
     7
370
    25
100
AcDbLine
 10
504.8807274993
 20
674.3975607345
 30
0.0
 11
504.8807274993
 21
663.2307532976
 31
0.0
  0
SPLINE
  5
136
330
1F
100
AcDbEntity
  8
0
  6
Continuous
 62
     7
370
    25
100
AcDbSpline
210
0.0
220
0.0
230
1.0
 70
     8
 71
     3
 72
     8
 73
     4
 74
     0
 42
0.00000001
 43
0.00000001
 40
0.0
 40
0.0
 40
0.0
 40
0.0
 40
1.0
 40
1.0
 40
1.0
 40
1.0
 10
505.6550307251587
 20
675.8433776183394
 30
0.0
 10
504.9550026583593
 20
675.5276728927431
 30
0.0
 10
504.7561481426616
 20
675.1479413151848
 30
0.0
 10
504.8807274992534
 20
674.3975607344955
 30
0.0
  0
SPLINE
  5
137
330
1F
100
AcDbEntity
  8
0
  6
Continuous
 62
     7
370
    25
100
AcDbSpline
210
0.0
220
0.0
230
1.0
 70
     8
 71
     3
 72
     8
 73
     4
 74
     0
 42
0.00000001
 43
0.00000001
 40
0.0
 40
0.0
 40
0.0
 40
0.0
 40
1.0
 40
1.0
 40
1.0
 40
1.0
 10
504.8962438860095
 20
675.3996766000753
 30
0.0
 10
505.264262885175
 20
675.8244515713891
 30
0.0
 10
506.8711159554555
 20
676.830550072869
 30
0.0
 10
505.6550307251587
 20
675.8433776183394
 30
0.0
  0
SPLINE
  5
138
330
1F
100
AcDbEntity
  8
0
  6
Continuous
 62
     7
370
    25
100
AcDbSpline
210
0.0
220
0.0
230
1.0
 70
     8
 71
     3
 72
     8
 73
     4
 74
     0
 42
0.00000001
 43
0.00000001
 40
0.0
 40
0.0
 40
0.0
 40
0.0
 40
1.0
 40
1.0
 40
1.0
 40
1.0
 10
504.9018602984718
 20
676.0089132556684
 30
0.0
 10
505.3448830681124
 20
675.7993591007727
 30
0.0
 10
504.9836675870291
 20
675.9011109460721
 30
0.0
 10
504.8962438860095
 20
675.3996766000753
 30
0.0
  0
SPLINE
  5
139
330
1F
100
AcDbEntity
  8
0
  6
Continuous
 62
     7
370
    25
100
AcDbSpline
210
0.0
220
0.0
230
1.0
 70
     8
 71
     3
 72
     8
 73
     4
 74
     0
 42
0.00000001
 43
0.00000001
 40
0.0
 40
0.0
 40
0.0
 40
0.0
 40
1.0
 40
1.0
 40
1.0
 40
1.0
 10
504.8807273855676
 20
690.9518888897459
 30
0.0
 10
504.8891045404997
 20
685.9709208099174
 30
0.0
 10
504.8601366395569
 20
680.9896200858595
 30
0.0
 10
504.9018602984718
 20
676.0089132556684
 30
0.0
  0
LINE
  5
13A
330
1F
100
AcDbEntity
  8
0
  6
Continuous
 62
     7
370
    25
100
AcDbLine
 10
526.2916366202
 20
690.9518888897
 30
0.0
 11
504.8807273856
 21
690.9518888897
 31
0.0
  0
SPLINE
  5
13B
330
1F
100
AcDbEntity
  8
0
  6
Continuous
 62
     7
370
    25
100
AcDbSpline
210
0.0
220
0.0
230
1.0
 70
     8
 71
     3
 72
     8
 73
     4
 74
     0
 42
0.00000001
 43
0.00000001
 40
0.0
 40
0.0
 40
0.0
 40
0.0
 40
1.0
 40
1.0
 40
1.0
 40
1.0
 10
527.3359404368987
 20
690.6006985508637
 30
0.0
 10
527.49357458008
 20
691.2234977915294
 30
0.0
 10
526.6575544810564
 20
690.8526422215616
 30
0.0
 10
526.2916366201847
 20
690.9518888897459
 30
0.0
  0
SPLINE
  5
13C
330
1F
100
AcDbEntity
  8
0
  6
Continuous
 62
     7
370
    25
100
AcDbSpline
210
0.0
220
0.0
230
1.0
 70
     8
 71
     3
 72
     8
 73
     4
 74
     0
 42
0.00000001
 43
0.00000001
 40
0.0
 40
0.0
 40
0.0
 40
0.0
 40
1.0
 40
1.0
 40
1.0
 40
1.0
 10
526.6040076276051
 20
689.0702797576674
 30
0.0
 10
527.2611269762116
 20
689.4107165703506
 30
0.0
 10
527.4487707220019
 20
689.9024107840858
 30
0.0
 10
527.3359404368987
 20
690.6006985508637
 30
0.0
  0
SPLINE
  5
13D
330
1F
100
AcDbEntity
  8
0
  6
Continuous
 62
     7
370
    25
100
AcDbSpline
210
0.0
220
0.0
230
1.0
 70
     8
 71
     3
 72
     8
 73
     4
 74
     0
 42
0.00000001
 43
0.00000001
 40
0.0
 40
0.0
 40
0.0
 40
0.0
 40
1.0
 40
1.0
 40
1.0
 40
1.0
 10
527.3222981581811
 20
689.1349223311422
 30
0.0
 10
527.3915531860904
 20
689.6971368941377
 30
0.0
 10
526.6664390150712
 20
688.844842920832
 30
0.0
 10
526.6040076276051
 20
689.0702797576674
 30
0.0
  0
LINE
  5
13E
330
1F
100
AcDbEntity
  8
0
  6
Continuous
 62
     7
370
    25
100
AcDbLine
 10
527.3360257011
 20
671.1485475808
 30
0.0
 11
527.3222981582
 21
689.1349223311
 31
0.0
  0
SPLINE
  5
13F
330
1F
100
AcDbEntity
  8
0
  6
Continuous
 62
     7
370
    25
100
AcDbSpline
210
0.0
220
0.0
230
1.0
 70
     8
 71
     3
 72
     8
 73
     4
 74
     0
 42
0.00000001
 43
0.00000001
 40
0.0
 40
0.0
 40
0.0
 40
0.0
 40
1.0
 40
1.0
 40
1.0
 40
1.0
 10
523.410140770869
 20
668.6577523832594
 30
0.0
 10
524.7227654728241
 20
669.4817170279518
 30
0.0
 10
526.0197884100954
 20
670.3303962521402
 30
0.0
 10
527.3360257011406
 20
671.1485475808141
 30
0.0
  0
SPLINE
  5
140
330
1F
100
AcDbEntity
  8
0
  6
Continuous
 62
     7
370
    25
100
AcDbSpline
210
0.0
220
0.0
230
1.0
 70
     8
 71
     3
 72
     8
 73
     4
 74
     0
 42
0.00000001
 43
0.00000001
 40
0.0
 40
0.0
 40
0.0
 40
0.0
 40
1.0
 40
1.0
 40
1.0
 40
1.0
 10
522.8577184081656
 20
666.4020617370392
 30
0.0
 10
523.5131375877869
 20
667.3794705263764
 30
0.0
 10
521.8475246083003
 20
668.2909316309081
 30
0.0
 10
523.410140770869
 20
668.6577523832594
 30
0.0
  0
SPLINE
  5
141
330
1F
100
AcDbEntity
  8
0
  6
Continuous
 62
     7
370
    25
100
AcDbSpline
210
0.0
220
0.0
230
1.0
 70
     8
 71
     3
 72
     8
 73
     4
 74
     0
 42
0.00000001
 43
0.00000001
 40
0.0
 40
0.0
 40
0.0
 40
0.0
 40
1.0
 40
1.0
 40
1.0
 40
1.0
 10
522.8259488379167
 20
664.9496053835147
 30
0.0
 10
522.3647908187488
 20
665.5824132819616
 30
0.0
 10
522.054519016966
 20
665.9914271013017
 30
0.0
 10
522.8577184081656
 20
666.4020617370392
 30
0.0
  0
SPLINE
  5
142
330
1F
100
AcDbEntity
  8
0
  6
Continuous
 62
     7
370
    25
100
AcDbSpline
210
0.0
220
0.0
230
1.0
 70
     8
 71
     3
 72
     8
 73
     4
 74
     0
 42
0.00000001
 43
0.00000001
 40
0.0
 40
0.0
 40
0.0
 40
0.0
 40
1.0
 40
1.0
 40
1.0
 40
1.0
 10
522.2746536684923
 20
664.3227419943335
 30
0.0
 10
522.8584653229253
 20
664.3029940000904
 30
0.0
 10
523.5863037433188
 20
664.1982629084904
 30
0.0
 10
522.8259488379167
 20
664.9496053835147
 30
0.0
  0
SPLINE
  5
143
330
1F
100
AcDbEntity
  8
0
  6
Continuous
 62
     7
370
    25
100
AcDbSpline
210
0.0
220
0.0
230
1.0
 70
     8
 71
     3
 72
     8
 73
     4
 74
     0
 42
0.00000001
 43
0.00000001
 40
0.0
 40
0.0
 40
0.0
 40
0.0
 40
1.0
 40
1.0
 40
1.0
 40
1.0
 10
521.3301576723607
 20
665.8773578699196
 30
0.0
 10
521.7408733659709
 20
665.5205190592201
 30
0.0
 10
521.9465574337656
 20
664.8161360359969
 30
0.0
 10
522.2746536684923
 20
664.3227419943335
 30
0.0
  0
SPLINE
  5
144
330
1F
100
AcDbEntity
  8
0
  6
Continuous
 62
     7
370
    25
100
AcDbSpline
210
0.0
220
0.0
230
1.0
 70
     8
 71
     3
 72
     8
 73
     4
 74
     0
 42
0.00000001
 43
0.00000001
 40
0.0
 40
0.0
 40
0.0
 40
0.0
 40
1.0
 40
1.0
 40
1.0
 40
1.0
 10
520.9513513823564
 20
664.9934747455009
 30
0.0
 10
521.009591975486
 20
665.3561302827886
 30
0.0
 10
520.7329442980582
 20
666.0536751138046
 30
0.0
 10
521.3301576723607
 20
665.8773578699196
 30
0.0
  0
SPLINE
  5
145
330
1F
100
AcDbEntity
  8
0
  6
Continuous
 62
     7
370
    25
100
AcDbSpline
210
0.0
220
0.0
230
1.0
 70
     8
 71
     3
 72
     8
 73
     4
 74
     0
 42
0.00000001
 43
0.00000001
 40
0.0
 40
0.0
 40
0.0
 40
0.0
 40
1.0
 40
1.0
 40
1.0
 40
1.0
 10
520.2152601791385
 20
664.3221366182154
 30
0.0
 10
520.7934606506493
 20
664.2130793326628
 30
0.0
 10
521.1066271166046
 20
664.3690559389801
 30
0.0
 10
520.9513513823564
 20
664.9934747455009
 30
0.0
  0
LINE
  5
146
330
1F
100
AcDbEntity
  8
0
  6
Continuous
 62
     7
370
    25
100
AcDbLine
 10
520.2061215577
 20
665.7923945539
 30
0.0
 11
520.2152601791
 21
664.3221366182
 31
0.0
  0
SPLINE
  5
147
330
1F
100
AcDbEntity
  8
0
  6
Continuous
 62
     7
370
    25
100
AcDbSpline
210
0.0
220
0.0
230
1.0
 70
     8
 71
     3
 72
     8
 73
     4
 74
     0
 42
0.00000001
 43
0.00000001
 40
0.0
 40
0.0
 40
0.0
 40
0.0
 40
1.0
 40
1.0
 40
1.0
 40
1.0
 10
519.7648761495875
 20
666.3367825238909
 30
0.0
 10
520.3129024016598
 20
666.8890864261407
 30
0.0
 10
520.2120406013611
 20
666.2538638443609
 30
0.0
 10
520.2061215576825
 20
665.7923945538669
 30
0.0
  0
SPLINE
  5
148
330
1F
100
AcDbEntity
  8
0
  6
Continuous
 62
     7
370
    25
100
AcDbSpline
210
0.0
220
0.0
230
1.0
 70
     8
 71
     3
 72
     8
 73
     4
 74
     0
 42
0.00000001
 43
0.00000001
 40
0.0
 40
0.0
 40
0.0
 40
0.0
 40
1.0
 40
1.0
 40
1.0
 40
1.0
 10
518.0466142059605
 20
664.2686136387518
 30
0.0
 10
519.5409004008027
 20
664.0620770422228
 30
0.0
 10
519.1751190764039
 20
665.7308703779355
 30
0.0
 10
519.7648761495875
 20
666.3367825238909
 30
0.0
  0
SPLINE
  5
149
330
1F
100
AcDbEntity
  8
0
  6
Continuous
 62
     7
370
    25
100
AcDbSpline
210
0.0
220
0.0
230
1.0
 70
     8
 71
     3
 72
     8
 73
     4
 74
     0
 42
0.00000001
 43
0.00000001
 40
0.0
 40
0.0
 40
0.0
 40
0.0
 40
1.0
 40
1.0
 40
1.0
 40
1.0
 10
515.4262199753601
 20
663.5758291672086
 30
0.0
 10
516.2853099634946
 20
664.1178143908935
 30
0.0
 10
517.0387898425372
 20
664.8916443434132
 30
0.0
 10
518.0466142059605
 20
664.2686136387518
 30
0.0
  0
LINE
  5
14A
330
1F
100
AcDbEntity
  8
0
  6
Continuous
 62
     7
370
    25
100
AcDbLine
 10
514.8805283719
 20
663.2307942245
 30
0.0
 11
515.4262199754
 21
663.5758291672
 31
0.0
  0
SPLINE
  5
14B
330
1F
100
AcDbEntity
  8
0
  6
Continuous
 62
     7
370
    25
100
AcDbSpline
210
0.0
220
0.0
230
1.0
 70
     8
 71
     3
 72
     8
 73
     4
 74
     0
 42
0.00000001
 43
0.00000001
 40
0.0
 40
0.0
 40
0.0
 40
0.0
 40
1.0
 40
1.0
 40
1.0
 40
1.0
 10
508.5747139273748
 20
680.9942422035747
 30
0.0
 10
508.5438321284135
 20
680.997669939788
 30
0.0
 10
508.3303984505074
 20
680.7192043150355
 30
0.0
 10
508.3474103720681
 20
680.8450126135683
 30
0.0
  0
SPLINE
  5
14C
330
1F
100
AcDbEntity
  8
0
  6
Continuous
 62
     7
370
    25
100
AcDbSpline
210
0.0
220
0.0
230
1.0
 70
     8
 71
     3
 72
     8
 73
     4
 74
     0
 42
0.00000001
 43
0.00000001
 40
0.0
 40
0.0
 40
0.0
 40
0.0
 40
1.0
 40
1.0
 40
1.0
 40
1.0
 10
508.3474103720681
 20
680.8450126135683
 30
0.0
 10
508.5233243729315
 20
681.469634348985
 30
0.0
 10
509.424001256137
 20
681.7019156307388
 30
0.0
 10
508.5747139273748
 20
680.9942422035747
 30
0.0
  0
SPLINE
  5
14D
330
1F
100
AcDbEntity
  8
0
  6
Continuous
 62
     7
370
    25
100
AcDbSpline
210
0.0
220
0.0
230
1.0
 70
     8
 71
     3
 72
     8
 73
     4
 74
     0
 42
0.00000001
 43
0.00000001
 40
0.0
 40
0.0
 40
0.0
 40
0.0
 40
1.0
 40
1.0
 40
1.0
 40
1.0
 10
507.587722346724
 20
677.5594175758204
 30
0.0
 10
507.5219861172387
 20
677.5310876787787
 30
0.0
 10
506.4367127185657
 20
676.4700771864905
 30
0.0
 10
506.8775779618271
 20
676.9988566843768
 30
0.0
  0
SPLINE
  5
14E
330
1F
100
AcDbEntity
  8
0
  6
Continuous
 62
     7
370
    25
100
AcDbSpline
210
0.0
220
0.0
230
1.0
 70
     8
 71
     3
 72
     8
 73
     4
 74
     0
 42
0.00000001
 43
0.00000001
 40
0.0
 40
0.0
 40
0.0
 40
0.0
 40
1.0
 40
1.0
 40
1.0
 40
1.0
 10
506.8775779618271
 20
676.9988566843768
 30
0.0
 10
507.1860318162851
 20
677.5955799598163
 30
0.0
 10
508.7491835519791
 20
678.7234504642993
 30
0.0
 10
507.587722346724
 20
677.5594175758204
 30
0.0
  0
SPLINE
  5
14F
330
1F
100
AcDbEntity
  8
0
  6
Continuous
 62
     7
370
    25
100
AcDbSpline
210
0.0
220
0.0
230
1.0
 70
     8
 71
     3
 72
     8
 73
     4
 74
     0
 42
0.00000001
 43
0.00000001
 40
0.0
 40
0.0
 40
0.0
 40
0.0
 40
1.0
 40
1.0
 40
1.0
 40
1.0
 10
508.0326631070665
 20
678.8038461180661
 30
0.0
 10
507.9480664272543
 20
678.7593236319865
 30
0.0
 10
507.8308637918221
 20
678.5689429040285
 30
0.0
 10
507.74620822284
 20
678.596814193134
 30
0.0
  0
SPLINE
  5
150
330
1F
100
AcDbEntity
  8
0
  6
Continuous
 62
     7
370
    25
100
AcDbSpline
210
0.0
220
0.0
230
1.0
 70
     8
 71
     3
 72
     8
 73
     4
 74
     0
 42
0.00000001
 43
0.00000001
 40
0.0
 40
0.0
 40
0.0
 40
0.0
 40
1.0
 40
1.0
 40
1.0
 40
1.0
 10
507.74620822284
 20
678.596814193134
 30
0.0
 10
508.0238441696753
 20
679.3392856627368
 30
0.0
 10
508.9835052638862
 20
679.5910208339417
 30
0.0
 10
508.0326631070665
 20
678.8038461180661
 30
0.0
  0
LINE
  5
151
330
1F
100
AcDbEntity
  8
0
  6
Continuous
 62
     7
370
    25
100
AcDbLine
 10
518.2638156539
 20
676.7848850459
 30
0.0
 11
518.1592841943
 21
676.8007877366
 31
0.0
  0
SPLINE
  5
152
330
1F
100
AcDbEntity
  8
0
  6
Continuous
 62
     7
370
    25
100
AcDbSpline
210
0.0
220
0.0
230
1.0
 70
     8
 71
     3
 72
     8
 73
     4
 74
     0
 42
0.00000001
 43
0.00000001
 40
0.0
 40
0.0
 40
0.0
 40
0.0
 40
1.0
 40
1.0
 40
1.0
 40
1.0
 10
518.159284194289
 20
676.800787736562
 30
0.0
 10
518.0460130362117
 20
677.0922825332893
 30
0.0
 10
519.1597048930522
 20
677.3776741155755
 30
0.0
 10
518.263815653877
 20
676.7848850459467
 30
0.0
  0
SPLINE
  5
153
330
1F
100
AcDbEntity
  8
0
  6
Continuous
 62
     7
370
    25
100
AcDbSpline
210
0.0
220
0.0
230
1.0
 70
     8
 71
     3
 72
     8
 73
     4
 74
     0
 42
0.00000001
 43
0.00000001
 40
0.0
 40
0.0
 40
0.0
 40
0.0
 40
1.0
 40
1.0
 40
1.0
 40
1.0
 10
505.7129070694468
 20
675.6805176866095
 30
0.0
 10
506.2648583187918
 20
676.1091993518054
 30
0.0
 10
507.5337943052681
 20
677.4523571788151
 30
0.0
 10
507.6738827727342
 20
677.2944545101141
 30
0.0
  0
SPLINE
  5
154
330
1F
100
AcDbEntity
  8
0
  6
Continuous
 62
     7
370
    25
100
AcDbSpline
210
0.0
220
0.0
230
1.0
 70
     8
 71
     3
 72
     8
 73
     4
 74
     0
 42
0.00000001
 43
0.00000001
 40
0.0
 40
0.0
 40
0.0
 40
0.0
 40
1.0
 40
1.0
 40
1.0
 40
1.0
 10
507.6738827727342
 20
677.2944545101141
 30
0.0
 10
507.2428997688043
 20
676.8143430457526
 30
0.0
 10
505.779876560928
 20
675.3875647576587
 30
0.0
 10
505.7129070694468
 20
675.6805176866095
 30
0.0
  0
LINE
  5
155
330
1F
100
AcDbEntity
  8
0
  6
Continuous
 62
     7
370
    25
100
AcDbLine
 10
523.9951188401
 20
686.9896669543
 30
0.0
 11
524.0610179812
 21
687.1184049322
 31
0.0
  0
SPLINE
  5
156
330
1F
100
AcDbEntity
  8
0
  6
Continuous
 62
     7
370
    25
100
AcDbSpline
210
0.0
220
0.0
230
1.0
 70
     8
 71
     3
 72
     8
 73
     4
 74
     0
 42
0.00000001
 43
0.00000001
 40
0.0
 40
0.0
 40
0.0
 40
0.0
 40
1.0
 40
1.0
 40
1.0
 40
1.0
 10
508.2643714131142
 20
679.8621076911928
 30
0.0
 10
508.2687795744247
 20
679.9525663444844
 30
0.0
 10
508.119260995481
 20
679.6704258309022
 30
0.0
 10
508.1003092555723
 20
679.773230746433
 30
0.0
  0
SPLINE
  5
157
330
1F
100
AcDbEntity
  8
0
  6
Continuous
 62
     7
370
    25
100
AcDbSpline
210
0.0
220
0.0
230
1.0
 70
     8
 71
     3
 72
     8
 73
     4
 74
     0
 42
0.00000001
 43
0.00000001
 40
0.0
 40
0.0
 40
0.0
 40
0.0
 40
1.0
 40
1.0
 40
1.0
 40
1.0
 10
508.1003092555723
 20
679.773230746433
 30
0.0
 10
508.383464413634
 20
680.5094991855885
 30
0.0
 10
509.1935018833551
 20
680.5691066213602
 30
0.0
 10
508.2643714131142
 20
679.8621076911928
 30
0.0
  0
LINE
  5
158
330
1F
100
AcDbEntity
  8
0
  6
Continuous
 62
     7
370
    25
100
AcDbLine
 10
522.9876603171
 20
683.9489289919
 30
0.0
 11
522.8036795232
 21
683.7990470736
 31
0.0
  0
SPLINE
  5
159
330
1F
100
AcDbEntity
  8
0
  6
Continuous
 62
     7
370
    25
100
AcDbSpline
210
0.0
220
0.0
230
1.0
 70
     8
 71
     3
 72
     8
 73
     4
 74
     0
 42
0.00000001
 43
0.00000001
 40
0.0
 40
0.0
 40
0.0
 40
0.0
 40
1.0
 40
1.0
 40
1.0
 40
1.0
 10
521.4173123931181
 20
679.690173938831
 30
0.0
 10
521.7296338335924
 20
680.3014363591279
 30
0.0
 10
522.6558090452063
 20
680.6854950401242
 30
0.0
 10
521.7560488094448
 20
679.8706682210881
 30
0.0
  0
SPLINE
  5
15A
330
1F
100
AcDbEntity
  8
0
  6
Continuous
 62
     7
370
    25
100
AcDbSpline
210
0.0
220
0.0
230
1.0
 70
     8
 71
     3
 72
     8
 73
     4
 74
     0
 42
0.00000001
 43
0.00000001
 40
0.0
 40
0.0
 40
0.0
 40
0.0
 40
1.0
 40
1.0
 40
1.0
 40
1.0
 10
521.7560488094448
 20
679.8706682210881
 30
0.0
 10
521.6981815600094
 20
679.8757755491829
 30
0.0
 10
521.2362859483054
 20
679.2905280449148
 30
0.0
 10
521.4173123931181
 20
679.690173938831
 30
0.0
  0
SPLINE
  5
15B
330
1F
100
AcDbEntity
  8
0
  6
Continuous
 62
     7
370
    25
100
AcDbSpline
210
0.0
220
0.0
230
1.0
 70
     8
 71
     3
 72
     8
 73
     4
 74
     0
 42
0.00000001
 43
0.00000001
 40
0.0
 40
0.0
 40
0.0
 40
0.0
 40
1.0
 40
1.0
 40
1.0
 40
1.0
 10
521.8360590688378
 20
680.8726630114443
 30
0.0
 10
522.0209709483149
 20
681.4165240484527
 30
0.0
 10
523.0296777398
 20
681.8980457833766
 30
0.0
 10
522.2167386710814
 20
681.1294357077511
 30
0.0
  0
SPLINE
  5
15C
330
1F
100
AcDbEntity
  8
0
  6
Continuous
 62
     7
370
    25
100
AcDbSpline
210
0.0
220
0.0
230
1.0
 70
     8
 71
     3
 72
     8
 73
     4
 74
     0
 42
0.00000001
 43
0.00000001
 40
0.0
 40
0.0
 40
0.0
 40
0.0
 40
1.0
 40
1.0
 40
1.0
 40
1.0
 10
522.2167386710814
 20
681.1294357077511
 30
0.0
 10
522.2710776861835
 20
681.2617581943715
 30
0.0
 10
521.7358478915482
 20
680.6079658564872
 30
0.0
 10
521.8360590688378
 20
680.8726630114443
 30
0.0
  0
SPLINE
  5
15D
330
1F
100
AcDbEntity
  8
0
  6
Continuous
 62
     7
370
    25
100
AcDbSpline
210
0.0
220
0.0
230
1.0
 70
     8
 71
     3
 72
     8
 73
     4
 74
     0
 42
0.00000001
 43
0.00000001
 40
0.0
 40
0.0
 40
0.0
 40
0.0
 40
1.0
 40
1.0
 40
1.0
 40
1.0
 10
521.0604854057267
 20
678.8426772728362
 30
0.0
 10
521.2235440599833
 20
679.4749863186246
 30
0.0
 10
522.5489140608303
 20
680.2002489631105
 30
0.0
 10
521.5558898645305
 20
679.269114783183
 30
0.0
  0
SPLINE
  5
15E
330
1F
100
AcDbEntity
  8
0
  6
Continuous
 62
     7
370
    25
100
AcDbSpline
210
0.0
220
0.0
230
1.0
 70
     8
 71
     3
 72
     8
 73
     4
 74
     0
 42
0.00000001
 43
0.00000001
 40
0.0
 40
0.0
 40
0.0
 40
0.0
 40
1.0
 40
1.0
 40
1.0
 40
1.0
 10
521.5558898645305
 20
679.269114783183
 30
0.0
 10
521.3867459581663
 20
679.1323098985185
 30
0.0
 10
521.2398815982326
 20
678.9662772275017
 30
0.0
 10
521.0604854057267
 20
678.8426772728362
 30
0.0
  0
SPLINE
  5
15F
330
1F
100
AcDbEntity
  8
0
  6
Continuous
 62
     7
370
    25
100
AcDbSpline
210
0.0
220
0.0
230
1.0
 70
     8
 71
     3
 72
     8
 73
     4
 74
     0
 42
0.00000001
 43
0.00000001
 40
0.5
 40
0.5
 40
0.5
 40
0.5
 40
1.0
 40
1.0
 40
1.0
 40
1.0
 10
517.4460525475075
 20
677.8550202758302
 30
0.0
 10
517.5190788838931
 20
677.795095870239
 30
0.0
 10
517.4659577263808
 20
677.6336282751594
 30
0.0
 10
517.067610065813
 20
677.5503907073644
 30
0.0
  0
SPLINE
  5
160
330
1F
100
AcDbEntity
  8
0
  6
Continuous
 62
     7
370
    25
100
AcDbSpline
210
0.0
220
0.0
230
1.0
 70
     8
 71
     3
 72
     8
 73
     4
 74
     0
 42
0.00000001
 43
0.00000001
 40
0.0
 40
0.0
 40
0.0
 40
0.0
 40
0.5
 40
0.5
 40
0.5
 40
0.5
 10
517.067610065813
 20
677.5503907073644
 30
0.0
 10
517.1738523808381
 20
677.8733258975237
 30
0.0
 10
517.3730262111218
 20
677.9149446814212
 30
0.0
 10
517.4460525475075
 20
677.8550202758302
 30
0.0
  0
SPLINE
  5
161
330
1F
100
AcDbEntity
  8
0
  6
Continuous
 62
     7
370
    25
100
AcDbSpline
210
0.0
220
0.0
230
1.0
 70
     8
 71
     3
 72
     8
 73
     4
 74
     0
 42
0.00000001
 43
0.00000001
 40
0.5
 40
0.5
 40
0.5
 40
0.5
 40
1.0
 40
1.0
 40
1.0
 40
1.0
 10
517.9408252409102
 20
677.4228688107282
 30
0.0
 10
517.9675948307449
 20
677.3124859362161
 30
0.0
 10
517.860497940644
 20
677.1058514847587
 30
0.0
 10
517.5392258011032
 20
677.134114079892
 30
0.0
  0
SPLINE
  5
162
330
1F
100
AcDbEntity
  8
0
  6
Continuous
 62
     7
370
    25
100
AcDbSpline
210
0.0
220
0.0
230
1.0
 70
     8
 71
     3
 72
     8
 73
     4
 74
     0
 42
0.00000001
 43
0.00000001
 40
0.0
 40
0.0
 40
0.0
 40
0.0
 40
0.5
 40
0.5
 40
0.5
 40
0.5
 10
517.5392258011032
 20
677.134114079892
 30
0.0
 10
517.753419581305
 20
677.5473829828069
 30
0.0
 10
517.9140556510755
 20
677.5332516852402
 30
0.0
 10
517.9408252409102
 20
677.4228688107282
 30
0.0
  0
LINE
  5
163
330
1F
100
AcDbEntity
  8
0
  6
Continuous
 62
     7
370
    25
100
AcDbLine
 10
522.8443455645
 20
683.3945821584
 30
0.0
 11
522.6297846933
 21
683.2170354042
 31
0.0
  0
SPLINE
  5
164
330
1F
100
AcDbEntity
  8
0
  6
Continuous
 62
     7
370
    25
100
AcDbSpline
210
0.0
220
0.0
230
1.0
 70
     8
 71
     3
 72
     8
 73
     4
 74
     0
 42
0.00000001
 43
0.00000001
 40
0.0
 40
0.0
 40
0.0
 40
0.0
 40
0.5
 40
0.5
 40
0.5
 40
0.5
 10
513.6445808932949
 20
687.3082178003044
 30
0.0
 10
513.8074835139886
 20
687.6849451775607
 30
0.0
 10
513.9736088956579
 20
687.7095526367472
 30
0.0
 10
514.0159459313192
 20
687.6276745220265
 30
0.0
  0
SPLINE
  5
165
330
1F
100
AcDbEntity
  8
0
  6
Continuous
 62
     7
370
    25
100
AcDbSpline
210
0.0
220
0.0
230
1.0
 70
     8
 71
     3
 72
     8
 73
     4
 74
     0
 42
0.00000001
 43
0.00000001
 40
0.5
 40
0.5
 40
0.5
 40
0.5
 40
1.0
 40
1.0
 40
1.0
 40
1.0
 10
514.0159459313192
 20
687.6276745220265
 30
0.0
 10
514.0582829669804
 20
687.5457964073056
 30
0.0
 10
513.9768316566336
 20
687.3574327186774
 30
0.0
 10
513.6445808932949
 20
687.3082178003044
 30
0.0
  0
SPLINE
  5
166
330
1F
100
AcDbEntity
  8
0
  6
Continuous
 62
     7
370
    25
100
AcDbSpline
210
0.0
220
0.0
230
1.0
 70
     8
 71
     3
 72
     8
 73
     4
 74
     0
 42
0.00000001
 43
0.00000001
 40
0.0
 40
0.0
 40
0.0
 40
0.0
 40
1.0
 40
1.0
 40
1.0
 40
1.0
 10
508.9478246797003
 20
683.4527469232047
 30
0.0
 10
508.8815880059573
 20
683.4337432289512
 30
0.0
 10
508.7317640673415
 20
683.1667175643885
 30
0.0
 10
508.7824238735593
 20
683.4090429738479
 30
0.0
  0
SPLINE
  5
167
330
1F
100
AcDbEntity
  8
0
  6
Continuous
 62
     7
370
    25
100
AcDbSpline
210
0.0
220
0.0
230
1.0
 70
     8
 71
     3
 72
     8
 73
     4
 74
     0
 42
0.00000001
 43
0.00000001
 40
0.0
 40
0.0
 40
0.0
 40
0.0
 40
1.0
 40
1.0
 40
1.0
 40
1.0
 10
508.7824238735593
 20
683.4090429738479
 30
0.0
 10
509.0902698508148
 20
684.1080066018507
 30
0.0
 10
509.7537192167463
 20
684.0853229029133
 30
0.0
 10
508.9478246797003
 20
683.4527469232047
 30
0.0
  0
SPLINE
  5
168
330
1F
100
AcDbEntity
  8
0
  6
Continuous
 62
     7
370
    25
100
AcDbSpline
210
0.0
220
0.0
230
1.0
 70
     8
 71
     3
 72
     8
 73
     4
 74
     0
 42
0.00000001
 43
0.00000001
 40
0.0
 40
0.0
 40
0.0
 40
0.0
 40
0.5
 40
0.5
 40
0.5
 40
0.5
 10
508.6185824935614
 20
682.4186321834078
 30
0.0
 10
508.9277351169038
 20
682.9225477756893
 30
0.0
 10
509.1523933775244
 20
683.02749174368
 30
0.0
 10
509.1874343519991
 20
682.9539848296051
 30
0.0
  0
SPLINE
  5
169
330
1F
100
AcDbEntity
  8
0
  6
Continuous
 62
     7
370
    25
100
AcDbSpline
210
0.0
220
0.0
230
1.0
 70
     8
 71
     3
 72
     8
 73
     4
 74
     0
 42
0.00000001
 43
0.00000001
 40
0.5
 40
0.5
 40
0.5
 40
0.5
 40
1.0
 40
1.0
 40
1.0
 40
1.0
 10
509.1874343519991
 20
682.9539848296051
 30
0.0
 10
509.2224753264738
 20
682.8804779155302
 30
0.0
 10
509.0678990148025
 20
682.6285201193896
 30
0.0
 10
508.6185824935614
 20
682.4186321834078
 30
0.0
  0
SPLINE
  5
16A
330
1F
100
AcDbEntity
  8
0
  6
Continuous
 62
     7
370
    25
100
AcDbSpline
210
0.0
220
0.0
230
1.0
 70
     8
 71
     3
 72
     8
 73
     4
 74
     0
 42
0.00000001
 43
0.00000001
 40
0.0
 40
0.0
 40
0.0
 40
0.0
 40
1.0
 40
1.0
 40
1.0
 40
1.0
 10
510.7523553917678
 20
688.4636035304184
 30
0.0
 10
510.6662887564237
 20
688.4335356070679
 30
0.0
 10
509.779271204784
 20
687.5022147552934
 30
0.0
 10
510.0934361718557
 20
687.9813135078313
 30
0.0
  0
SPLINE
  5
16B
330
1F
100
AcDbEntity
  8
0
  6
Continuous
 62
     7
370
    25
100
AcDbSpline
210
0.0
220
0.0
230
1.0
 70
     8
 71
     3
 72
     8
 73
     4
 74
     0
 42
0.00000001
 43
0.00000001
 40
0.0
 40
0.0
 40
0.0
 40
0.0
 40
1.0
 40
1.0
 40
1.0
 40
1.0
 10
510.0934361718557
 20
687.9813135078313
 30
0.0
 10
510.2599044863064
 20
688.4916863885295
 30
0.0
 10
511.9393617639212
 20
689.3691815159387
 30
0.0
 10
510.7523553917678
 20
688.4636035304184
 30
0.0
  0
SPLINE
  5
16C
330
1F
100
AcDbEntity
  8
0
  6
Continuous
 62
     7
370
    25
100
AcDbSpline
210
0.0
220
0.0
230
1.0
 70
     8
 71
     3
 72
     8
 73
     4
 74
     0
 42
0.00000001
 43
0.00000001
 40
0.5
 40
0.5
 40
0.5
 40
0.5
 40
1.0
 40
1.0
 40
1.0
 40
1.0
 10
514.9691829475357
 20
685.063233586
 30
0.0
 10
514.9963111871936
 20
684.9738411620548
 30
0.0
 10
514.884862637553
 20
684.7623358770883
 30
0.0
 10
514.5534525796404
 20
684.6968950029371
 30
0.0
  0
SPLINE
  5
16D
330
1F
100
AcDbEntity
  8
0
  6
Continuous
 62
     7
370
    25
100
AcDbSpline
210
0.0
220
0.0
230
1.0
 70
     8
 71
     3
 72
     8
 73
     4
 74
     0
 42
0.00000001
 43
0.00000001
 40
0.0
 40
0.0
 40
0.0
 40
0.0
 40
0.5
 40
0.5
 40
0.5
 40
0.5
 10
514.5534525796404
 20
684.6968950029371
 30
0.0
 10
514.7763496789213
 20
685.11990557287
 30
0.0
 10
514.9420547078777
 20
685.1526260099456
 30
0.0
 10
514.9691829475357
 20
685.063233586
 30
0.0
  0
LINE
  5
16E
330
1F
100
AcDbEntity
  8
0
  6
Continuous
 62
     7
370
    25
100
AcDbLine
 10
513.1479571558
 20
688.0339683836
 30
0.0
 11
513.0865667879
 21
688.0704200976
 31
0.0
  0
SPLINE
  5
16F
330
1F
100
AcDbEntity
  8
0
  6
Continuous
 62
     7
370
    25
100
AcDbSpline
210
0.0
220
0.0
230
1.0
 70
     8
 71
     3
 72
     8
 73
     4
 74
     0
 42
0.00000001
 43
0.00000001
 40
0.0
 40
0.0
 40
0.0
 40
0.0
 40
1.0
 40
1.0
 40
1.0
 40
1.0
 10
513.0865667879166
 20
688.0704200976163
 30
0.0
 10
513.1185179141581
 20
688.5500009910213
 30
0.0
 10
513.8185056225499
 20
688.3913899469978
 30
0.0
 10
513.1479571558307
 20
688.0339683836258
 30
0.0
  0
LINE
  5
170
330
1F
100
AcDbEntity
  8
0
  6
Continuous
 62
     7
370
    25
100
AcDbLine
 10
511.5930326237
 20
688.5597980798
 30
0.0
 11
511.7967717573
 21
688.7505661348
 31
0.0
  0
SPLINE
  5
171
330
1F
100
AcDbEntity
  8
0
  6
Continuous
 62
     7
370
    25
100
AcDbSpline
210
0.0
220
0.0
230
1.0
 70
     8
 71
     3
 72
     8
 73
     4
 74
     0
 42
0.00000001
 43
0.00000001
 40
0.0
 40
0.0
 40
0.0
 40
0.0
 40
1.0
 40
1.0
 40
1.0
 40
1.0
 10
511.7967717572811
 20
688.7505661347843
 30
0.0
 10
512.624705395595
 20
689.4884980224583
 30
0.0
 10
511.9105253972822
 20
688.3426197100681
 30
0.0
 10
511.5930326236887
 20
688.5597980797965
 30
0.0
  0
SPLINE
  5
172
330
1F
100
AcDbEntity
  8
0
  6
Continuous
 62
     7
370
    25
100
AcDbSpline
210
0.0
220
0.0
230
1.0
 70
     8
 71
     3
 72
     8
 73
     4
 74
     0
 42
0.00000001
 43
0.00000001
 40
0.0
 40
0.0
 40
0.0
 40
0.0
 40
0.5
 40
0.5
 40
0.5
 40
0.5
 10
514.8296526766406
 20
683.5768065089773
 30
0.0
 10
514.8721501369731
 20
683.9034664959692
 30
0.0
 10
515.0790847185623
 20
684.0262496760392
 30
0.0
 10
515.1719276442738
 20
684.0059762693262
 30
0.0
  0
SPLINE
  5
173
330
1F
100
AcDbEntity
  8
0
  6
Continuous
 62
     7
370
    25
100
AcDbSpline
210
0.0
220
0.0
230
1.0
 70
     8
 71
     3
 72
     8
 73
     4
 74
     0
 42
0.00000001
 43
0.00000001
 40
0.5
 40
0.5
 40
0.5
 40
0.5
 40
1.0
 40
1.0
 40
1.0
 40
1.0
 10
515.1719276442738
 20
684.0059762693262
 30
0.0
 10
515.2647705699853
 20
683.9857028626133
 30
0.0
 10
515.243521839819
 20
683.8223728691174
 30
0.0
 10
514.8296526766406
 20
683.5768065089773
 30
0.0
  0
SPLINE
  5
174
330
1F
100
AcDbEntity
  8
0
  6
Continuous
 62
     7
370
    25
100
AcDbSpline
210
0.0
220
0.0
230
1.0
 70
     8
 71
     3
 72
     8
 73
     4
 74
     0
 42
0.00000001
 43
0.00000001
 40
0.0
 40
0.0
 40
0.0
 40
0.0
 40
0.5
 40
0.5
 40
0.5
 40
0.5
 10
515.3131695948267
 20
681.5309317220327
 30
0.0
 10
515.5406995551175
 20
681.967823537932
 30
0.0
 10
515.6963785608087
 20
681.9879881332614
 30
0.0
 10
515.7173355735819
 20
681.8888474769514
 30
0.0
  0
SPLINE
  5
175
330
1F
100
AcDbEntity
  8
0
  6
Continuous
 62
     7
370
    25
100
AcDbSpline
210
0.0
220
0.0
230
1.0
 70
     8
 71
     3
 72
     8
 73
     4
 74
     0
 42
0.00000001
 43
0.00000001
 40
0.5
 40
0.5
 40
0.5
 40
0.5
 40
1.0
 40
1.0
 40
1.0
 40
1.0
 10
515.7173355735819
 20
681.8888474769514
 30
0.0
 10
515.7382925863549
 20
681.7897068206412
 30
0.0
 10
515.6245276062095
 20
681.5712609126916
 30
0.0
 10
515.3131695948267
 20
681.5309317220327
 30
0.0
  0
SPLINE
  5
176
330
1F
100
AcDbEntity
  8
0
  6
Continuous
 62
     7
370
    25
100
AcDbSpline
210
0.0
220
0.0
230
1.0
 70
     8
 71
     3
 72
     8
 73
     4
 74
     0
 42
0.00000001
 43
0.00000001
 40
0.5
 40
0.5
 40
0.5
 40
0.5
 40
1.0
 40
1.0
 40
1.0
 40
1.0
 10
515.3550051772703
 20
683.3248410390548
 30
0.0
 10
515.4647938594907
 20
683.3204266818759
 30
0.0
 10
515.4528240104582
 20
683.1700304212466
 30
0.0
 10
514.989729583512
 20
682.8868953287032
 30
0.0
  0
SPLINE
  5
177
330
1F
100
AcDbEntity
  8
0
  6
Continuous
 62
     7
370
    25
100
AcDbSpline
210
0.0
220
0.0
230
1.0
 70
     8
 71
     3
 72
     8
 73
     4
 74
     0
 42
0.00000001
 43
0.00000001
 40
0.0
 40
0.0
 40
0.0
 40
0.0
 40
0.5
 40
0.5
 40
0.5
 40
0.5
 10
514.989729583512
 20
682.8868953287032
 30
0.0
 10
515.0136692815768
 20
683.1876878499619
 30
0.0
 10
515.2452164950498
 20
683.3292553962335
 30
0.0
 10
515.3550051772703
 20
683.3248410390548
 30
0.0
  0
SPLINE
  5
178
330
1F
100
AcDbEntity
  8
0
  6
Continuous
 62
     7
370
    25
100
AcDbSpline
210
0.0
220
0.0
230
1.0
 70
     8
 71
     3
 72
     8
 73
     4
 74
     0
 42
0.00000001
 43
0.00000001
 40
0.5
 40
0.5
 40
0.5
 40
0.5
 40
1.0
 40
1.0
 40
1.0
 40
1.0
 10
516.8298349531555
 20
678.6031404304108
 30
0.0
 10
516.8261063478535
 20
678.4855465457936
 30
0.0
 10
516.7117760657837
 20
678.2694409423366
 30
0.0
 10
516.4980299228523
 20
678.3076052738915
 30
0.0
  0
SPLINE
  5
179
330
1F
100
AcDbEntity
  8
0
  6
Continuous
 62
     7
370
    25
100
AcDbSpline
210
0.0
220
0.0
230
1.0
 70
     8
 71
     3
 72
     8
 73
     4
 74
     0
 42
0.00000001
 43
0.00000001
 40
0.0
 40
0.0
 40
0.0
 40
0.0
 40
0.5
 40
0.5
 40
0.5
 40
0.5
 10
516.4980299228523
 20
678.3076052738915
 30
0.0
 10
516.7266904869917
 20
678.7398164808055
 30
0.0
 10
516.8335635584574
 20
678.7207343150282
 30
0.0
 10
516.8298349531555
 20
678.6031404304108
 30
0.0
  0
SPLINE
  5
17A
330
1F
100
AcDbEntity
  8
0
  6
Continuous
 62
     7
370
    25
100
AcDbSpline
210
0.0
220
0.0
230
1.0
 70
     8
 71
     3
 72
     8
 73
     4
 74
     0
 42
0.00000001
 43
0.00000001
 40
0.0
 40
0.0
 40
0.0
 40
0.0
 40
0.5
 40
0.5
 40
0.5
 40
0.5
 10
515.6965384312625
 20
680.1611877085727
 30
0.0
 10
515.8141874534228
 20
680.4923342999778
 30
0.0
 10
516.0176513540422
 20
680.5751033407631
 30
0.0
 10
516.0899710488117
 20
680.5337012133044
 30
0.0
  0
SPLINE
  5
17B
330
1F
100
AcDbEntity
  8
0
  6
Continuous
 62
     7
370
    25
100
AcDbSpline
210
0.0
220
0.0
230
1.0
 70
     8
 71
     3
 72
     8
 73
     4
 74
     0
 42
0.00000001
 43
0.00000001
 40
0.5
 40
0.5
 40
0.5
 40
0.5
 40
1.0
 40
1.0
 40
1.0
 40
1.0
 10
516.0899710488117
 20
680.5337012133044
 30
0.0
 10
516.1622907435814
 20
680.4922990858458
 30
0.0
 10
516.103466232501
 20
680.3267257901433
 30
0.0
 10
515.6965384312625
 20
680.1611877085727
 30
0.0
  0
LINE
  5
17C
330
1F
100
AcDbEntity
  8
0
  6
Continuous
 62
     7
370
    25
100
AcDbLine
 10
509.4459286044
 20
685.6008901431
 30
0.0
 11
509.227834383
 21
685.4196956709
 31
0.0
  0
SPLINE
  5
17D
330
1F
100
AcDbEntity
  8
0
  6
Continuous
 62
     7
370
    25
100
AcDbSpline
210
0.0
220
0.0
230
1.0
 70
     8
 71
     3
 72
     8
 73
     4
 74
     0
 42
0.00000001
 43
0.00000001
 40
0.0
 40
0.0
 40
0.0
 40
0.0
 40
1.0
 40
1.0
 40
1.0
 40
1.0
 10
509.1371234612703
 20
685.3671797189344
 30
0.0
 10
509.2569471195011
 20
685.9708475963549
 30
0.0
 10
510.2744249867164
 20
686.3300797174842
 30
0.0
 10
509.4459286044052
 20
685.6008901430694
 30
0.0
  0
LINE
  5
17E
330
1F
100
AcDbEntity
  8
0
  6
Continuous
 62
     7
370
    25
100
AcDbLine
 10
509.227834383
 20
685.4196956709
 30
0.0
 11
509.1371234613
 21
685.3671797189
 31
0.0
  0
LINE
  5
17F
330
1F
100
AcDbEntity
  8
0
  6
Continuous
 62
     7
370
    25
100
AcDbLine
 10
520.2154384382
 20
676.963741459
 30
0.0
 11
520.105524986
 21
676.907872917
 31
0.0
  0
SPLINE
  5
180
330
1F
100
AcDbEntity
  8
0
  6
Continuous
 62
     7
370
    25
100
AcDbSpline
210
0.0
220
0.0
230
1.0
 70
     8
 71
     3
 72
     8
 73
     4
 74
     0
 42
0.00000001
 43
0.00000001
 40
0.0
 40
0.0
 40
0.0
 40
0.0
 40
1.0
 40
1.0
 40
1.0
 40
1.0
 10
520.1055249860193
 20
676.9078729170403
 30
0.0
 10
520.6415187482627
 20
677.4652193465611
 30
0.0
 10
521.0134408033692
 20
677.612162945397
 30
0.0
 10
520.215438438247
 20
676.9637414589581
 30
0.0
  0
SPLINE
  5
181
330
1F
100
AcDbEntity
  8
0
  6
Continuous
 62
     7
370
    25
100
AcDbSpline
210
0.0
220
0.0
230
1.0
 70
     8
 71
     3
 72
     8
 73
     4
 74
     0
 42
0.00000001
 43
0.00000001
 40
0.5
 40
0.5
 40
0.5
 40
0.5
 40
1.0
 40
1.0
 40
1.0
 40
1.0
 10
517.6852536335587
 20
677.6402762570534
 30
0.0
 10
517.7362174920634
 20
677.5778355899956
 30
0.0
 10
517.6589867616947
 20
677.4069876209126
 30
0.0
 10
517.3006698669388
 20
677.3150543509773
 30
0.0
  0
SPLINE
  5
182
330
1F
100
AcDbEntity
  8
0
  6
Continuous
 62
     7
370
    25
100
AcDbSpline
210
0.0
220
0.0
230
1.0
 70
     8
 71
     3
 72
     8
 73
     4
 74
     0
 42
0.00000001
 43
0.00000001
 40
0.0
 40
0.0
 40
0.0
 40
0.0
 40
0.5
 40
0.5
 40
0.5
 40
0.5
 10
517.3006698669388
 20
677.3150543509773
 30
0.0
 10
517.4551313276762
 20
677.6567502891434
 30
0.0
 10
517.634289775054
 20
677.702716924111
 30
0.0
 10
517.6852536335587
 20
677.6402762570534
 30
0.0
  0
SPLINE
  5
183
330
1F
100
AcDbEntity
  8
0
  6
Continuous
 62
     7
370
    25
100
AcDbSpline
210
0.0
220
0.0
230
1.0
 70
     8
 71
     3
 72
     8
 73
     4
 74
     0
 42
0.00000001
 43
0.00000001
 40
0.0
 40
0.0
 40
0.0
 40
0.0
 40
1.0
 40
1.0
 40
1.0
 40
1.0
 10
522.7020444330645
 20
682.8402770475554
 30
0.0
 10
522.5933068315765
 20
682.7505696290788
 30
0.0
 10
522.4949903394294
 20
682.6453543502698
 30
0.0
 10
522.3701454131455
 20
682.576728458781
 30
0.0
  0
SPLINE
  5
184
330
1F
100
AcDbEntity
  8
0
  6
Continuous
 62
     7
370
    25
100
AcDbSpline
210
0.0
220
0.0
230
1.0
 70
     8
 71
     3
 72
     8
 73
     4
 74
     0
 42
0.00000001
 43
0.00000001
 40
0.0
 40
0.0
 40
0.0
 40
0.0
 40
1.0
 40
1.0
 40
1.0
 40
1.0
 10
522.3701454131455
 20
682.576728458781
 30
0.0
 10
522.5111001653099
 20
683.1992978270503
 30
0.0
 10
523.5916471965212
 20
683.6190634673045
 30
0.0
 10
522.7020444330645
 20
682.8402770475554
 30
0.0
  0
SPLINE
  5
185
330
1F
100
AcDbEntity
  8
0
  6
Continuous
 62
     7
370
    25
100
AcDbSpline
210
0.0
220
0.0
230
1.0
 70
     8
 71
     3
 72
     8
 73
     4
 74
     0
 42
0.00000001
 43
0.00000001
 40
0.5
 40
0.5
 40
0.5
 40
0.5
 40
1.0
 40
1.0
 40
1.0
 40
1.0
 10
512.614162841552
 20
688.8817461800372
 30
0.0
 10
512.6106934395457
 20
688.7730200750111
 30
0.0
 10
512.4273380588062
 20
688.5517200886682
 30
0.0
 10
512.0745049053521
 20
688.5440245360865
 30
0.0
  0
SPLINE
  5
186
330
1F
100
AcDbEntity
  8
0
  6
Continuous
 62
     7
370
    25
100
AcDbSpline
210
0.0
220
0.0
230
1.0
 70
     8
 71
     3
 72
     8
 73
     4
 74
     0
 42
0.00000001
 43
0.00000001
 40
0.0
 40
0.0
 40
0.0
 40
0.0
 40
0.5
 40
0.5
 40
0.5
 40
0.5
 10
512.0745049053521
 20
688.5440245360865
 30
0.0
 10
512.4412156668315
 20
688.9866245087724
 30
0.0
 10
512.6176322435584
 20
688.9904722850631
 30
0.0
 10
512.614162841552
 20
688.8817461800372
 30
0.0
  0
SPLINE
  5
187
330
1F
100
AcDbEntity
  8
0
  6
Continuous
 62
     7
370
    25
100
AcDbSpline
210
0.0
220
0.0
230
1.0
 70
     8
 71
     3
 72
     8
 73
     4
 74
     0
 42
0.00000001
 43
0.00000001
 40
0.0
 40
0.0
 40
0.0
 40
0.0
 40
1.0
 40
1.0
 40
1.0
 40
1.0
 10
513.5504047190528
 20
667.1046236297392
 30
0.0
 10
513.5142663227302
 20
666.1778379261528
 30
0.0
 10
513.5357017531651
 20
665.2495712395261
 30
0.0
 10
513.5299413009767
 20
664.3221366182154
 30
0.0
  0
SPLINE
  5
188
330
1F
100
AcDbEntity
  8
0
  6
Continuous
 62
     7
370
    25
100
AcDbSpline
210
0.0
220
0.0
230
1.0
 70
     8
 71
     3
 72
     8
 73
     4
 74
     0
 42
0.00000001
 43
0.00000001
 40
0.0
 40
0.0
 40
0.0
 40
0.0
 40
1.0
 40
1.0
 40
1.0
 40
1.0
 10
514.7010851135515
 20
664.791269458779
 30
0.0
 10
514.3194931839187
 20
665.5633148875567
 30
0.0
 10
513.9550198129918
 20
666.3443301145912
 30
0.0
 10
513.5504047190528
 20
667.1046236297392
 30
0.0
  0
SPLINE
  5
189
330
1F
100
AcDbEntity
  8
0
  6
Continuous
 62
     7
370
    25
100
AcDbSpline
210
0.0
220
0.0
230
1.0
 70
     8
 71
     3
 72
     8
 73
     4
 74
     0
 42
0.00000001
 43
0.00000001
 40
0.0
 40
0.0
 40
0.0
 40
0.0
 40
1.0
 40
1.0
 40
1.0
 40
1.0
 10
515.8218462855378
 20
664.3221366182154
 30
0.0
 10
515.354609721716
 20
664.3285143835158
 30
0.0
 10
514.7877767926321
 20
664.1753745753721
 30
0.0
 10
514.7010851135515
 20
664.791269458779
 30
0.0
  0
LINE
  5
18A
330
1F
100
AcDbEntity
  8
0
  6
Continuous
 62
     7
370
    25
100
AcDbLine
 10
515.8218462855
 20
667.5524940694
 30
0.0
 11
515.8218462855
 21
664.3221366182
 31
0.0
  0
SPLINE
  5
18B
330
1F
100
AcDbEntity
  8
0
  6
Continuous
 62
     7
370
    25
100
AcDbSpline
210
0.0
220
0.0
230
1.0
 70
     8
 71
     3
 72
     8
 73
     4
 74
     0
 42
0.00000001
 43
0.00000001
 40
0.0
 40
0.0
 40
0.0
 40
0.0
 40
1.0
 40
1.0
 40
1.0
 40
1.0
 10
515.1397317812364
 20
668.2238320830362
 30
0.0
 10
515.7128947276452
 20
668.3458436217163
 30
0.0
 10
515.959815083948
 20
668.14161336609
 30
0.0
 10
515.8218462855378
 20
667.5524940694364
 30
0.0
  0
SPLINE
  5
18C
330
1F
100
AcDbEntity
  8
0
  6
Continuous
 62
     7
370
    25
100
AcDbSpline
210
0.0
220
0.0
230
1.0
 70
     8
 71
     3
 72
     8
 73
     4
 74
     0
 42
0.00000001
 43
0.00000001
 40
0.0
 40
0.0
 40
0.0
 40
0.0
 40
1.0
 40
1.0
 40
1.0
 40
1.0
 10
515.1157153453538
 20
665.4012418879375
 30
0.0
 10
515.157878513015
 20
666.3410517613298
 30
0.0
 10
515.1331492680695
 20
667.2830306433525
 30
0.0
 10
515.1397317812364
 20
668.2238320830362
 30
0.0
  0
SPLINE
  5
18D
330
1F
100
AcDbEntity
  8
0
  6
Continuous
 62
     7
370
    25
100
AcDbSpline
210
0.0
220
0.0
230
1.0
 70
     8
 71
     3
 72
     8
 73
     4
 74
     0
 42
0.00000001
 43
0.00000001
 40
0.0
 40
0.0
 40
0.0
 40
0.0
 40
1.0
 40
1.0
 40
1.0
 40
1.0
 10
513.9626884789159
 20
667.7540571458876
 30
0.0
 10
514.3458210765584
 20
666.969207642734
 30
0.0
 10
514.7195423208566
 20
666.1796139234706
 30
0.0
 10
515.1157153453538
 20
665.4012418879375
 30
0.0
  0
SPLINE
  5
18E
330
1F
100
AcDbEntity
  8
0
  6
Continuous
 62
     7
370
    25
100
AcDbSpline
210
0.0
220
0.0
230
1.0
 70
     8
 71
     3
 72
     8
 73
     4
 74
     0
 42
0.00000001
 43
0.00000001
 40
0.0
 40
0.0
 40
0.0
 40
0.0
 40
1.0
 40
1.0
 40
1.0
 40
1.0
 10
512.8478266829896
 20
668.2238320830362
 30
0.0
 10
513.3140741816045
 20
668.2183325394282
 30
0.0
 10
513.8782273124057
 20
668.3691548654748
 30
0.0
 10
513.9626884789159
 20
667.7540571458876
 30
0.0
  0
LINE
  5
18F
330
1F
100
AcDbEntity
  8
0
  6
Continuous
 62
     7
370
    25
100
AcDbLine
 10
512.847826683
 20
664.9934747455
 30
0.0
 11
512.847826683
 21
668.223832083
 31
0.0
  0
SPLINE
  5
190
330
1F
100
AcDbEntity
  8
0
  6
Continuous
 62
     7
370
    25
100
AcDbSpline
210
0.0
220
0.0
230
1.0
 70
     8
 71
     3
 72
     8
 73
     4
 74
     0
 42
0.00000001
 43
0.00000001
 40
0.0
 40
0.0
 40
0.0
 40
0.0
 40
1.0
 40
1.0
 40
1.0
 40
1.0
 10
513.5299413009767
 20
664.3221366182154
 30
0.0
 10
512.9567783545679
 20
664.2001250795353
 30
0.0
 10
512.709857998265
 20
664.4043553351615
 30
0.0
 10
512.8478266829896
 20
664.9934747455009
 30
0.0
  0
SPLINE
  5
191
330
1F
100
AcDbEntity
  8
0
  6
Continuous
 62
     7
370
    25
100
AcDbSpline
210
0.0
220
0.0
230
1.0
 70
     8
 71
     3
 72
     8
 73
     4
 74
     0
 42
0.00000001
 43
0.00000001
 40
0.0
 40
0.0
 40
0.0
 40
0.0
 40
1.0
 40
1.0
 40
1.0
 40
1.0
 10
521.7615909851737
 20
667.6202305980387
 30
0.0
 10
521.4455740787661
 20
667.357703474883
 30
0.0
 10
520.7459846112272
 20
667.7646785693544
 30
0.0
 10
520.9376988719299
 20
667.0918458167498
 30
0.0
  0
SPLINE
  5
192
330
1F
100
AcDbEntity
  8
0
  6
Continuous
 62
     7
370
    25
100
AcDbSpline
210
0.0
220
0.0
230
1.0
 70
     8
 71
     3
 72
     8
 73
     4
 74
     0
 42
0.00000001
 43
0.00000001
 40
0.0
 40
0.0
 40
0.0
 40
0.0
 40
1.0
 40
1.0
 40
1.0
 40
1.0
 10
520.8386660464645
 20
668.2212605134979
 30
0.0
 10
521.6005633251614
 20
668.2617960436224
 30
0.0
 10
523.1523978811739
 20
668.2415755717931
 30
0.0
 10
521.7615909851737
 20
667.6202305980387
 30
0.0
  0
SPLINE
  5
193
330
1F
100
AcDbEntity
  8
0
  6
Continuous
 62
     7
370
    25
100
AcDbSpline
210
0.0
220
0.0
230
1.0
 70
     8
 71
     3
 72
     8
 73
     4
 74
     0
 42
0.00000001
 43
0.00000001
 40
0.0
 40
0.0
 40
0.0
 40
0.0
 40
1.0
 40
1.0
 40
1.0
 40
1.0
 10
520.2419478868795
 20
667.4470774533307
 30
0.0
 10
520.1799010979876
 20
667.9685890272305
 30
0.0
 10
520.1886594409242
 20
668.418617561735
 30
0.0
 10
520.8386660464645
 20
668.2212605134979
 30
0.0
  0
LINE
  5
194
330
1F
100
AcDbEntity
  8
0
  6
Continuous
 62
     7
370
    25
100
AcDbLine
 10
520.2419478869
 20
667.4131397839
 30
0.0
 11
520.2419478869
 21
667.4470774533
 31
0.0
  0
SPLINE
  5
195
330
1F
100
AcDbEntity
  8
0
  6
Continuous
 62
     7
370
    25
100
AcDbSpline
210
0.0
220
0.0
230
1.0
 70
     8
 71
     3
 72
     8
 73
     4
 74
     0
 42
0.00000001
 43
0.00000001
 40
0.0
 40
0.0
 40
0.0
 40
0.0
 40
1.0
 40
1.0
 40
1.0
 40
1.0
 10
520.9376988719299
 20
667.0918458167498
 30
0.0
 10
520.3750916386787
 20
666.5886226269562
 30
0.0
 10
520.0936391506866
 20
666.6378014501335
 30
0.0
 10
520.2419478868795
 20
667.4131397839367
 30
0.0
  0
SPLINE
  5
196
330
1F
100
AcDbEntity
  8
0
  6
Continuous
 62
     7
370
    25
100
AcDbSpline
210
0.0
220
0.0
230
1.0
 70
     8
 71
     3
 72
     8
 73
     4
 74
     0
 42
0.00000001
 43
0.00000001
 40
0.0
 40
0.0
 40
0.0
 40
0.0
 40
1.0
 40
1.0
 40
1.0
 40
1.0
 10
516.490317715322
 20
671.1092986312583
 30
0.0
 10
515.3368372431167
 20
671.8715199140748
 30
0.0
 10
514.62435582219
 20
670.2556058696414
 30
0.0
 10
516.1119061419153
 20
670.3058922184792
 30
0.0
  0
SPLINE
  5
197
330
1F
100
AcDbEntity
  8
0
  6
Continuous
 62
     7
370
    25
100
AcDbSpline
210
0.0
220
0.0
230
1.0
 70
     8
 71
     3
 72
     8
 73
     4
 74
     0
 42
0.00000001
 43
0.00000001
 40
0.0
 40
0.0
 40
0.0
 40
0.0
 40
1.0
 40
1.0
 40
1.0
 40
1.0
 10
515.1604083599175
 20
670.2221480674011
 30
0.0
 10
513.8101437014956
 20
671.0849463679481
 30
0.0
 10
516.4186078730432
 20
672.3026069403796
 30
0.0
 10
516.490317715322
 20
671.1092986312583
 30
0.0
  0
SPLINE
  5
198
330
1F
100
AcDbEntity
  8
0
  6
Continuous
 62
     7
370
    25
100
AcDbSpline
210
0.0
220
0.0
230
1.0
 70
     8
 71
     3
 72
     8
 73
     4
 74
     0
 42
0.00000001
 43
0.00000001
 40
0.0
 40
0.0
 40
0.0
 40
0.0
 40
1.0
 40
1.0
 40
1.0
 40
1.0
 10
515.6233612482221
 20
669.086638000522
 30
0.0
 10
516.9097491197479
 20
669.1435476756773
 30
0.0
 10
515.9893113958201
 20
670.3203530339198
 30
0.0
 10
515.1604083599175
 20
670.2221480674011
 30
0.0
  0
SPLINE
  5
199
330
1F
100
AcDbEntity
  8
0
  6
Continuous
 62
     7
370
    25
100
AcDbSpline
210
0.0
220
0.0
230
1.0
 70
     8
 71
     3
 72
     8
 73
     4
 74
     0
 42
0.00000001
 43
0.00000001
 40
0.0
 40
0.0
 40
0.0
 40
0.0
 40
1.0
 40
1.0
 40
1.0
 40
1.0
 10
515.2215854535411
 20
668.8376473147382
 30
0.0
 10
514.347053201698
 20
669.0729709383315
 30
0.0
 10
515.0503491626788
 20
669.4918992837297
 30
0.0
 10
515.6233612482221
 20
669.086638000522
 30
0.0
  0
SPLINE
  5
19A
330
1F
100
AcDbEntity
  8
0
  6
Continuous
 62
     7
370
    25
100
AcDbSpline
210
0.0
220
0.0
230
1.0
 70
     8
 71
     3
 72
     8
 73
     4
 74
     0
 42
0.00000001
 43
0.00000001
 40
0.0
 40
0.0
 40
0.0
 40
0.0
 40
1.0
 40
1.0
 40
1.0
 40
1.0
 10
516.1119061419153
 20
670.3058922184792
 30
0.0
 10
517.3979309014559
 20
669.7845417371541
 30
0.0
 10
516.2835944469458
 20
668.3768960628473
 30
0.0
 10
515.2215854535411
 20
668.8376473147382
 30
0.0
  0
SPLINE
  5
19B
330
1F
100
AcDbEntity
  8
0
  6
Continuous
 62
     7
370
    25
100
AcDbSpline
210
0.0
220
0.0
230
1.0
 70
     8
 71
     3
 72
     8
 73
     4
 74
     0
 42
0.00000001
 43
0.00000001
 40
0.0
 40
0.0
 40
0.0
 40
0.0
 40
1.0
 40
1.0
 40
1.0
 40
1.0
 10
508.0730246981374
 20
669.8210886060385
 30
0.0
 10
508.0761965279391
 20
670.4161568456983
 30
0.0
 10
508.1400560346156
 20
671.781097071765
 30
0.0
 10
507.7825938854643
 20
670.4705043872247
 30
0.0
  0
SPLINE
  5
19C
330
1F
100
AcDbEntity
  8
0
  6
Continuous
 62
     7
370
    25
100
AcDbSpline
210
0.0
220
0.0
230
1.0
 70
     8
 71
     3
 72
     8
 73
     4
 74
     0
 42
0.00000001
 43
0.00000001
 40
0.0
 40
0.0
 40
0.0
 40
0.0
 40
1.0
 40
1.0
 40
1.0
 40
1.0
 10
508.4004397284134
 20
668.8513774724677
 30
0.0
 10
507.8151009345636
 20
668.6984133086626
 30
0.0
 10
508.1674063023597
 20
669.4830939886172
 30
0.0
 10
508.0730246981374
 20
669.8210886060385
 30
0.0
  0
LINE
  5
19D
330
1F
100
AcDbEntity
  8
0
  6
Continuous
 62
     7
370
    25
100
AcDbLine
 10
508.4004397284
 20
670.4829384148
 30
0.0
 11
508.4004397284
 21
668.8513774725
 31
0.0
  0
SPLINE
  5
19E
330
1F
100
AcDbEntity
  8
0
  6
Continuous
 62
     7
370
    25
100
AcDbSpline
210
0.0
220
0.0
230
1.0
 70
     8
 71
     3
 72
     8
 73
     4
 74
     0
 42
0.00000001
 43
0.00000001
 40
0.0
 40
0.0
 40
0.0
 40
0.0
 40
1.0
 40
1.0
 40
1.0
 40
1.0
 10
508.0991394301723
 20
671.5182775491021
 30
0.0
 10
508.6681107864451
 20
671.6558506077439
 30
0.0
 10
508.2931302461358
 20
670.8209671379086
 30
0.0
 10
508.4004397284134
 20
670.4829384147904
 30
0.0
  0
SPLINE
  5
19F
330
1F
100
AcDbEntity
  8
0
  6
Continuous
 62
     7
370
    25
100
AcDbSpline
210
0.0
220
0.0
230
1.0
 70
     8
 71
     3
 72
     8
 73
     4
 74
     0
 42
0.00000001
 43
0.00000001
 40
0.0
 40
0.0
 40
0.0
 40
0.0
 40
1.0
 40
1.0
 40
1.0
 40
1.0
 10
506.993163077746
 20
670.1895098250549
 30
0.0
 10
507.4670144414609
 20
668.9870381110047
 30
0.0
 10
507.4183950653968
 20
671.5630412761437
 30
0.0
 10
508.0991394301723
 20
671.5182775491021
 30
0.0
  0
SPLINE
  5
1A0
330
1F
100
AcDbEntity
  8
0
  6
Continuous
 62
     7
370
    25
100
AcDbSpline
210
0.0
220
0.0
230
1.0
 70
     8
 71
     3
 72
     8
 73
     4
 74
     0
 42
0.00000001
 43
0.00000001
 40
0.0
 40
0.0
 40
0.0
 40
0.0
 40
1.0
 40
1.0
 40
1.0
 40
1.0
 10
506.0466714436093
 20
671.5250475299156
 30
0.0
 10
506.8160290024227
 20
671.7107309939398
 30
0.0
 10
506.6531146152636
 20
670.6059024118963
 30
0.0
 10
506.993163077746
 20
670.1895098250549
 30
0.0
  0
SPLINE
  5
1A1
330
1F
100
AcDbEntity
  8
0
  6
Continuous
 62
     7
370
    25
100
AcDbSpline
210
0.0
220
0.0
230
1.0
 70
     8
 71
     3
 72
     8
 73
     4
 74
     0
 42
0.00000001
 43
0.00000001
 40
0.0
 40
0.0
 40
0.0
 40
0.0
 40
1.0
 40
1.0
 40
1.0
 40
1.0
 10
505.9721102513929
 20
670.1893093972434
 30
0.0
 10
506.0212764554623
 20
670.6095167062713
 30
0.0
 10
505.8733873330257
 20
671.232665871386
 30
0.0
 10
506.0466714436093
 20
671.5250475299156
 30
0.0
  0
LINE
  5
1A2
330
1F
100
AcDbEntity
  8
0
  6
Continuous
 62
     7
370
    25
100
AcDbLine
 10
505.9721111609
 20
669.821088606
 30
0.0
 11
505.9721102514
 21
670.1893093972
 31
0.0
  0
SPLINE
  5
1A3
330
1F
100
AcDbEntity
  8
0
  6
Continuous
 62
     7
370
    25
100
AcDbSpline
210
0.0
220
0.0
230
1.0
 70
     8
 71
     3
 72
     8
 73
     4
 74
     0
 42
0.00000001
 43
0.00000001
 40
0.0
 40
0.0
 40
0.0
 40
0.0
 40
1.0
 40
1.0
 40
1.0
 40
1.0
 10
506.2995286922386
 20
668.8513774724677
 30
0.0
 10
505.7141898983889
 20
668.6984133086626
 30
0.0
 10
506.0664933335288
 20
669.4830939886172
 30
0.0
 10
505.9721111608782
 20
669.8210886060385
 30
0.0
  0
LWPOLYLINE
  5
1A4
330
1F
100
AcDbEntity
  8
0
  6
Continuous
 62
     7
370
    25
100
AcDbPolyline
 90
        3
 70
   128
 43
0.0
 10
506.3025683056
 20
670.4382795059
 10
506.300866428
 20
669.5496140848
 10
506.2995286922
 20
668.8513774725
  0
SPLINE
  5
1A5
330
1F
100
AcDbEntity
  8
0
  6
Continuous
 62
     7
370
    25
100
AcDbSpline
210
0.0
220
0.0
230
1.0
 70
     8
 71
     3
 72
     8
 73
     4
 74
     0
 42
0.00000001
 43
0.00000001
 40
0.0
 40
0.0
 40
0.0
 40
0.0
 40
1.0
 40
1.0
 40
1.0
 40
1.0
 10
506.7492407258769
 20
670.0414994000233
 30
0.0
 10
506.5097293774598
 20
670.7857632376782
 30
0.0
 10
506.194605130823
 20
671.6412636012252
 30
0.0
 10
506.3025683056225
 20
670.4382795059234
 30
0.0
  0
SPLINE
  5
1A6
330
1F
100
AcDbEntity
  8
0
  6
Continuous
 62
     7
370
    25
100
AcDbSpline
210
0.0
220
0.0
230
1.0
 70
     8
 71
     3
 72
     8
 73
     4
 74
     0
 42
0.00000001
 43
0.00000001
 40
0.0
 40
0.0
 40
0.0
 40
0.0
 40
1.0
 40
1.0
 40
1.0
 40
1.0
 10
507.7825938854643
 20
670.4705043872247
 30
0.0
 10
507.711400744492
 20
669.7690893554221
 30
0.0
 10
506.9893892823958
 20
668.676336691128
 30
0.0
 10
506.7492407258769
 20
670.0414994000233
 30
0.0
  0
SPLINE
  5
1A7
330
1F
100
AcDbEntity
  8
0
  6
Continuous
 62
     7
370
    25
100
AcDbSpline
210
0.0
220
0.0
230
1.0
 70
     8
 71
     3
 72
     8
 73
     4
 74
     0
 42
0.00000001
 43
0.00000001
 40
0.0
 40
0.0
 40
0.0
 40
0.0
 40
1.0
 40
1.0
 40
1.0
 40
1.0
 10
509.0403048913263
 20
684.8961066052801
 30
0.0
 10
509.2199235666611
 20
685.4736885131368
 30
0.0
 10
510.0794502214002
 20
685.7168230234099
 30
0.0
 10
509.3176476428548
 20
685.0629642931026
 30
0.0
  0
SPLINE
  5
1A8
330
1F
100
AcDbEntity
  8
0
  6
Continuous
 62
     7
370
    25
100
AcDbSpline
210
0.0
220
0.0
230
1.0
 70
     8
 71
     3
 72
     8
 73
     4
 74
     0
 42
0.00000001
 43
0.00000001
 40
0.0
 40
0.0
 40
0.0
 40
0.0
 40
1.0
 40
1.0
 40
1.0
 40
1.0
 10
509.3176476428548
 20
685.0629642931026
 30
0.0
 10
509.3564411676728
 20
685.1612995433829
 30
0.0
 10
508.9834924174071
 20
684.6886186871819
 30
0.0
 10
509.0403048913263
 20
684.8961066052801
 30
0.0
  0
LINE
  5
1A9
330
1F
100
AcDbEntity
  8
0
  6
Continuous
 62
     7
370
    25
100
AcDbLine
 10
508.6944702837
 20
682.8210798603
 30
0.0
 11
508.7015472158
 21
682.9355480147
 31
0.0
  0
LINE
  5
1AA
330
1F
100
AcDbEntity
  8
0
  6
Continuous
 62
     7
370
    25
100
AcDbLine
 10
508.8505287437
 20
682.9431024265
 30
0.0
 11
508.6944702837
 21
682.8210798603
 31
0.0
  0
SPLINE
  5
1AB
330
1F
100
AcDbEntity
  8
0
  6
Continuous
 62
     7
370
    25
100
AcDbSpline
210
0.0
220
0.0
230
1.0
 70
     8
 71
     3
 72
     8
 73
     4
 74
     0
 42
0.00000001
 43
0.00000001
 40
0.0
 40
0.0
 40
0.0
 40
0.0
 40
1.0
 40
1.0
 40
1.0
 40
1.0
 10
508.7015447146975
 20
682.9355480146646
 30
0.0
 10
509.0441307547071
 20
683.6251905557335
 30
0.0
 10
509.6587235962959
 20
683.5708772335896
 30
0.0
 10
508.8505287436869
 20
682.9431024265043
 30
0.0
  0
SPLINE
  5
1AC
330
1F
100
AcDbEntity
  8
0
  6
Continuous
 62
     7
370
    25
100
AcDbSpline
210
0.0
220
0.0
230
1.0
 70
     8
 71
     3
 72
     8
 73
     4
 74
     0
 42
0.00000001
 43
0.00000001
 40
0.5
 40
0.5
 40
0.5
 40
0.5
 40
1.0
 40
1.0
 40
1.0
 40
1.0
 10
513.663846405614
 20
688.1549996535266
 30
0.0
 10
513.725459256357
 20
688.0837021917542
 30
0.0
 10
513.6616636410191
 20
687.9095368183869
 30
0.0
 10
513.2876210073717
 20
687.8463959187419
 30
0.0
  0
SPLINE
  5
1AD
330
1F
100
AcDbEntity
  8
0
  6
Continuous
 62
     7
370
    25
100
AcDbSpline
210
0.0
220
0.0
230
1.0
 70
     8
 71
     3
 72
     8
 73
     4
 74
     0
 42
0.00000001
 43
0.00000001
 40
0.0
 40
0.0
 40
0.0
 40
0.0
 40
0.5
 40
0.5
 40
0.5
 40
0.5
 10
513.2876210073717
 20
687.8463959187419
 30
0.0
 10
513.4152122380472
 20
688.1947266654764
 30
0.0
 10
513.602233554871
 20
688.226297115299
 30
0.0
 10
513.663846405614
 20
688.1549996535266
 30
0.0
  0
SPLINE
  5
1AE
330
1F
100
AcDbEntity
  8
0
  6
Continuous
 62
     7
370
    25
100
AcDbSpline
210
0.0
220
0.0
230
1.0
 70
     8
 71
     3
 72
     8
 73
     4
 74
     0
 42
0.00000001
 43
0.00000001
 40
0.5
 40
0.5
 40
0.5
 40
0.5
 40
1.0
 40
1.0
 40
1.0
 40
1.0
 10
516.2043150868458
 20
680.1853115916109
 30
0.0
 10
516.2319097076967
 20
680.0946650585622
 30
0.0
 10
516.1264381814193
 20
679.8875820887704
 30
0.0
 10
515.8051166454608
 20
679.8360022813818
 30
0.0
  0
SPLINE
  5
1AF
330
1F
100
AcDbEntity
  8
0
  6
Continuous
 62
     7
370
    25
100
AcDbSpline
210
0.0
220
0.0
230
1.0
 70
     8
 71
     3
 72
     8
 73
     4
 74
     0
 42
0.00000001
 43
0.00000001
 40
0.0
 40
0.0
 40
0.0
 40
0.0
 40
0.5
 40
0.5
 40
0.5
 40
0.5
 10
515.8051166454608
 20
679.8360022813818
 30
0.0
 10
516.0160596980156
 20
680.2501682209652
 30
0.0
 10
516.1767204659948
 20
680.2759581246595
 30
0.0
 10
516.2043150868458
 20
680.1853115916109
 30
0.0
  0
SPLINE
  5
1B0
330
1F
100
AcDbEntity
  8
0
  6
Continuous
 62
     7
370
    25
100
AcDbSpline
210
0.0
220
0.0
230
1.0
 70
     8
 71
     3
 72
     8
 73
     4
 74
     0
 42
0.00000001
 43
0.00000001
 40
0.5
 40
0.5
 40
0.5
 40
0.5
 40
1.0
 40
1.0
 40
1.0
 40
1.0
 10
514.7514733957905
 20
685.7719068642979
 30
0.0
 10
514.8535710302233
 20
685.7585566866628
 30
0.0
 10
514.8350004498977
 20
685.6020745770762
 30
0.0
 10
514.3894687515154
 20
685.3425110684435
 30
0.0
  0
SPLINE
  5
1B1
330
1F
100
AcDbEntity
  8
0
  6
Continuous
 62
     7
370
    25
100
AcDbSpline
210
0.0
220
0.0
230
1.0
 70
     8
 71
     3
 72
     8
 73
     4
 74
     0
 42
0.00000001
 43
0.00000001
 40
0.0
 40
0.0
 40
0.0
 40
0.0
 40
0.5
 40
0.5
 40
0.5
 40
0.5
 10
514.3894687515154
 20
685.3425110684435
 30
0.0
 10
514.4266099121664
 20
685.6554752876167
 30
0.0
 10
514.6493757613578
 20
685.785257041933
 30
0.0
 10
514.7514733957905
 20
685.7719068642979
 30
0.0
  0
SPLINE
  5
1B2
330
1F
100
AcDbEntity
  8
0
  6
Continuous
 62
     7
370
    25
100
AcDbSpline
210
0.0
220
0.0
230
1.0
 70
     8
 71
     3
 72
     8
 73
     4
 74
     0
 42
0.00000001
 43
0.00000001
 40
0.5
 40
0.5
 40
0.5
 40
0.5
 40
1.0
 40
1.0
 40
1.0
 40
1.0
 10
514.5533311349383
 20
686.4327962424173
 30
0.0
 10
514.6259551235768
 20
686.3739075557844
 30
0.0
 10
514.5713341396264
 20
686.1926932738467
 30
0.0
 10
514.1715962171718
 20
686.0658194565032
 30
0.0
  0
SPLINE
  5
1B3
330
1F
100
AcDbEntity
  8
0
  6
Continuous
 62
     7
370
    25
100
AcDbSpline
210
0.0
220
0.0
230
1.0
 70
     8
 71
     3
 72
     8
 73
     4
 74
     0
 42
0.00000001
 43
0.00000001
 40
0.0
 40
0.0
 40
0.0
 40
0.0
 40
0.5
 40
0.5
 40
0.5
 40
0.5
 10
514.1715962171718
 20
686.0658194565032
 30
0.0
 10
514.2808381850725
 20
686.4282480203786
 30
0.0
 10
514.4807071462999
 20
686.4916849290504
 30
0.0
 10
514.5533311349383
 20
686.4327962424173
 30
0.0
  0
SPLINE
  5
1B4
330
1F
100
AcDbEntity
  8
0
  6
Continuous
 62
     7
370
    25
100
AcDbSpline
210
0.0
220
0.0
230
1.0
 70
     8
 71
     3
 72
     8
 73
     4
 74
     0
 42
0.00000001
 43
0.00000001
 40
0.5
 40
0.5
 40
0.5
 40
0.5
 40
1.0
 40
1.0
 40
1.0
 40
1.0
 10
515.0443180533648
 20
684.6918443187203
 30
0.0
 10
515.0083449275646
 20
684.5388328048394
 30
0.0
 10
514.8398702886573
 20
684.2682447718253
 30
0.0
 10
514.6468135140433
 20
684.3391147613205
 30
0.0
  0
SPLINE
  5
1B5
330
1F
100
AcDbEntity
  8
0
  6
Continuous
 62
     7
370
    25
100
AcDbSpline
210
0.0
220
0.0
230
1.0
 70
     8
 71
     3
 72
     8
 73
     4
 74
     0
 42
0.00000001
 43
0.00000001
 40
0.0
 40
0.0
 40
0.0
 40
0.0
 40
0.5
 40
0.5
 40
0.5
 40
0.5
 10
514.6468135140433
 20
684.3391147613205
 30
0.0
 10
514.983762791858
 20
684.8802908273489
 30
0.0
 10
515.080291179165
 20
684.8448558326013
 30
0.0
 10
515.0443180533648
 20
684.6918443187203
 30
0.0
  0
SPLINE
  5
1B6
330
1F
100
AcDbEntity
  8
0
  6
Continuous
 62
     7
370
    25
100
AcDbSpline
210
0.0
220
0.0
230
1.0
 70
     8
 71
     3
 72
     8
 73
     4
 74
     0
 42
0.00000001
 43
0.00000001
 40
0.0
 40
0.0
 40
0.0
 40
0.0
 40
1.0
 40
1.0
 40
1.0
 40
1.0
 10
508.1797006102542
 20
667.350225800861
 30
0.0
 10
507.3496114919029
 20
668.1452192477265
 30
0.0
 10
505.9229689444821
 20
666.8112060675123
 30
0.0
 10
507.4426195460297
 20
666.626169702242
 30
0.0
  0
SPLINE
  5
1B7
330
1F
100
AcDbEntity
  8
0
  6
Continuous
 62
     7
370
    25
100
AcDbSpline
210
0.0
220
0.0
230
1.0
 70
     8
 71
     3
 72
     8
 73
     4
 74
     0
 42
0.00000001
 43
0.00000001
 40
0.0
 40
0.0
 40
0.0
 40
0.0
 40
1.0
 40
1.0
 40
1.0
 40
1.0
 10
507.5430983393534
 20
665.8656622306894
 30
0.0
 10
506.1638855612928
 20
665.5991063152572
 30
0.0
 10
505.3176563766765
 20
667.561496268105
 30
0.0
 10
506.6740366412761
 20
668.1334289083449
 30
0.0
  0
SPLINE
  5
1B8
330
1F
100
AcDbEntity
  8
0
  6
Continuous
 62
     7
370
    25
100
AcDbSpline
210
0.0
220
0.0
230
1.0
 70
     8
 71
     3
 72
     8
 73
     4
 74
     0
 42
0.00000001
 43
0.00000001
 40
0.0
 40
0.0
 40
0.0
 40
0.0
 40
1.0
 40
1.0
 40
1.0
 40
1.0
 10
506.26922362061
 20
665.2543443317924
 30
0.0
 10
506.8351495655309
 20
664.4799105947536
 30
0.0
 10
508.8735560006767
 20
665.3160390362078
 30
0.0
 10
507.5430983393534
 20
665.8656622306894
 30
0.0
  0
SPLINE
  5
1B9
330
1F
100
AcDbEntity
  8
0
  6
Continuous
 62
     7
370
    25
100
AcDbSpline
210
0.0
220
0.0
230
1.0
 70
     8
 71
     3
 72
     8
 73
     4
 74
     0
 42
0.00000001
 43
0.00000001
 40
0.0
 40
0.0
 40
0.0
 40
0.0
 40
1.0
 40
1.0
 40
1.0
 40
1.0
 10
506.8315752885065
 20
664.3133126786554
 30
0.0
 10
506.1192432505316
 20
664.194415785892
 30
0.0
 10
505.427619509536
 20
665.1571318410505
 30
0.0
 10
506.26922362061
 20
665.2543443317924
 30
0.0
  0
SPLINE
  5
1BA
330
1F
100
AcDbEntity
  8
0
  6
Continuous
 62
     7
370
    25
100
AcDbSpline
210
0.0
220
0.0
230
1.0
 70
     8
 71
     3
 72
     8
 73
     4
 74
     0
 42
0.00000001
 43
0.00000001
 40
0.0
 40
0.0
 40
0.0
 40
0.0
 40
1.0
 40
1.0
 40
1.0
 40
1.0
 10
507.7841466041536
 20
664.3357542271456
 30
0.0
 10
507.4693950190971
 20
664.2952374551543
 30
0.0
 10
507.1477729551071
 20
664.2827036115826
 30
0.0
 10
506.8315752885065
 20
664.3133126786554
 30
0.0
  0
LINE
  5
1BB
330
1F
100
AcDbEntity
  8
0
  6
Continuous
 62
     7
370
    25
100
AcDbLine
 10
515.5021494881
 20
680.8188927657
 30
0.0
 11
515.4983892214
 21
680.8296778965
 31
0.0
  0
SPLINE
  5
1BC
330
1F
100
AcDbEntity
  8
0
  6
Continuous
 62
     7
370
    25
100
AcDbSpline
210
0.0
220
0.0
230
1.0
 70
     8
 71
     3
 72
     8
 73
     4
 74
     0
 42
0.00000001
 43
0.00000001
 40
0.0
 40
0.0
 40
0.0
 40
0.0
 40
1.0
 40
1.0
 40
1.0
 40
1.0
 10
515.4983892213746
 20
680.8296778964902
 30
0.0
 10
515.9168741927143
 20
681.6827260604379
 30
0.0
 10
515.93133591764
 20
680.7899387343858
 30
0.0
 10
515.5021494881317
 20
680.8188927656788
 30
0.0
  0
SPLINE
  5
1BD
330
1F
100
AcDbEntity
  8
0
  6
Continuous
 62
     7
370
    25
100
AcDbSpline
210
0.0
220
0.0
230
1.0
 70
     8
 71
     3
 72
     8
 73
     4
 74
     0
 42
0.00000001
 43
0.00000001
 40
0.5
 40
0.5
 40
0.5
 40
0.5
 40
1.0
 40
1.0
 40
1.0
 40
1.0
 10
515.6251303391361
 20
682.2169228219387
 30
0.0
 10
515.6558703720846
 20
682.1072430505768
 30
0.0
 10
515.549758937671
 20
681.8857540334093
 30
0.0
 10
515.2145759370504
 20
681.8814950845223
 30
0.0
  0
SPLINE
  5
1BE
330
1F
100
AcDbEntity
  8
0
  6
Continuous
 62
     7
370
    25
100
AcDbSpline
210
0.0
220
0.0
230
1.0
 70
     8
 71
     3
 72
     8
 73
     4
 74
     0
 42
0.00000001
 43
0.00000001
 40
0.0
 40
0.0
 40
0.0
 40
0.0
 40
0.5
 40
0.5
 40
0.5
 40
0.5
 10
515.2145759370504
 20
681.8814950845223
 30
0.0
 10
515.4267988058775
 20
682.3244731188571
 30
0.0
 10
515.5943903061877
 20
682.3266025933007
 30
0.0
 10
515.6251303391361
 20
682.2169228219387
 30
0.0
  0
LINE
  5
1BF
330
1F
100
AcDbEntity
  8
0
  6
Continuous
 62
     7
370
    25
100
AcDbLine
 10
516.3934574227
 20
678.5383108725
 30
0.0
 11
516.3457094472
 21
678.5701451298
 31
0.0
  0
SPLINE
  5
1C0
330
1F
100
AcDbEntity
  8
0
  6
Continuous
 62
     7
370
    25
100
AcDbSpline
210
0.0
220
0.0
230
1.0
 70
     8
 71
     3
 72
     8
 73
     4
 74
     0
 42
0.00000001
 43
0.00000001
 40
0.0
 40
0.0
 40
0.0
 40
0.0
 40
1.0
 40
1.0
 40
1.0
 40
1.0
 10
516.3457094472313
 20
678.5701451298405
 30
0.0
 10
516.4067203324258
 20
679.1170023523124
 30
0.0
 10
517.1078547880295
 20
678.9324093611003
 30
0.0
 10
516.3934574227425
 20
678.5383108724533
 30
0.0
  0
SPLINE
  5
1C1
330
1F
100
AcDbEntity
  8
0
  6
Continuous
 62
     7
370
    25
100
AcDbSpline
210
0.0
220
0.0
230
1.0
 70
     8
 71
     3
 72
     8
 73
     4
 74
     0
 42
0.00000001
 43
0.00000001
 40
0.0
 40
0.0
 40
0.0
 40
0.0
 40
1.0
 40
1.0
 40
1.0
 40
1.0
 10
522.9251760658539
 20
684.3825091446358
 30
0.0
 10
523.1600597259586
 20
685.0194457650508
 30
0.0
 10
524.2196777963323
 20
685.4768193024169
 30
0.0
 10
523.2940346335887
 20
684.6401264116811
 30
0.0
  0
SPLINE
  5
1C2
330
1F
100
AcDbEntity
  8
0
  6
Continuous
 62
     7
370
    25
100
AcDbSpline
210
0.0
220
0.0
230
1.0
 70
     8
 71
     3
 72
     8
 73
     4
 74
     0
 42
0.00000001
 43
0.00000001
 40
0.0
 40
0.0
 40
0.0
 40
0.0
 40
1.0
 40
1.0
 40
1.0
 40
1.0
 10
507.4426195460297
 20
666.626169702242
 30
0.0
 10
508.9047670332979
 20
666.7809909212375
 30
0.0
 10
509.2336059764151
 20
664.5269040385662
 30
0.0
 10
507.7841466041536
 20
664.3357542271456
 30
0.0
  0
SPLINE
  5
1C3
330
1F
100
AcDbEntity
  8
0
  6
Continuous
 62
     7
370
    25
100
AcDbSpline
210
0.0
220
0.0
230
1.0
 70
     8
 71
     3
 72
     8
 73
     4
 74
     0
 42
0.00000001
 43
0.00000001
 40
0.0
 40
0.0
 40
0.0
 40
0.0
 40
1.0
 40
1.0
 40
1.0
 40
1.0
 10
522.7248450008562
 20
683.7504225816763
 30
0.0
 10
522.9647097979778
 20
684.4894391441939
 30
0.0
 10
524.0098175996508
 20
684.7863896018658
 30
0.0
 10
522.9876603171498
 20
683.9489289918953
 30
0.0
  0
SPLINE
  5
1C4
330
1F
100
AcDbEntity
  8
0
  6
Continuous
 62
     7
370
    25
100
AcDbSpline
210
0.0
220
0.0
230
1.0
 70
     8
 71
     3
 72
     8
 73
     4
 74
     0
 42
0.00000001
 43
0.00000001
 40
0.0
 40
0.0
 40
0.0
 40
0.0
 40
1.0
 40
1.0
 40
1.0
 40
1.0
 10
524.3769146081463
 20
686.8853701419165
 30
0.0
 10
524.134114220016
 20
686.6891391501018
 30
0.0
 10
523.9251066657544
 20
686.4356803906667
 30
0.0
 10
523.6541954528416
 20
686.277857301925
 30
0.0
  0
SPLINE
  5
1C5
330
1F
100
AcDbEntity
  8
0
  6
Continuous
 62
     7
370
    25
100
AcDbSpline
210
0.0
220
0.0
230
1.0
 70
     8
 71
     3
 72
     8
 73
     4
 74
     0
 42
0.00000001
 43
0.00000001
 40
0.0
 40
0.0
 40
0.0
 40
0.0
 40
1.0
 40
1.0
 40
1.0
 40
1.0
 10
523.6541954528416
 20
686.277857301925
 30
0.0
 10
523.8924171511771
 20
686.8875525654543
 30
0.0
 10
525.4519288995381
 20
687.9842627411188
 30
0.0
 10
524.3769146081463
 20
686.8853701419165
 30
0.0
  0
SPLINE
  5
1C6
330
1F
100
AcDbEntity
  8
0
  6
Continuous
 62
     7
370
    25
100
AcDbSpline
210
0.0
220
0.0
230
1.0
 70
     8
 71
     3
 72
     8
 73
     4
 74
     0
 42
0.00000001
 43
0.00000001
 40
0.0
 40
0.0
 40
0.0
 40
0.0
 40
1.0
 40
1.0
 40
1.0
 40
1.0
 10
524.6628067483756
 20
688.0606779190128
 30
0.0
 10
524.9724219018094
 20
688.6718541655825
 30
0.0
 10
526.8486906501984
 20
689.8570107584277
 30
0.0
 10
525.5161260526127
 20
688.7451762978344
 30
0.0
  0
SPLINE
  5
1C7
330
1F
100
AcDbEntity
  8
0
  6
Continuous
 62
     7
370
    25
100
AcDbSpline
210
0.0
220
0.0
230
1.0
 70
     8
 71
     3
 72
     8
 73
     4
 74
     0
 42
0.00000001
 43
0.00000001
 40
0.0
 40
0.0
 40
0.0
 40
0.0
 40
1.0
 40
1.0
 40
1.0
 40
1.0
 10
525.5161260526127
 20
688.7451762978344
 30
0.0
 10
525.3579437171982
 20
688.6531180873633
 30
0.0
 10
524.5584312655074
 20
687.808967190224
 30
0.0
 10
524.6628067483756
 20
688.0606779190128
 30
0.0
  0
LINE
  5
1C8
330
1F
100
AcDbEntity
  8
0
  6
Continuous
 62
     7
370
    25
100
AcDbLine
 10
522.8036795232
 20
683.7990470736
 30
0.0
 11
522.7248450009
 21
683.7504225817
 31
0.0
  0
SPLINE
  5
1C9
330
1F
100
AcDbEntity
  8
0
  6
Continuous
 62
     7
370
    25
100
AcDbSpline
210
0.0
220
0.0
230
1.0
 70
     8
 71
     3
 72
     8
 73
     4
 74
     0
 42
0.00000001
 43
0.00000001
 40
0.0
 40
0.0
 40
0.0
 40
0.0
 40
1.0
 40
1.0
 40
1.0
 40
1.0
 10
522.1791533974151
 20
681.9909454950732
 30
0.0
 10
522.3162745555745
 20
682.5776578390186
 30
0.0
 10
523.3953064980485
 20
683.0485334806883
 30
0.0
 10
522.5495713912932
 20
682.2791799008727
 30
0.0
  0
SPLINE
  5
1CA
330
1F
100
AcDbEntity
  8
0
  6
Continuous
 62
     7
370
    25
100
AcDbSpline
210
0.0
220
0.0
230
1.0
 70
     8
 71
     3
 72
     8
 73
     4
 74
     0
 42
0.00000001
 43
0.00000001
 40
0.0
 40
0.0
 40
0.0
 40
0.0
 40
1.0
 40
1.0
 40
1.0
 40
1.0
 10
522.5495713912932
 20
682.2791799008727
 30
0.0
 10
522.410782350875
 20
682.2101303029439
 30
0.0
 10
522.3356662589717
 20
682.0333048841766
 30
0.0
 10
522.1791533974151
 20
681.9909454950732
 30
0.0
  0
LINE
  5
1CB
330
1F
100
AcDbEntity
  8
0
  6
Continuous
 62
     7
370
    25
100
AcDbLine
 10
522.6297846933
 20
683.2170354042
 30
0.0
 11
522.5353364693
 21
683.1532934484
 31
0.0
  0
SPLINE
  5
1CC
330
1F
100
AcDbEntity
  8
0
  6
Continuous
 62
     7
370
    25
100
AcDbSpline
210
0.0
220
0.0
230
1.0
 70
     8
 71
     3
 72
     8
 73
     4
 74
     0
 42
0.00000001
 43
0.00000001
 40
0.0
 40
0.0
 40
0.0
 40
0.0
 40
1.0
 40
1.0
 40
1.0
 40
1.0
 10
523.5734015582218
 20
685.3214666029795
 30
0.0
 10
523.4230941145112
 20
685.2274790332409
 30
0.0
 10
523.3067731113412
 20
685.0170588210178
 30
0.0
 10
523.1341137034372
 20
684.9726687787274
 30
0.0
  0
SPLINE
  5
1CD
330
1F
100
AcDbEntity
  8
0
  6
Continuous
 62
     7
370
    25
100
AcDbSpline
210
0.0
220
0.0
230
1.0
 70
     8
 71
     3
 72
     8
 73
     4
 74
     0
 42
0.00000001
 43
0.00000001
 40
0.0
 40
0.0
 40
0.0
 40
0.0
 40
1.0
 40
1.0
 40
1.0
 40
1.0
 10
522.5353364692511
 20
683.1532934484449
 30
0.0
 10
522.7582123093144
 20
683.858192377175
 30
0.0
 10
523.7667273130978
 20
684.168190423898
 30
0.0
 10
522.8443455644529
 20
683.3945821584075
 30
0.0
  0
SPLINE
  5
1CE
330
1F
100
AcDbEntity
  8
0
  6
Continuous
 62
     7
370
    25
100
AcDbSpline
210
0.0
220
0.0
230
1.0
 70
     8
 71
     3
 72
     8
 73
     4
 74
     0
 42
0.00000001
 43
0.00000001
 40
0.0
 40
0.0
 40
0.0
 40
0.0
 40
1.0
 40
1.0
 40
1.0
 40
1.0
 10
506.6740366412761
 20
668.1334289083449
 30
0.0
 10
507.365960057661
 20
668.636785110356
 30
0.0
 10
509.4419604065833
 20
667.8022221203848
 30
0.0
 10
508.1797006102542
 20
667.350225800861
 30
0.0
  0
SPLINE
  5
1CF
330
1F
100
AcDbEntity
  8
0
  6
Continuous
 62
     7
370
    25
100
AcDbSpline
210
0.0
220
0.0
230
1.0
 70
     8
 71
     3
 72
     8
 73
     4
 74
     0
 42
0.00000001
 43
0.00000001
 40
0.0
 40
0.0
 40
0.0
 40
0.0
 40
1.0
 40
1.0
 40
1.0
 40
1.0
 10
526.8870561485215
 20
689.5545152828852
 30
0.0
 10
525.9402384639235
 20
688.6820724597133
 30
0.0
 10
524.9706910376972
 20
687.8275682098839
 30
0.0
 10
523.9951188401322
 20
686.9896669543108
 30
0.0
  0
SPLINE
  5
1D0
330
1F
100
AcDbEntity
  8
0
  6
Continuous
 62
     7
370
    25
100
AcDbSpline
210
0.0
220
0.0
230
1.0
 70
     8
 71
     3
 72
     8
 73
     4
 74
     0
 42
0.00000001
 43
0.00000001
 40
0.0
 40
0.0
 40
0.0
 40
0.0
 40
1.0
 40
1.0
 40
1.0
 40
1.0
 10
523.3523903902878
 20
685.5874166875511
 30
0.0
 10
523.4476094030522
 20
686.0647774137803
 30
0.0
 10
524.8681104239656
 20
687.0501661403678
 30
0.0
 10
523.9835971399558
 20
686.1084190633976
 30
0.0
  0
SPLINE
  5
1D1
330
1F
100
AcDbEntity
  8
0
  6
Continuous
 62
     7
370
    25
100
AcDbSpline
210
0.0
220
0.0
230
1.0
 70
     8
 71
     3
 72
     8
 73
     4
 74
     0
 42
0.00000001
 43
0.00000001
 40
0.0
 40
0.0
 40
0.0
 40
0.0
 40
1.0
 40
1.0
 40
1.0
 40
1.0
 10
523.9835971399558
 20
686.1084190633976
 30
0.0
 10
523.7704550657573
 20
685.9434361657279
 30
0.0
 10
523.5926627504859
 20
685.7134226854397
 30
0.0
 10
523.3523903902878
 20
685.5874166875511
 30
0.0
  0
SPLINE
  5
1D2
330
1F
100
AcDbEntity
  8
0
  6
Continuous
 62
     7
370
    25
100
AcDbSpline
210
0.0
220
0.0
230
1.0
 70
     8
 71
     3
 72
     8
 73
     4
 74
     0
 42
0.00000001
 43
0.00000001
 40
0.0
 40
0.0
 40
0.0
 40
0.0
 40
1.0
 40
1.0
 40
1.0
 40
1.0
 10
524.0610179811626
 20
687.1184049321981
 30
0.0
 10
524.8833829549898
 20
688.0110404878993
 30
0.0
 10
525.8223315458524
 20
688.9803457636783
 30
0.0
 10
526.8870561485215
 20
689.5545152828852
 30
0.0
  0
SPLINE
  5
1D3
330
1F
100
AcDbEntity
  8
0
  6
Continuous
 62
     7
370
    25
100
AcDbSpline
210
0.0
220
0.0
230
1.0
 70
     8
 71
     3
 72
     8
 73
     4
 74
     0
 42
0.00000001
 43
0.00000001
 40
0.0
 40
0.0
 40
0.0
 40
0.0
 40
1.0
 40
1.0
 40
1.0
 40
1.0
 10
510.0274295978805
 20
667.0000357820658
 30
0.0
 10
510.0671312437185
 20
666.3113140948102
 30
0.0
 10
509.673025933932
 20
664.7631254377848
 30
0.0
 10
510.8997824956986
 20
665.0444874319948
 30
0.0
  0
SPLINE
  5
1D4
330
1F
100
AcDbEntity
  8
0
  6
Continuous
 62
     7
370
    25
100
AcDbSpline
210
0.0
220
0.0
230
1.0
 70
     8
 71
     3
 72
     8
 73
     4
 74
     0
 42
0.00000001
 43
0.00000001
 40
0.0
 40
0.0
 40
0.0
 40
0.0
 40
1.0
 40
1.0
 40
1.0
 40
1.0
 10
510.8997824956986
 20
665.0444874319948
 30
0.0
 10
512.0485052232011
 20
665.5977992712704
 30
0.0
 10
511.0588507834303
 20
668.741704579088
 30
0.0
 10
510.0274295978805
 20
667.0000357820658
 30
0.0
  0
SPLINE
  5
1D5
330
1F
100
AcDbEntity
  8
0
  6
Continuous
 62
     7
370
    25
100
AcDbSpline
210
0.0
220
0.0
230
1.0
 70
     8
 71
     3
 72
     8
 73
     4
 74
     0
 42
0.00000001
 43
0.00000001
 40
0.0
 40
0.0
 40
0.0
 40
0.0
 40
1.0
 40
1.0
 40
1.0
 40
1.0
 10
510.8288682256403
 20
669.8540858676864
 30
0.0
 10
510.6098395081753
 20
670.466540395772
 30
0.0
 10
510.2850634630315
 20
671.7929199252441
 30
0.0
 10
510.0598965159432
 20
670.4151243525707
 30
0.0
  0
SPLINE
  5
1D6
330
1F
100
AcDbEntity
  8
0
  6
Continuous
 62
     7
370
    25
100
AcDbSpline
210
0.0
220
0.0
230
1.0
 70
     8
 71
     3
 72
     8
 73
     4
 74
     0
 42
0.00000001
 43
0.00000001
 40
0.0
 40
0.0
 40
0.0
 40
0.0
 40
1.0
 40
1.0
 40
1.0
 40
1.0
 10
510.0598965159432
 20
670.4151243525707
 30
0.0
 10
509.495601960186
 20
669.5073261998747
 30
0.0
 10
510.2554485770203
 20
669.9071620625219
 30
0.0
 10
510.8288682256403
 20
669.8540858676864
 30
0.0
  0
LINE
  5
1D7
330
1F
100
AcDbEntity
  8
0
  6
Continuous
 62
     7
370
    25
100
AcDbLine
 10
728.378903717
 20
473.3233543968
 30
0.0
 11
748.378903717
 21
473.3233543968
 31
0.0
  0
LINE
  5
1D8
330
1F
100
AcDbEntity
  8
0
  6
Continuous
 62
     7
370
    25
100
AcDbLine
 10
728.378903717
 20
473.3233543968
 30
0.0
 11
728.378903717
 21
493.3233543968
 31
0.0
  0
LINE
  5
1D9
330
1F
100
AcDbEntity
  8
0
  6
Continuous
 62
     7
370
    25
100
AcDbLine
 10
728.378903717
 20
493.3233543968
 30
0.0
 11
738.378903717
 21
493.3233543968
 31
0.0
  0
LINE
  5
1DA
330
1F
100
AcDbEntity
  8
0
  6
Continuous
 62
     7
370
    25
100
AcDbLine
 10
738.378903717
 20
493.3233543968
 30
0.0
 11
738.378903717
 21
503.3233543968
 31
0.0
  0
LINE
  5
1DB
330
1F
100
AcDbEntity
  8
0
  6
Continuous
 62
     7
370
    25
100
AcDbLine
 10
738.378903717
 20
503.3233543968
 30
0.0
 11
728.378903717
 21
503.3233543968
 31
0.0
  0
LINE
  5
1DC
330
1F
100
AcDbEntity
  8
0
  6
Continuous
 62
     7
370
    25
100
AcDbLine
 10
728.378903717
 20
503.3233543968
 30
0.0
 11
728.378903717
 21
526.0900210635
 31
0.0
  0
LINE
  5
1DD
330
1F
100
AcDbEntity
  8
0
  6
Continuous
 62
     7
370
    25
100
AcDbLine
 10
728.378903717
 20
526.0900210635
 30
0.0
 11
738.378903717
 21
526.0900210635
 31
0.0
  0
LINE
  5
1DE
330
1F
100
AcDbEntity
  8
0
  6
Continuous
 62
     7
370
    25
100
AcDbLine
 10
738.378903717
 20
526.0900210635
 30
0.0
 11
738.378903717
 21
536.0900210635
 31
0.0
  0
LINE
  5
1DF
330
1F
100
AcDbEntity
  8
0
  6
Continuous
 62
     7
370
    25
100
AcDbLine
 10
738.378903717
 20
536.0900210635
 30
0.0
 11
728.378903717
 21
536.0900210635
 31
0.0
  0
LINE
  5
1E0
330
1F
100
AcDbEntity
  8
0
  6
Continuous
 62
     7
370
    25
100
AcDbLine
 10
728.378903717
 20
536.0900210635
 30
0.0
 11
728.378903717
 21
558.8566877302
 31
0.0
  0
LINE
  5
1E1
330
1F
100
AcDbEntity
  8
0
  6
Continuous
 62
     7
370
    25
100
AcDbLine
 10
728.378903717
 20
558.8566877302
 30
0.0
 11
738.378903717
 21
558.8566877302
 31
0.0
  0
LINE
  5
1E2
330
1F
100
AcDbEntity
  8
0
  6
Continuous
 62
     7
370
    25
100
AcDbLine
 10
738.378903717
 20
558.8566877302
 30
0.0
 11
738.378903717
 21
568.8566877302
 31
0.0
  0
LINE
  5
1E3
330
1F
100
AcDbEntity
  8
0
  6
Continuous
 62
     7
370
    25
100
AcDbLine
 10
738.378903717
 20
568.8566877302
 30
0.0
 11
728.378903717
 21
568.8566877302
 31
0.0
  0
LINE
  5
1E4
330
1F
100
AcDbEntity
  8
0
  6
Continuous
 62
     7
370
    25
100
AcDbLine
 10
728.378903717
 20
568.8566877302
 30
0.0
 11
728.378903717
 21
591.6233543968
 31
0.0
  0
LINE
  5
1E5
330
1F
100
AcDbEntity
  8
0
  6
Continuous
 62
     7
370
    25
100
AcDbLine
 10
728.378903717
 20
591.6233543968
 30
0.0
 11
738.378903717
 21
591.6233543968
 31
0.0
  0
LINE
  5
1E6
330
1F
100
AcDbEntity
  8
0
  6
Continuous
 62
     7
370
    25
100
AcDbLine
 10
738.378903717
 20
591.6233543968
 30
0.0
 11
738.378903717
 21
601.6233543968
 31
0.0
  0
LINE
  5
1E7
330
1F
100
AcDbEntity
  8
0
  6
Continuous
 62
     7
370
    25
100
AcDbLine
 10
738.378903717
 20
601.6233543968
 30
0.0
 11
728.378903717
 21
601.6233543968
 31
0.0
  0
LINE
  5
1E8
330
1F
100
AcDbEntity
  8
0
  6
Continuous
 62
     7
370
    25
100
AcDbLine
 10
728.378903717
 20
601.6233543968
 30
0.0
 11
728.378903717
 21
621.6233543968
 31
0.0
  0
LINE
  5
1E9
330
1F
100
AcDbEntity
  8
0
  6
Continuous
 62
     7
370
    25
100
AcDbLine
 10
728.378903717
 20
621.6233543968
 30
0.0
 11
748.378903717
 21
621.6233543968
 31
0.0
  0
LINE
  5
1EA
330
1F
100
AcDbEntity
  8
0
  6
Continuous
 62
     7
370
    25
100
AcDbLine
 10
748.378903717
 20
621.6233543968
 30
0.0
 11
748.378903717
 21
611.6233543968
 31
0.0
  0
LINE
  5
1EB
330
1F
100
AcDbEntity
  8
0
  6
Continuous
 62
     7
370
    25
100
AcDbLine
 10
748.378903717
 20
611.6233543968
 30
0.0
 11
758.378903717
 21
611.6233543968
 31
0.0
  0
LINE
  5
1EC
330
1F
100
AcDbEntity
  8
0
  6
Continuous
 62
     7
370
    25
100
AcDbLine
 10
758.378903717
 20
611.6233543968
 30
0.0
 11
758.378903717
 21
621.6233543968
 31
0.0
  0
LINE
  5
1ED
330
1F
100
AcDbEntity
  8
0
  6
Continuous
 62
     7
370
    25
100
AcDbLine
 10
758.378903717
 20
621.6233543968
 30
0.0
 11
766.378903717
 21
621.6233543968
 31
0.0
  0
LINE
  5
1EE
330
1F
100
AcDbEntity
  8
0
  6
Continuous
 62
     7
370
    25
100
AcDbLine
 10
766.378903717
 20
473.3233543968
 30
0.0
 11
766.378903717
 21
621.6233543968
 31
0.0
  0
LINE
  5
1EF
330
1F
100
AcDbEntity
  8
0
  6
Continuous
 62
     7
370
    25
100
AcDbLine
 10
758.378903717
 20
473.3233543968
 30
0.0
 11
766.378903717
 21
473.3233543968
 31
0.0
  0
LINE
  5
1F0
330
1F
100
AcDbEntity
  8
0
  6
Continuous
 62
     7
370
    25
100
AcDbLine
 10
758.378903717
 20
483.3233543968
 30
0.0
 11
758.378903717
 21
473.3233543968
 31
0.0
  0
LINE
  5
1F1
330
1F
100
AcDbEntity
  8
0
  6
Continuous
 62
     7
370
    25
100
AcDbLine
 10
748.378903717
 20
483.3233543968
 30
0.0
 11
758.378903717
 21
483.3233543968
 31
0.0
  0
LINE
  5
1F2
330
1F
100
AcDbEntity
  8
0
  6
Continuous
 62
     7
370
    25
100
AcDbLine
 10
748.378903717
 20
473.3233543968
 30
0.0
 11
748.378903717
 21
483.3233543968
 31
0.0
  0
LINE
  5
1F3
330
1F
100
AcDbEntity
  8
0
  6
Continuous
 62
     7
370
    25
100
AcDbLine
 10
490.5550141675
 20
626.5330955101
 30
0.0
 11
490.5550141675
 21
616.5330955101
 31
0.0
  0
LINE
  5
1F4
330
1F
100
AcDbEntity
  8
0
  6
Continuous
 62
     7
370
    25
100
AcDbLine
 10
490.5550141675
 20
626.5330955101
 30
0.0
 11
500.5550141675
 21
626.5330955101
 31
0.0
  0
LINE
  5
1F5
330
1F
100
AcDbEntity
  8
0
  6
Continuous
 62
     7
370
    25
100
AcDbLine
 10
500.5550141675
 20
626.5330955101
 30
0.0
 11
500.5550141675
 21
616.5330955101
 31
0.0
  0
LINE
  5
1F6
330
1F
100
AcDbEntity
  8
0
  6
Continuous
 62
     7
370
    25
100
AcDbLine
 10
527.7750141675
 20
626.5330955101
 30
0.0
 11
527.7750141675
 21
616.5330955101
 31
0.0
  0
LINE
  5
1F7
330
1F
100
AcDbEntity
  8
0
  6
Continuous
 62
     7
370
    25
100
AcDbLine
 10
527.7750141675
 20
626.5330955101
 30
0.0
 11
537.7750141675
 21
626.5330955101
 31
0.0
  0
LINE
  5
1F8
330
1F
100
AcDbEntity
  8
0
  6
Continuous
 62
     7
370
    25
100
AcDbLine
 10
537.7750141675
 20
626.5330955101
 30
0.0
 11
537.7750141675
 21
616.5330955101
 31
0.0
  0
LINE
  5
1F9
330
1F
100
AcDbEntity
  8
0
  6
Continuous
 62
     7
370
    25
100
AcDbLine
 10
564.9950141675
 20
626.5330955101
 30
0.0
 11
564.9950141675
 21
616.5330955101
 31
0.0
  0
LINE
  5
1FA
330
1F
100
AcDbEntity
  8
0
  6
Continuous
 62
     7
370
    25
100
AcDbLine
 10
564.9950141675
 20
626.5330955101
 30
0.0
 11
574.9950141675
 21
626.5330955101
 31
0.0
  0
LINE
  5
1FB
330
1F
100
AcDbEntity
  8
0
  6
Continuous
 62
     7
370
    25
100
AcDbLine
 10
574.9950141675
 20
626.5330955101
 30
0.0
 11
574.9950141675
 21
616.5330955101
 31
0.0
  0
LINE
  5
1FC
330
1F
100
AcDbEntity
  8
0
  6
Continuous
 62
     7
370
    25
100
AcDbLine
 10
602.2150141675
 20
626.5330955101
 30
0.0
 11
602.2150141675
 21
616.5330955101
 31
0.0
  0
LINE
  5
1FD
330
1F
100
AcDbEntity
  8
0
  6
Continuous
 62
     7
370
    25
100
AcDbLine
 10
602.2150141675
 20
626.5330955101
 30
0.0
 11
612.2150141675
 21
626.5330955101
 31
0.0
  0
LINE
  5
1FE
330
1F
100
AcDbEntity
  8
0
  6
Continuous
 62
     7
370
    25
100
AcDbLine
 10
612.2150141675
 20
626.5330955101
 30
0.0
 11
612.2150141675
 21
616.5330955101
 31
0.0
  0
LINE
  5
1FF
330
1F
100
AcDbEntity
  8
0
  6
Continuous
 62
     7
370
    25
100
AcDbLine
 10
639.4350141675
 20
626.5330955101
 30
0.0
 11
639.4350141675
 21
616.5330955101
 31
0.0
  0
LINE
  5
200
330
1F
100
AcDbEntity
  8
0
  6
Continuous
 62
     7
370
    25
100
AcDbLine
 10
639.4350141675
 20
626.5330955101
 30
0.0
 11
649.4350141675
 21
626.5330955101
 31
0.0
  0
LINE
  5
201
330
1F
100
AcDbEntity
  8
0
  6
Continuous
 62
     7
370
    25
100
AcDbLine
 10
649.4350141675
 20
626.5330955101
 30
0.0
 11
649.4350141675
 21
616.5330955101
 31
0.0
  0
LINE
  5
202
330
1F
100
AcDbEntity
  8
0
  6
Continuous
 62
     7
370
    25
100
AcDbLine
 10
676.6550141675
 20
626.5330955101
 30
0.0
 11
676.6550141675
 21
616.5330955101
 31
0.0
  0
LINE
  5
203
330
1F
100
AcDbEntity
  8
0
  6
Continuous
 62
     7
370
    25
100
AcDbLine
 10
676.6550141675
 20
626.5330955101
 30
0.0
 11
686.6550141675
 21
626.5330955101
 31
0.0
  0
LINE
  5
204
330
1F
100
AcDbEntity
  8
0
  6
Continuous
 62
     7
370
    25
100
AcDbLine
 10
686.6550141675
 20
626.5330955101
 30
0.0
 11
686.6550141675
 21
616.5330955101
 31
0.0
  0
LINE
  5
205
330
1F
100
AcDbEntity
  8
0
  6
Continuous
 62
     7
370
    25
100
AcDbLine
 10
706.6550141675
 20
606.5330955101
 30
0.0
 11
696.6550141675
 21
606.5330955101
 31
0.0
  0
LINE
  5
206
330
1F
100
AcDbEntity
  8
0
  6
Continuous
 62
     7
370
    25
100
AcDbLine
 10
706.6550141675
 20
606.5330955101
 30
0.0
 11
706.6550141675
 21
596.5330955101
 31
0.0
  0
LINE
  5
207
330
1F
100
AcDbEntity
  8
0
  6
Continuous
 62
     7
370
    25
100
AcDbLine
 10
706.6550141675
 20
596.5330955101
 30
0.0
 11
696.6550141675
 21
596.5330955101
 31
0.0
  0
LINE
  5
208
330
1F
100
AcDbEntity
  8
0
  6
Continuous
 62
     7
370
    25
100
AcDbLine
 10
706.6550141675
 20
573.7664288434
 30
0.0
 11
696.6550141675
 21
573.7664288434
 31
0.0
  0
LINE
  5
209
330
1F
100
AcDbEntity
  8
0
  6
Continuous
 62
     7
370
    25
100
AcDbLine
 10
706.6550141675
 20
573.7664288434
 30
0.0
 11
706.6550141675
 21
563.7664288434
 31
0.0
  0
LINE
  5
20A
330
1F
100
AcDbEntity
  8
0
  6
Continuous
 62
     7
370
    25
100
AcDbLine
 10
706.6550141675
 20
563.7664288434
 30
0.0
 11
696.6550141675
 21
563.7664288434
 31
0.0
  0
LINE
  5
20B
330
1F
100
AcDbEntity
  8
0
  6
Continuous
 62
     7
370
    25
100
AcDbLine
 10
706.6550141675
 20
540.9997621767
 30
0.0
 11
696.6550141675
 21
540.9997621767
 31
0.0
  0
LINE
  5
20C
330
1F
100
AcDbEntity
  8
0
  6
Continuous
 62
     7
370
    25
100
AcDbLine
 10
706.6550141675
 20
540.9997621767
 30
0.0
 11
706.6550141675
 21
530.9997621767
 31
0.0
  0
LINE
  5
20D
330
1F
100
AcDbEntity
  8
0
  6
Continuous
 62
     7
370
    25
100
AcDbLine
 10
706.6550141675
 20
530.9997621767
 30
0.0
 11
696.6550141675
 21
530.9997621767
 31
0.0
  0
LINE
  5
20E
330
1F
100
AcDbEntity
  8
0
  6
Continuous
 62
     7
370
    25
100
AcDbLine
 10
706.6550141675
 20
508.2330955101
 30
0.0
 11
696.6550141675
 21
508.2330955101
 31
0.0
  0
LINE
  5
20F
330
1F
100
AcDbEntity
  8
0
  6
Continuous
 62
     7
370
    25
100
AcDbLine
 10
706.6550141675
 20
508.2330955101
 30
0.0
 11
706.6550141675
 21
498.2330955101
 31
0.0
  0
LINE
  5
210
330
1F
100
AcDbEntity
  8
0
  6
Continuous
 62
     7
370
    25
100
AcDbLine
 10
706.6550141675
 20
498.2330955101
 30
0.0
 11
696.6550141675
 21
498.2330955101
 31
0.0
  0
LINE
  5
211
330
1F
100
AcDbEntity
  8
0
  6
Continuous
 62
     7
370
    25
100
AcDbLine
 10
686.6550141675
 20
478.2330955101
 30
0.0
 11
686.6550141675
 21
488.2330955101
 31
0.0
  0
LINE
  5
212
330
1F
100
AcDbEntity
  8
0
  6
Continuous
 62
     7
370
    25
100
AcDbLine
 10
676.6550141675
 20
478.2330955101
 30
0.0
 11
686.6550141675
 21
478.2330955101
 31
0.0
  0
LINE
  5
213
330
1F
100
AcDbEntity
  8
0
  6
Continuous
 62
     7
370
    25
100
AcDbLine
 10
676.6550141675
 20
478.2330955101
 30
0.0
 11
676.6550141675
 21
488.2330955101
 31
0.0
  0
LINE
  5
214
330
1F
100
AcDbEntity
  8
0
  6
Continuous
 62
     7
370
    25
100
AcDbLine
 10
649.4350141675
 20
478.2330955101
 30
0.0
 11
649.4350141675
 21
488.2330955101
 31
0.0
  0
LINE
  5
215
330
1F
100
AcDbEntity
  8
0
  6
Continuous
 62
     7
370
    25
100
AcDbLine
 10
639.4350141675
 20
478.2330955101
 30
0.0
 11
649.4350141675
 21
478.2330955101
 31
0.0
  0
LINE
  5
216
330
1F
100
AcDbEntity
  8
0
  6
Continuous
 62
     7
370
    25
100
AcDbLine
 10
639.4350141675
 20
478.2330955101
 30
0.0
 11
639.4350141675
 21
488.2330955101
 31
0.0
  0
LINE
  5
217
330
1F
100
AcDbEntity
  8
0
  6
Continuous
 62
     7
370
    25
100
AcDbLine
 10
612.2150141675
 20
478.2330955101
 30
0.0
 11
612.2150141675
 21
488.2330955101
 31
0.0
  0
LINE
  5
218
330
1F
100
AcDbEntity
  8
0
  6
Continuous
 62
     7
370
    25
100
AcDbLine
 10
602.2150141675
 20
478.2330955101
 30
0.0
 11
612.2150141675
 21
478.2330955101
 31
0.0
  0
LINE
  5
219
330
1F
100
AcDbEntity
  8
0
  6
Continuous
 62
     7
370
    25
100
AcDbLine
 10
602.2150141675
 20
478.2330955101
 30
0.0
 11
602.2150141675
 21
488.2330955101
 31
0.0
  0
LINE
  5
21A
330
1F
100
AcDbEntity
  8
0
  6
Continuous
 62
     7
370
    25
100
AcDbLine
 10
574.9950141675
 20
478.2330955101
 30
0.0
 11
574.9950141675
 21
488.2330955101
 31
0.0
  0
LINE
  5
21B
330
1F
100
AcDbEntity
  8
0
  6
Continuous
 62
     7
370
    25
100
AcDbLine
 10
564.9950141675
 20
478.2330955101
 30
0.0
 11
574.9950141675
 21
478.2330955101
 31
0.0
  0
LINE
  5
21C
330
1F
100
AcDbEntity
  8
0
  6
Continuous
 62
     7
370
    25
100
AcDbLine
 10
564.9950141675
 20
478.2330955101
 30
0.0
 11
564.9950141675
 21
488.2330955101
 31
0.0
  0
LINE
  5
21D
330
1F
100
AcDbEntity
  8
0
  6
Continuous
 62
     7
370
    25
100
AcDbLine
 10
527.7750141675
 20
478.2330955101
 30
0.0
 11
537.7750141675
 21
478.2330955101
 31
0.0
  0
LINE
  5
21E
330
1F
100
AcDbEntity
  8
0
  6
Continuous
 62
     7
370
    25
100
AcDbLine
 10
527.7750141675
 20
478.2330955101
 30
0.0
 11
527.7750141675
 21
488.2330955101
 31
0.0
  0
LINE
  5
21F
330
1F
100
AcDbEntity
  8
0
  6
Continuous
 62
     7
370
    25
100
AcDbLine
 10
500.5550141675
 20
478.2330955101
 30
0.0
 11
500.5550141675
 21
488.2330955101
 31
0.0
  0
LINE
  5
220
330
1F
100
AcDbEntity
  8
0
  6
Continuous
 62
     7
370
    25
100
AcDbLine
 10
490.5550141675
 20
478.2330955101
 30
0.0
 11
500.5550141675
 21
478.2330955101
 31
0.0
  0
LINE
  5
221
330
1F
100
AcDbEntity
  8
0
  6
Continuous
 62
     7
370
    25
100
AcDbLine
 10
490.5550141675
 20
478.2330955101
 30
0.0
 11
490.5550141675
 21
488.2330955101
 31
0.0
  0
LINE
  5
222
330
1F
100
AcDbEntity
  8
0
  6
Continuous
 62
     7
370
    25
100
AcDbLine
 10
537.7750141675
 20
478.2330955101
 30
0.0
 11
537.7750141675
 21
488.2330955101
 31
0.0
  0
LINE
  5
223
330
1F
100
AcDbEntity
  8
0
  6
Continuous
 62
     7
370
    25
100
AcDbLine
 10
686.6550141675
 20
488.2330955101
 30
0.0
 11
696.6550141675
 21
488.2330955101
 31
0.0
  0
LINE
  5
224
330
1F
100
AcDbEntity
  8
0
  6
Continuous
 62
     7
370
    25
100
AcDbLine
 10
480.5550141675
 20
616.5330955101
 30
0.0
 11
480.5550141675
 21
488.2330955101
 31
0.0
  0
LINE
  5
225
330
1F
100
AcDbEntity
  8
0
  6
Continuous
 62
     7
370
    25
100
AcDbLine
 10
696.6550141675
 20
606.5330955101
 30
0.0
 11
696.6550141675
 21
616.5330955101
 31
0.0
  0
LINE
  5
226
330
1F
100
AcDbEntity
  8
0
  6
Continuous
 62
     7
370
    25
100
AcDbLine
 10
696.6550141675
 20
573.7664288434
 30
0.0
 11
696.6550141675
 21
596.5330955101
 31
0.0
  0
LINE
  5
227
330
1F
100
AcDbEntity
  8
0
  6
Continuous
 62
     7
370
    25
100
AcDbLine
 10
696.6550141675
 20
540.9997621767
 30
0.0
 11
696.6550141675
 21
563.7664288434
 31
0.0
  0
LINE
  5
228
330
1F
100
AcDbEntity
  8
0
  6
Continuous
 62
     7
370
    25
100
AcDbLine
 10
696.6550141675
 20
488.2330955101
 30
0.0
 11
696.6550141675
 21
498.2330955101
 31
0.0
  0
LINE
  5
229
330
1F
100
AcDbEntity
  8
0
  6
Continuous
 62
     7
370
    25
100
AcDbLine
 10
696.6550141675
 20
508.2330955101
 30
0.0
 11
696.6550141675
 21
530.9997621767
 31
0.0
  0
LINE
  5
22A
330
1F
100
AcDbEntity
  8
0
  6
Continuous
 62
     7
370
    25
100
AcDbLine
 10
490.5550141675
 20
616.5330955101
 30
0.0
 11
480.5550141675
 21
616.5330955101
 31
0.0
  0
LINE
  5
22B
330
1F
100
AcDbEntity
  8
0
  6
Continuous
 62
     7
370
    25
100
AcDbLine
 10
527.7750141675
 20
616.5330955101
 30
0.0
 11
500.5550141675
 21
616.5330955101
 31
0.0
  0
LINE
  5
22C
330
1F
100
AcDbEntity
  8
0
  6
Continuous
 62
     7
370
    25
100
AcDbLine
 10
564.9950141675
 20
616.5330955101
 30
0.0
 11
537.7750141675
 21
616.5330955101
 31
0.0
  0
LINE
  5
22D
330
1F
100
AcDbEntity
  8
0
  6
Continuous
 62
     7
370
    25
100
AcDbLine
 10
602.2150141675
 20
616.5330955101
 30
0.0
 11
574.9950141675
 21
616.5330955101
 31
0.0
  0
LINE
  5
22E
330
1F
100
AcDbEntity
  8
0
  6
Continuous
 62
     7
370
    25
100
AcDbLine
 10
639.4350141675
 20
616.5330955101
 30
0.0
 11
612.2150141675
 21
616.5330955101
 31
0.0
  0
LINE
  5
22F
330
1F
100
AcDbEntity
  8
0
  6
Continuous
 62
     7
370
    25
100
AcDbLine
 10
696.6550141675
 20
616.5330955101
 30
0.0
 11
686.6550141675
 21
616.5330955101
 31
0.0
  0
LINE
  5
230
330
1F
100
AcDbEntity
  8
0
  6
Continuous
 62
     7
370
    25
100
AcDbLine
 10
676.6550141675
 20
616.5330955101
 30
0.0
 11
649.4350141675
 21
616.5330955101
 31
0.0
  0
LINE
  5
231
330
1F
100
AcDbEntity
  8
0
  6
Continuous
 62
     7
370
    25
100
AcDbLine
 10
480.5550141675
 20
488.2330955101
 30
0.0
 11
490.5550141675
 21
488.2330955101
 31
0.0
  0
LINE
  5
232
330
1F
100
AcDbEntity
  8
0
  6
Continuous
 62
     7
370
    25
100
AcDbLine
 10
500.5550141675
 20
488.2330955101
 30
0.0
 11
527.7750141675
 21
488.2330955101
 31
0.0
  0
LINE
  5
233
330
1F
100
AcDbEntity
  8
0
  6
Continuous
 62
     7
370
    25
100
AcDbLine
 10
537.7750141675
 20
488.2330955101
 30
0.0
 11
564.9950141675
 21
488.2330955101
 31
0.0
  0
LINE
  5
234
330
1F
100
AcDbEntity
  8
0
  6
Continuous
 62
     7
370
    25
100
AcDbLine
 10
574.9950141675
 20
488.2330955101
 30
0.0
 11
602.2150141675
 21
488.2330955101
 31
0.0
  0
LINE
  5
235
330
1F
100
AcDbEntity
  8
0
  6
Continuous
 62
     7
370
    25
100
AcDbLine
 10
612.2150141675
 20
488.2330955101
 30
0.0
 11
639.4350141675
 21
488.2330955101
 31
0.0
  0
LINE
  5
236
330
1F
100
AcDbEntity
  8
0
  6
Continuous
 62
     7
370
    25
100
AcDbLine
 10
649.4350141675
 20
488.2330955101
 30
0.0
 11
676.6550141675
 21
488.2330955101
 31
0.0
  0
ENDSEC
  0
SECTION
  2
OBJECTS
  0
DICTIONARY
  5
C
330
0
100
AcDbDictionary
281
     1
  3
ACAD_GROUP
350
D
  3
ACAD_LAYOUT
350
1A
  3
ACAD_MLINESTYLE
350
17
  3
ACAD_PLOTSETTINGS
350
19
  3
ACAD_PLOTSTYLENAME
350
E
  3
ACAD_SCALELIST
350
47
  3
DWGPROPS
350
237
  0
DICTIONARY
  5
D
102
{ACAD_REACTORS
330
C
102
}
330
C
100
AcDbDictionary
281
     1
  0
DICTIONARY
  5
1A
102
{ACAD_REACTORS
330
C
102
}
330
C
100
AcDbDictionary
281
     1
  3
Layout1
350
1E
  3
Layout2
350
26
  3
Model
350
22
  0
DICTIONARY
  5
17
102
{ACAD_REACTORS
330
C
102
}
330
C
100
AcDbDictionary
281
     1
  3
Standard
350
18
  0
DICTIONARY
  5
19
102
{ACAD_REACTORS
330
C
102
}
330
C
100
AcDbDictionary
281
     1
  0
ACDBDICTIONARYWDFLT
  5
E
102
{ACAD_REACTORS
330
C
102
}
330
C
100
AcDbDictionary
281
     1
  3
Normal
350
F
100
AcDbDictionaryWithDefault
340
F
  0
DICTIONARY
  5
47
102
{ACAD_REACTORS
330
C
102
}
330
C
100
AcDbDictionary
281
     1
  3
A0
350
48
  3
A1
350
49
  3
A2
350
4A
  3
A3
350
4B
  3
A4
350
4C
  3
A5
350
4D
  3
A6
350
4E
  3
A7
350
4F
  3
A8
350
50
  3
A9
350
51
  3
B0
350
52
  3
B1
350
53
  3
B2
350
54
  3
B3
350
55
  3
B4
350
56
  3
B5
350
57
  3
B6
350
58
  3
B7
350
59
  3
B8
350
5A
  3
B9
350
5B
  3
C0
350
5C
  3
C1
350
5D
  3
C2
350
5E
  3
C3
350
5F
  3
C4
350
60
  3
C5
350
61
  3
C6
350
62
  3
C7
350
63
  3
C8
350
64
  3
C9
350
65
  3
D0
350
66
  3
D1
350
67
  3
D2
350
68
  0
XRECORD
  5
237
102
{ACAD_REACTORS
330
C
102
}
330
C
100
AcDbXrecord
280
     1
  1
DWGPROPS COOKIE
  2

  3

  4

  6

  7

  8
Mich
  9

300
=
301
=
302
=
303
=
304
=
305
=
306
=
307
=
308
=
309
=
 40
0.0
 41
2459976.416861111
 42
2459976.416862222
  1

 90
        0
  0
LAYOUT
  5
1E
102
{ACAD_REACTORS
330
1A
102
}
330
1A
100
AcDbPlotSettings
  1

  2
none_device
  4

  6

 40
0.0
 41
0.0
 42
0.0
 43
0.0
 44
0.0
 45
0.0
 46
0.0
 47
0.0
 48
0.0
 49
0.0
140
0.0
141
0.0
142
1.0
143
1.0
 70
   688
 72
     1
 73
     0
 74
     5
  7

 75
    16
147
1.0
148
0.0
149
0.0
100
AcDbLayout
  1
Layout1
 70
     1
 71
     1
 10
0.0
 20
0.0
 11
420.0
 21
297.0
 12
0.0
 22
0.0
 32
0.0
 14
1.0000000000E+20
 24
1.0000000000E+20
 34
1.0000000000E+20
 15
-1.0000000000E+20
 25
-1.0000000000E+20
 35
-1.0000000000E+20
146
0.0
 13
0.0
 23
0.0
 33
0.0
 16
1.0
 26
0.0
 36
0.0
 17
0.0
 27
1.0
 37
0.0
 76
     0
330
1B
  0
LAYOUT
  5
26
102
{ACAD_REACTORS
330
1A
102
}
330
1A
100
AcDbPlotSettings
  1

  2
none_device
  4

  6

 40
0.0
 41
0.0
 42
0.0
 43
0.0
 44
0.0
 45
0.0
 46
0.0
 47
0.0
 48
0.0
 49
0.0
140
0.0
141
0.0
142
1.0
143
1.0
 70
   688
 72
     1
 73
     0
 74
     5
  7

 75
    16
147
1.0
148
0.0
149
0.0
100
AcDbLayout
  1
Layout2
 70
     1
 71
     2
 10
0.0
 20
0.0
 11
0.0
 21
0.0
 12
0.0
 22
0.0
 32
0.0
 14
0.0
 24
0.0
 34
0.0
 15
0.0
 25
0.0
 35
0.0
146
0.0
 13
0.0
 23
0.0
 33
0.0
 16
1.0
 26
0.0
 36
0.0
 17
0.0
 27
1.0
 37
0.0
 76
     0
330
23
  0
LAYOUT
  5
22
102
{ACAD_REACTORS
330
1A
102
}
330
1A
100
AcDbPlotSettings
  1

  2
none_device
  4
Letter_(8.50_x_11.00_Inches)
  6

 40
6.35
 41
6.35
 42
6.35000508
 43
6.35000508
 44
215.9
 45
279.4
 46
0.0
 47
0.0
 48
0.0
 49
0.0
140
0.0
141
0.0
142
1.0
143
1.0
 70
  1712
 72
     1
 73
     0
 74
     0
  7

 75
     0
147
1.0
148
0.0
149
0.0
100
AcDbLayout
  1
Model
 70
     1
 71
     0
 10
0.0
 20
0.0
 11
1189.0
 21
841.0
 12
0.0
 22
0.0
 32
0.0
 14
0.0
 24
0.0
 34
0.0
 15
1189.0
 25
841.0
 35
0.0
146
0.0
 13
0.0
 23
0.0
 33
0.0
 16
1.0
 26
0.0
 36
0.0
 17
0.0
 27
1.0
 37
0.0
 76
     0
330
1F
331
29
  0
MLINESTYLE
  5
18
102
{ACAD_REACTORS
330
17
102
}
330
17
100
AcDbMlineStyle
  2
Standard
 70
     0
  3

 62
   256
 51
90.0
 52
90.0
 71
     2
 49
0.5
 62
   256
  6
BYLAYER
 49
-0.5
 62
   256
  6
BYLAYER
  0
ACDBPLACEHOLDER
  5
F
102
{ACAD_REACTORS
330
E
102
}
330
E
  0
SCALE
  5
48
102
{ACAD_REACTORS
330
47
102
}
330
47
100
AcDbScale
 70
     0
300
1:1
140
1.0
141
1.0
290
     1
  0
SCALE
  5
49
102
{ACAD_REACTORS
330
47
102
}
330
47
100
AcDbScale
 70
     0
300
1:2
140
1.0
141
2.0
290
     0
  0
SCALE
  5
4A
102
{ACAD_REACTORS
330
47
102
}
330
47
100
AcDbScale
 70
     0
300
1:4
140
1.0
141
4.0
290
     0
  0
SCALE
  5
4B
102
{ACAD_REACTORS
330
47
102
}
330
47
100
AcDbScale
 70
     0
300
1:5
140
1.0
141
5.0
290
     0
  0
SCALE
  5
4C
102
{ACAD_REACTORS
330
47
102
}
330
47
100
AcDbScale
 70
     0
300
1:8
140
1.0
141
8.0
290
     0
  0
SCALE
  5
4D
102
{ACAD_REACTORS
330
47
102
}
330
47
100
AcDbScale
 70
     0
300
1:10
140
1.0
141
10.0
290
     0
  0
SCALE
  5
4E
102
{ACAD_REACTORS
330
47
102
}
330
47
100
AcDbScale
 70
     0
300
1:16
140
1.0
141
16.0
290
     0
  0
SCALE
  5
4F
102
{ACAD_REACTORS
330
47
102
}
330
47
100
AcDbScale
 70
     0
300
1:20
140
1.0
141
20.0
290
     0
  0
SCALE
  5
50
102
{ACAD_REACTORS
330
47
102
}
330
47
100
AcDbScale
 70
     0
300
1:30
140
1.0
141
30.0
290
     0
  0
SCALE
  5
51
102
{ACAD_REACTORS
330
47
102
}
330
47
100
AcDbScale
 70
     0
300
1:40
140
1.0
141
40.0
290
     0
  0
SCALE
  5
52
102
{ACAD_REACTORS
330
47
102
}
330
47
100
AcDbScale
 70
     0
300
1:50
140
1.0
141
50.0
290
     0
  0
SCALE
  5
53
102
{ACAD_REACTORS
330
47
102
}
330
47
100
AcDbScale
 70
     0
300
1:100
140
1.0
141
100.0
290
     0
  0
SCALE
  5
54
102
{ACAD_REACTORS
330
47
102
}
330
47
100
AcDbScale
 70
     0
300
2:1
140
2.0
141
1.0
290
     0
  0
SCALE
  5
55
102
{ACAD_REACTORS
330
47
102
}
330
47
100
AcDbScale
 70
     0
300
4:1
140
4.0
141
1.0
290
     0
  0
SCALE
  5
56
102
{ACAD_REACTORS
330
47
102
}
330
47
100
AcDbScale
 70
     0
300
8:1
140
8.0
141
1.0
290
     0
  0
SCALE
  5
57
102
{ACAD_REACTORS
330
47
102
}
330
47
100
AcDbScale
 70
     0
300
10:1
140
10.0
141
1.0
290
     0
  0
SCALE
  5
58
102
{ACAD_REACTORS
330
47
102
}
330
47
100
AcDbScale
 70
     0
300
100:1
140
100.0
141
1.0
290
     0
  0
SCALE
  5
59
102
{ACAD_REACTORS
330
47
102
}
330
47
100
AcDbScale
 70
     0
300
1/128" = 1'-0"
140
0.0078125
141
12.0
290
     0
  0
SCALE
  5
5A
102
{ACAD_REACTORS
330
47
102
}
330
47
100
AcDbScale
 70
     0
300
1/64" = 1'-0"
140
0.015625
141
12.0
290
     0
  0
SCALE
  5
5B
102
{ACAD_REACTORS
330
47
102
}
330
47
100
AcDbScale
 70
     0
300
1/32" = 1'-0"
140
0.03125
141
12.0
290
     0
  0
SCALE
  5
5C
102
{ACAD_REACTORS
330
47
102
}
330
47
100
AcDbScale
 70
     0
300
1/16" = 1'-0"
140
0.0625
141
12.0
290
     0
  0
SCALE
  5
5D
102
{ACAD_REACTORS
330
47
102
}
330
47
100
AcDbScale
 70
     0
300
3/32" = 1'-0"
140
0.09375
141
12.0
290
     0
  0
SCALE
  5
5E
102
{ACAD_REACTORS
330
47
102
}
330
47
100
AcDbScale
 70
     0
300
1/8" = 1'-0"
140
0.125
141
12.0
290
     0
  0
SCALE
  5
5F
102
{ACAD_REACTORS
330
47
102
}
330
47
100
AcDbScale
 70
     0
300
3/16" = 1'-0"
140
0.1875
141
12.0
290
     0
  0
SCALE
  5
60
102
{ACAD_REACTORS
330
47
102
}
330
47
100
AcDbScale
 70
     0
300
1/4" = 1'-0"
140
0.25
141
12.0
290
     0
  0
SCALE
  5
61
102
{ACAD_REACTORS
330
47
102
}
330
47
100
AcDbScale
 70
     0
300
3/8" = 1'-0"
140
0.375
141
12.0
290
     0
  0
SCALE
  5
62
102
{ACAD_REACTORS
330
47
102
}
330
47
100
AcDbScale
 70
     0
300
1/2" = 1'-0"
140
0.5
141
12.0
290
     0
  0
SCALE
  5
63
102
{ACAD_REACTORS
330
47
102
}
330
47
100
AcDbScale
 70
     0
300
3/4" = 1'-0"
140
0.75
141
12.0
290
     0
  0
SCALE
  5
64
102
{ACAD_REACTORS
330
47
102
}
330
47
100
AcDbScale
 70
     0
300
1" = 1'-0"
140
1.0
141
12.0
290
     0
  0
SCALE
  5
65
102
{ACAD_REACTORS
330
47
102
}
330
47
100
AcDbScale
 70
     0
300
1-1/2" = 1'-0"
140
1.5
141
12.0
290
     0
  0
SCALE
  5
66
102
{ACAD_REACTORS
330
47
102
}
330
47
100
AcDbScale
 70
     0
300
3" = 1'-0"
140
3.0
141
12.0
290
     0
  0
SCALE
  5
67
102
{ACAD_REACTORS
330
47
102
}
330
47
100
AcDbScale
 70
     0
300
6" = 1'-0"
140
6.0
141
12.0
290
     0
  0
SCALE
  5
68
102
{ACAD_REACTORS
330
47
102
}
330
47
100
AcDbScale
 70
     0
300
1'-0" = 1'-0"
140
12.0
141
12.0
290
     0
  0
ENDSEC
  0
EOF
